<svg xmlns="http://www.w3.org/2000/svg" xmlns:xlink="http://www.w3.org/1999/xlink" width="500" zoomAndPan="magnify" viewBox="0 0 375 374.999991" height="500" preserveAspectRatio="xMidYMid meet" version="1.0"><defs><clipPath id="26a33b6d37"><path d="M 0 0.605469 L 374.394531 0.605469 L 374.394531 375 L 0 375 Z M 0 0.605469 " clip-rule="nonzero"/></clipPath><clipPath id="8cb0cebed3"><path d="M 187.199219 0.605469 C 83.8125 0.605469 0 84.417969 0 187.800781 C 0 291.1875 83.8125 375 187.199219 375 C 290.582031 375 374.394531 291.1875 374.394531 187.800781 C 374.394531 84.417969 290.582031 0.605469 187.199219 0.605469 Z M 187.199219 0.605469 " clip-rule="nonzero"/></clipPath><clipPath id="70e00f0f1d"><path d="M 65.675781 187.5 L 178.175781 187.5 L 178.175781 300 L 65.675781 300 Z M 65.675781 187.5 " clip-rule="nonzero"/></clipPath><clipPath id="60eba29457"><path d="M 121.925781 187.5 C 90.859375 187.5 65.675781 212.683594 65.675781 243.75 C 65.675781 274.816406 90.859375 300 121.925781 300 C 152.992188 300 178.175781 274.816406 178.175781 243.75 C 178.175781 212.683594 152.992188 187.5 121.925781 187.5 Z M 121.925781 187.5 " clip-rule="nonzero"/></clipPath><clipPath id="83e4b80bd1"><path d="M 32.214844 211.054688 L 125.632812 211.054688 L 125.632812 304.472656 L 32.214844 304.472656 Z M 32.214844 211.054688 " clip-rule="nonzero"/></clipPath><clipPath id="72522fafb1"><path d="M 78.925781 211.054688 C 53.128906 211.054688 32.214844 231.96875 32.214844 257.765625 C 32.214844 283.5625 53.128906 304.472656 78.925781 304.472656 C 104.722656 304.472656 125.632812 283.5625 125.632812 257.765625 C 125.632812 231.96875 104.722656 211.054688 78.925781 211.054688 Z M 78.925781 211.054688 " clip-rule="nonzero"/></clipPath><clipPath id="2732afc894"><path d="M 78 220 L 202 220 L 202 305 L 78 305 Z M 78 220 " clip-rule="nonzero"/></clipPath><clipPath id="ed32f533b4"><path d="M 79.355469 304.464844 L 78.921875 220.535156 L 201.207031 219.902344 L 201.640625 303.832031 Z M 79.355469 304.464844 " clip-rule="nonzero"/></clipPath><clipPath id="8bf30f247c"><path d="M 198.847656 275.855469 C 200.289062 271.542969 201.222656 266.648438 201.199219 261.847656 C 201.171875 257.042969 200.324219 252.429688 198.839844 248.179688 C 198.792969 248.089844 198.792969 248 198.746094 247.90625 C 192.8125 231.949219 177.296875 220.253906 158.816406 220.125 L 78.921875 220.535156 L 79.355469 304.464844 L 159.191406 304.050781 C 177.820312 303.726562 193.214844 292.054688 198.847656 275.855469 Z M 198.847656 275.855469 " clip-rule="nonzero"/></clipPath><clipPath id="a5b118ab2e"><path d="M 245.601562 103.523438 L 339.019531 103.523438 L 339.019531 196.941406 L 245.601562 196.941406 Z M 245.601562 103.523438 " clip-rule="nonzero"/></clipPath><clipPath id="c8fbf444df"><path d="M 292.3125 103.523438 C 266.515625 103.523438 245.601562 124.4375 245.601562 150.234375 C 245.601562 176.03125 266.515625 196.941406 292.3125 196.941406 C 318.109375 196.941406 339.019531 176.03125 339.019531 150.234375 C 339.019531 124.4375 318.109375 103.523438 292.3125 103.523438 Z M 292.3125 103.523438 " clip-rule="nonzero"/></clipPath><clipPath id="65c15fb6a8"><path d="M 86.300781 33.695312 L 159.722656 33.695312 L 159.722656 109 L 86.300781 109 Z M 86.300781 33.695312 " clip-rule="nonzero"/></clipPath><clipPath id="878bdf5de8"><path d="M 159.675781 60.226562 C 159.75 83.851562 156.976562 89.925781 153.375 94.5 C 149.851562 99.074219 144.601562 103.199219 139.273438 105.523438 C 133.949219 107.925781 127.425781 109.125 121.648438 108.75 C 115.800781 108.449219 109.425781 106.425781 104.476562 103.425781 C 99.523438 100.425781 94.800781 95.699219 91.800781 90.75 C 88.800781 85.800781 86.773438 79.425781 86.476562 73.574219 C 86.101562 67.800781 87.300781 61.273438 89.699219 55.949219 C 92.101562 50.625 96.226562 45.375 100.800781 41.851562 C 105.375 38.25 111.449219 35.476562 117.148438 34.5 C 122.851562 33.449219 129.523438 33.824219 135.074219 35.550781 C 140.625 37.273438 150.449219 44.851562 150.449219 44.851562 " clip-rule="nonzero"/></clipPath><clipPath id="16f81d467d"><path d="M 92.375 37 L 165.796875 37 L 165.796875 112.300781 L 92.375 112.300781 Z M 92.375 37 " clip-rule="nonzero"/></clipPath><clipPath id="aa8f6c9066"><path d="M 165.75 63.523438 C 165.824219 87.148438 163.050781 93.226562 159.523438 97.800781 C 155.925781 102.375 150.675781 106.5 145.351562 108.898438 C 140.101562 111.226562 133.5 112.425781 127.726562 112.125 C 121.875 111.75 115.574219 109.800781 110.550781 106.726562 C 105.601562 103.726562 100.875 99 97.875 94.050781 C 94.875 89.101562 92.925781 82.726562 92.550781 76.949219 C 92.175781 71.101562 93.375 64.574219 95.773438 59.25 C 98.175781 54 102.300781 48.75 106.875 45.148438 C 111.449219 41.550781 117.523438 38.851562 123.226562 37.800781 C 128.925781 36.75 135.601562 37.125 141.148438 38.851562 C 146.699219 40.574219 156.523438 48.148438 156.523438 48.148438 " clip-rule="nonzero"/></clipPath><clipPath id="bee0176c28"><path d="M 90.125 36 L 163.859375 36 L 163.859375 111.175781 L 90.125 111.175781 Z M 90.125 36 " clip-rule="nonzero"/></clipPath><clipPath id="ceff32b443"><path d="M 163.574219 62.398438 C 163.574219 86.023438 160.875 92.101562 157.273438 96.675781 C 153.675781 101.25 148.425781 105.375 143.175781 107.773438 C 137.851562 110.175781 131.324219 111.375 125.476562 111 C 119.699219 110.625 113.324219 108.675781 108.375 105.675781 C 103.425781 102.675781 98.699219 97.949219 95.699219 92.925781 C 92.699219 87.976562 90.675781 81.601562 90.300781 75.824219 C 90 70.050781 91.199219 63.449219 93.601562 58.199219 C 95.925781 52.875 100.050781 47.625 104.625 44.023438 C 109.199219 40.425781 115.273438 37.726562 120.976562 36.675781 C 126.75 35.625 133.351562 36 138.898438 37.726562 C 144.449219 39.523438 154.273438 47.023438 154.273438 47.023438 " clip-rule="nonzero"/></clipPath><clipPath id="3f2975722f"><path d="M 57 35.347656 L 130.394531 35.347656 L 130.394531 110.652344 L 57 110.652344 Z M 57 35.347656 " clip-rule="nonzero"/></clipPath><clipPath id="c402ed2f8c"><path d="M 130.351562 61.875 C 130.425781 85.5 127.648438 91.574219 124.125 96.148438 C 120.523438 100.726562 115.273438 104.851562 109.949219 107.175781 C 104.699219 109.574219 98.101562 110.773438 92.324219 110.476562 C 86.550781 110.101562 80.175781 108.074219 75.148438 105.074219 C 70.199219 102.074219 65.476562 97.351562 62.476562 92.398438 C 59.476562 87.449219 57.523438 81.074219 57.148438 75.300781 C 56.773438 69.449219 57.976562 62.925781 60.375 57.601562 C 62.773438 52.351562 66.898438 47.101562 71.476562 43.5 C 76.050781 39.898438 82.125 37.199219 87.824219 36.148438 C 93.523438 35.101562 100.199219 35.476562 105.75 37.199219 C 111.300781 38.925781 121.125 46.5 121.125 46.5 " clip-rule="nonzero"/></clipPath><clipPath id="c74d71ea80"><path d="M 67.472656 36.394531 L 141 36.394531 L 141 111.699219 L 67.472656 111.699219 Z M 67.472656 36.394531 " clip-rule="nonzero"/></clipPath><clipPath id="02990c3f81"><path d="M 140.925781 62.925781 C 140.925781 86.625 138.226562 92.699219 134.625 97.273438 C 131.023438 101.851562 125.773438 105.898438 120.449219 108.300781 C 115.199219 110.699219 108.601562 111.898438 102.824219 111.523438 C 97.050781 111.226562 90.675781 109.199219 85.648438 106.199219 C 80.699219 103.199219 75.976562 98.476562 72.976562 93.523438 C 69.976562 88.574219 68.023438 82.199219 67.648438 76.351562 C 67.273438 70.574219 68.476562 64.050781 70.875 58.726562 C 73.273438 53.398438 77.398438 48.148438 81.976562 44.625 C 86.550781 41.023438 92.625 38.25 98.324219 37.199219 C 104.023438 36.148438 110.699219 36.601562 116.25 38.324219 C 121.800781 40.050781 131.625 47.625 131.625 47.625 " clip-rule="nonzero"/></clipPath><clipPath id="cc71173055"><path d="M 75.199219 36.394531 L 148.933594 36.394531 L 148.933594 111.699219 L 75.199219 111.699219 Z M 75.199219 36.394531 " clip-rule="nonzero"/></clipPath><clipPath id="94dc379f20"><path d="M 148.648438 62.925781 C 148.648438 86.625 145.949219 92.699219 142.351562 97.273438 C 138.75 101.851562 133.5 105.898438 128.25 108.300781 C 122.925781 110.699219 116.398438 111.898438 110.550781 111.523438 C 104.773438 111.226562 98.398438 109.199219 93.449219 106.199219 C 88.425781 103.199219 83.773438 98.476562 80.773438 93.523438 C 77.699219 88.574219 75.75 82.199219 75.375 76.351562 C 75.074219 70.574219 76.273438 64.050781 78.675781 58.726562 C 81 53.398438 85.125 48.148438 89.699219 44.625 C 94.273438 41.023438 100.351562 38.25 106.050781 37.199219 C 111.824219 36.148438 118.425781 36.601562 123.976562 38.324219 C 129.523438 40.050781 139.351562 47.625 139.351562 47.625 " clip-rule="nonzero"/></clipPath><clipPath id="a39f8f54c9"><path d="M 83.523438 36.394531 L 156.945312 36.394531 L 156.945312 111.699219 L 83.523438 111.699219 Z M 83.523438 36.394531 " clip-rule="nonzero"/></clipPath><clipPath id="b72b2ab73d"><path d="M 156.898438 62.925781 C 156.976562 86.625 154.199219 92.699219 150.675781 97.273438 C 147.074219 101.851562 141.824219 105.898438 136.5 108.300781 C 131.25 110.699219 124.648438 111.898438 118.875 111.523438 C 113.101562 111.226562 106.726562 109.199219 101.699219 106.199219 C 96.75 103.199219 92.023438 98.476562 89.023438 93.523438 C 86.023438 88.574219 84.074219 82.199219 83.699219 76.351562 C 83.324219 70.574219 84.523438 64.050781 86.925781 58.726562 C 89.324219 53.398438 93.449219 48.148438 98.023438 44.625 C 102.601562 41.023438 108.675781 38.25 114.375 37.199219 C 120.074219 36.148438 126.75 36.601562 132.300781 38.324219 C 137.851562 40.050781 147.675781 47.625 147.675781 47.625 " clip-rule="nonzero"/></clipPath><clipPath id="da54a11f22"><path d="M 32.273438 73.675781 L 96.621094 73.675781 L 96.621094 108.800781 L 32.273438 108.800781 Z M 32.273438 73.675781 " clip-rule="nonzero"/></clipPath><clipPath id="deb209992f"><path d="M 79.648438 107.550781 C 46.648438 108.523438 45.523438 108.375 43.800781 107.773438 C 42.148438 107.25 40.425781 106.351562 39 105.226562 C 37.574219 104.175781 36.300781 102.75 35.25 101.25 C 34.273438 99.824219 33.449219 98.023438 33 96.300781 C 32.476562 94.574219 32.25 92.699219 32.398438 90.898438 C 32.476562 89.101562 32.851562 87.226562 33.523438 85.574219 C 34.199219 83.925781 35.175781 82.273438 36.375 80.925781 C 37.5 79.5 39 78.300781 40.5 77.324219 C 42.074219 76.425781 43.875 75.75 45.601562 75.300781 C 47.324219 74.925781 49.273438 74.851562 51.074219 75.074219 C 52.800781 75.226562 54.675781 75.75 56.324219 76.5 C 57.976562 77.25 59.550781 78.300781 60.824219 79.574219 C 62.101562 80.773438 63.300781 82.351562 64.125 83.925781 C 64.949219 85.5 65.625 87.300781 65.851562 89.101562 C 66.148438 90.824219 66.148438 92.773438 65.851562 94.574219 C 65.550781 96.300781 64.949219 98.101562 64.125 99.75 C 63.300781 101.324219 62.101562 102.824219 60.824219 104.101562 C 59.550781 105.300781 57.976562 106.351562 56.324219 107.101562 C 54.675781 107.851562 52.800781 108.375 51.074219 108.601562 C 49.273438 108.75 47.324219 108.675781 45.601562 108.300781 C 43.875 107.925781 42.074219 107.175781 40.5 106.273438 C 39 105.375 37.5 104.101562 36.375 102.75 C 35.175781 101.398438 34.199219 99.75 33.523438 98.023438 C 32.851562 96.375 32.476562 94.5 32.398438 92.699219 C 32.25 90.898438 32.476562 89.023438 33 87.300781 C 33.449219 85.574219 34.273438 83.851562 35.25 82.351562 C 36.300781 80.851562 37.574219 79.5 39 78.375 C 40.425781 77.324219 42.148438 76.425781 43.875 75.824219 C 45.523438 75.226562 47.773438 74.324219 49.199219 74.925781 C 50.773438 75.601562 50.773438 79.125 52.875 79.875 C 56.925781 81.300781 70.199219 74.476562 74.851562 73.800781 C 77.023438 73.574219 78.148438 73.726562 79.648438 73.800781 C 81.074219 73.949219 82.199219 73.875 83.699219 74.324219 C 85.800781 75 89.101562 76.726562 90.824219 78.074219 C 92.101562 79.050781 92.699219 79.800781 93.523438 81.148438 C 94.648438 83.023438 96 86.476562 96.375 88.648438 C 96.675781 90.226562 96.675781 91.199219 96.375 92.773438 C 96 94.875 95.023438 98.175781 93.523438 100.273438 C 92.023438 102.449219 89.773438 104.398438 87.449219 105.675781 C 85.199219 106.875 79.648438 107.550781 79.648438 107.550781 " clip-rule="nonzero"/></clipPath><clipPath id="b2a4714294"><path d="M 33.640625 16.464844 L 129.84375 16.464844 L 129.84375 106 L 33.640625 106 Z M 33.640625 16.464844 " clip-rule="nonzero"/></clipPath><clipPath id="e71210c8a8"><path d="M 36.675781 80.023438 C 60.375 50.175781 82.425781 30.75 94.050781 23.699219 C 100.574219 19.726562 106.648438 17.625 110.773438 16.949219 C 113.175781 16.574219 114.601562 16.726562 116.550781 17.324219 C 118.875 17.925781 121.800781 19.199219 123.75 20.925781 C 125.773438 22.648438 127.5 25.5 128.476562 27.523438 C 129.148438 28.875 129.375 29.851562 129.523438 31.425781 C 129.675781 33.601562 129.523438 36.976562 128.699219 39.449219 C 127.800781 41.925781 125.699219 44.625 124.199219 46.199219 C 123.148438 47.324219 122.324219 47.851562 120.898438 48.523438 C 118.875 49.5 113.101562 50.175781 113.101562 50.625 C 113.101562 50.851562 115.351562 50.699219 115.5 51.074219 C 115.648438 51.675781 112.800781 53.625 111.226562 54.523438 C 109.648438 55.351562 107.851562 56.023438 106.125 56.398438 C 104.324219 56.699219 102.449219 56.773438 100.648438 56.550781 C 98.851562 56.324219 97.050781 55.726562 95.398438 54.976562 C 93.824219 54.148438 92.25 53.023438 90.976562 51.824219 C 89.699219 50.550781 88.574219 48.976562 87.75 47.324219 C 87 45.75 86.398438 43.949219 86.175781 42.148438 C 85.949219 40.351562 85.949219 38.476562 86.324219 36.675781 C 86.625 34.949219 87.300781 33.148438 88.199219 31.574219 C 89.023438 30 90.226562 28.5 91.574219 27.300781 C 92.925781 26.101562 94.5 25.050781 96.148438 24.375 C 97.800781 23.625 99.675781 23.175781 101.476562 23.023438 C 103.273438 22.875 105.148438 23.023438 106.875 23.398438 C 108.675781 23.851562 110.398438 24.601562 111.898438 25.574219 C 113.476562 26.550781 114.898438 27.824219 116.023438 29.25 C 117.148438 30.601562 118.050781 32.25 118.726562 33.976562 C 119.324219 35.625 119.699219 37.5 119.773438 39.300781 C 119.773438 41.101562 119.550781 43.050781 119.023438 44.699219 C 118.5 46.425781 117.675781 48.148438 116.625 49.648438 C 115.574219 51.074219 114.226562 52.425781 112.726562 53.476562 C 111.300781 54.523438 109.574219 55.425781 107.851562 55.949219 C 106.125 56.476562 104.25 56.699219 102.449219 56.699219 C 100.648438 56.625 98.773438 56.324219 97.125 55.648438 C 95.398438 55.050781 93.75 54.148438 92.324219 53.023438 C 90.898438 51.898438 89.625 50.476562 88.648438 48.976562 C 87.675781 47.398438 86.925781 45.675781 86.476562 43.949219 C 86.101562 42.226562 85.875 40.273438 86.023438 38.476562 C 86.175781 36.675781 86.625 34.875 87.375 33.226562 C 88.050781 31.574219 88.5 30.226562 90.300781 28.574219 C 94.050781 25.125 108 17.773438 112.5 16.875 C 114.300781 16.5 115.050781 16.875 116.550781 17.324219 C 118.648438 17.925781 121.800781 19.199219 123.75 20.925781 C 125.773438 22.648438 127.5 25.050781 128.476562 27.523438 C 129.449219 29.925781 129.824219 32.925781 129.601562 35.476562 C 129.300781 38.101562 128.324219 40.949219 126.824219 43.125 C 125.398438 45.300781 123.148438 47.324219 120.898438 48.523438 C 118.574219 49.800781 113.476562 51.300781 113.101562 50.625 C 112.574219 49.800781 120 43.199219 119.851562 43.050781 C 119.625 42.824219 111.523438 51.074219 106.726562 54.75 C 101.699219 58.648438 95.324219 61.726562 90.148438 65.699219 C 85.199219 69.449219 80.175781 73.050781 76.425781 77.773438 C 72.523438 82.648438 69.976562 90.375 67.351562 94.648438 C 65.550781 97.425781 64.5 99.449219 62.550781 101.25 C 60.601562 103.050781 58.050781 104.550781 55.5 105.300781 C 53.023438 105.976562 49.648438 105.898438 47.476562 105.601562 C 45.898438 105.375 45 105 43.574219 104.25 C 41.699219 103.199219 38.925781 101.25 37.351562 99.148438 C 35.773438 97.050781 34.726562 93.824219 34.199219 91.726562 C 33.898438 90.148438 33.824219 89.175781 34.050781 87.675781 C 34.351562 85.5 36.675781 79.949219 36.675781 79.949219 " clip-rule="nonzero"/></clipPath><clipPath id="22a61e96f7"><path d="M 32.851562 71.542969 L 65.984375 71.542969 L 65.984375 105.445312 L 32.851562 105.445312 Z M 32.851562 71.542969 " clip-rule="nonzero"/></clipPath><clipPath id="17c7807ee8"><path d="M 65.925781 83.476562 C 65.925781 94.125 64.648438 96.824219 63.074219 98.925781 C 61.425781 100.949219 59.101562 102.824219 56.699219 103.875 C 54.300781 104.925781 51.375 105.523438 48.75 105.375 C 46.125 105.148438 43.273438 104.324219 41.023438 102.898438 C 38.773438 101.550781 36.675781 99.449219 35.324219 97.199219 C 33.976562 94.949219 33.074219 92.101562 32.925781 89.476562 C 32.773438 86.925781 33.300781 83.925781 34.425781 81.601562 C 35.476562 79.199219 37.351562 76.800781 39.375 75.226562 C 41.398438 73.574219 44.175781 72.375 46.726562 71.925781 C 49.273438 71.398438 52.273438 71.625 54.824219 72.375 C 57.300781 73.199219 61.726562 76.574219 61.726562 76.574219 " clip-rule="nonzero"/></clipPath><clipPath id="4704b2b8d7"><path d="M 33.246094 28.585938 L 107.226562 28.585938 L 107.226562 103.808594 L 33.246094 103.808594 Z M 33.246094 28.585938 " clip-rule="nonzero"/></clipPath><clipPath id="5efaf2ba2b"><path d="M 35.476562 78.824219 C 39.976562 71.324219 45.074219 65.550781 49.125 60.824219 C 53.476562 55.800781 57.75 49.574219 62.925781 45.601562 C 67.875 41.851562 74.773438 40.425781 79.273438 37.425781 C 82.949219 34.875 85.574219 30.074219 88.5 29.101562 C 90.375 28.425781 92.175781 29.023438 93.898438 29.476562 C 95.699219 29.851562 97.425781 30.601562 99 31.5 C 100.5 32.476562 102 33.75 103.125 35.101562 C 104.25 36.449219 105.226562 38.101562 105.898438 39.824219 C 106.5 41.476562 106.949219 43.351562 107.023438 45.148438 C 107.101562 46.949219 106.875 48.824219 106.351562 50.550781 C 105.898438 52.273438 105.074219 54 104.023438 55.5 C 103.050781 57 101.699219 58.351562 100.273438 59.398438 C 98.773438 60.523438 97.125 61.425781 95.398438 61.949219 C 93.675781 62.476562 91.800781 62.773438 90 62.773438 C 88.199219 62.773438 86.324219 62.476562 84.601562 61.875 C 82.949219 61.273438 81.226562 60.375 79.800781 59.25 C 78.375 58.125 77.101562 56.773438 76.125 55.273438 C 75.074219 53.773438 74.324219 51.976562 73.875 50.25 C 73.425781 48.523438 73.199219 46.648438 73.351562 44.851562 C 73.425781 43.050781 73.875 41.175781 74.550781 39.523438 C 75.226562 37.875 76.199219 36.226562 77.398438 34.875 C 78.601562 33.523438 80.023438 32.25 81.601562 31.351562 C 83.101562 30.449219 84.898438 29.773438 86.699219 29.398438 C 88.425781 29.023438 90.375 28.949219 92.101562 29.175781 C 93.898438 29.324219 95.773438 29.925781 97.351562 30.675781 C 99 31.425781 100.574219 32.550781 101.851562 33.75 C 103.199219 35.023438 104.324219 36.523438 105.148438 38.175781 C 105.976562 39.75 106.574219 41.550781 106.800781 43.351562 C 107.101562 45.074219 107.101562 47.023438 106.800781 48.824219 C 106.5 50.550781 105.824219 52.351562 105 53.925781 C 104.101562 55.5 102.976562 57.074219 101.625 58.273438 C 100.351562 59.476562 98.699219 60.523438 97.125 61.273438 C 95.476562 62.023438 91.875 62.25 91.800781 62.699219 C 91.800781 63.074219 94.648438 63 94.800781 63.824219 C 95.175781 65.851562 83.550781 73.425781 78.75 78.148438 C 74.550781 82.351562 70.199219 86.925781 67.425781 90.675781 C 65.398438 93.375 64.800781 96.148438 62.851562 98.175781 C 60.976562 100.125 58.574219 101.773438 56.175781 102.675781 C 53.699219 103.574219 50.324219 103.726562 48.148438 103.574219 C 46.574219 103.425781 45.601562 103.199219 44.175781 102.523438 C 42.148438 101.625 39.300781 99.898438 37.574219 97.875 C 35.851562 95.925781 34.5 92.773438 33.898438 90.675781 C 33.449219 89.175781 33.375 88.199219 33.449219 86.625 C 33.601562 84.449219 35.476562 78.824219 35.476562 78.824219 " clip-rule="nonzero"/></clipPath><clipPath id="13c54ec543"><path d="M 22.851562 79.101562 L 50.433594 79.101562 L 50.433594 106.296875 L 22.851562 106.296875 Z M 22.851562 79.101562 " clip-rule="nonzero"/></clipPath><clipPath id="d261dbb83a"><path d="M 47.023438 106.273438 C 31.351562 105.75 30.898438 104.476562 29.625 104.023438 C 28.125 103.574219 25.574219 104.550781 24.523438 103.800781 C 23.625 103.199219 23.25 101.550781 23.25 100.425781 C 23.25 99.300781 23.773438 97.949219 24.449219 96.976562 C 25.125 95.925781 26.550781 95.324219 27.226562 94.199219 C 27.976562 92.925781 27.75 90.898438 28.5 89.550781 C 29.324219 88.199219 30.898438 87.523438 32.023438 86.175781 C 33.375 84.449219 34.648438 81 35.699219 80.023438 C 36.226562 79.574219 36.601562 79.425781 37.199219 79.273438 C 37.875 79.199219 38.925781 79.273438 39.523438 79.648438 C 40.199219 80.023438 40.800781 80.851562 41.101562 81.523438 C 41.324219 82.050781 41.550781 82.800781 41.25 83.101562 C 40.574219 83.699219 34.800781 82.875 34.425781 81.976562 C 34.125 81.449219 35.023438 80.398438 35.550781 79.875 C 36.148438 79.425781 37.050781 79.125 37.800781 79.125 C 38.550781 79.125 39.523438 79.5 40.050781 80.023438 C 40.574219 80.550781 41.101562 81.226562 41.101562 82.199219 C 41.023438 84.300781 35.851562 89.773438 35.25 92.324219 C 34.949219 93.75 35.023438 95.550781 35.476562 95.851562 C 35.625 96 36.074219 95.476562 36.375 95.625 C 36.824219 95.773438 37.574219 96.824219 37.726562 97.574219 C 37.949219 98.25 37.800781 99.226562 37.5 99.898438 C 37.125 100.574219 36.601562 101.175781 35.699219 101.550781 C 34.351562 102.148438 31.351562 102.449219 29.699219 102.375 C 28.574219 102.300781 27.601562 102.148438 26.851562 101.699219 C 26.101562 101.25 25.425781 100.648438 25.199219 99.898438 C 24.976562 99 25.050781 97.5 25.574219 96.75 C 26.101562 96 27.675781 96.074219 28.351562 95.324219 C 29.101562 94.5 29.398438 93.449219 29.925781 92.175781 C 30.75 90.074219 31.574219 85.199219 32.476562 83.773438 C 32.851562 83.101562 33.148438 82.875 33.675781 82.648438 C 34.273438 82.351562 35.25 82.050781 36 82.273438 C 36.898438 82.5 38.023438 83.476562 38.398438 84.300781 C 38.773438 85.125 38.699219 87.148438 38.101562 87.449219 C 37.273438 87.824219 32.550781 84.75 32.550781 83.851562 C 32.476562 83.25 33.75 82.574219 34.425781 82.425781 C 35.175781 82.199219 36.148438 82.273438 36.824219 82.648438 C 37.5 82.949219 38.175781 83.699219 38.476562 84.375 C 38.773438 85.050781 38.925781 85.875 38.550781 86.773438 C 37.875 88.5 33.074219 90.898438 32.175781 93 C 31.574219 94.5 32.550781 96.226562 32.175781 97.5 C 31.800781 98.625 30 100.199219 30.226562 100.425781 C 30.375 100.648438 31.949219 99.226562 33.300781 98.925781 C 35.699219 98.398438 41.625 98.25 43.648438 99.148438 C 44.773438 99.601562 45.523438 100.574219 45.824219 101.398438 C 46.125 102.074219 46.050781 102.898438 45.75 103.574219 C 45.300781 104.324219 44.175781 105.375 43.351562 105.601562 C 42.601562 105.824219 41.773438 105.675781 41.175781 105.375 C 40.574219 105.074219 39.898438 104.550781 39.601562 103.875 C 39.226562 103.125 39.148438 101.550781 39.601562 100.726562 C 40.050781 99.898438 41.398438 99.148438 42.226562 99 C 42.898438 98.851562 43.726562 99.074219 44.324219 99.449219 C 44.925781 99.75 45.449219 100.425781 45.75 101.101562 C 45.976562 101.699219 46.125 102.523438 45.824219 103.199219 C 45.523438 104.023438 44.925781 105 43.648438 105.523438 C 40.875 106.726562 31.050781 106.050781 27.675781 105.675781 C 26.175781 105.523438 25.125 105.601562 24.375 104.851562 C 23.398438 103.949219 22.800781 102 22.875 100.351562 C 23.101562 98.175781 25.875 95.101562 26.476562 93 C 26.925781 91.726562 26.324219 90.75 26.925781 89.550781 C 28.050781 87.375 32.398438 83.023438 34.425781 82.425781 C 35.625 82.125 36.824219 82.648438 37.5 83.101562 C 38.023438 83.398438 38.324219 83.851562 38.476562 84.375 C 38.699219 85.050781 38.625 86.25 38.550781 86.773438 C 38.476562 87.074219 38.476562 87.449219 38.175781 87.523438 C 37.425781 87.675781 32.476562 84.675781 32.476562 83.773438 C 32.476562 83.175781 33.601562 82.5 34.425781 82.351562 C 35.25 82.125 36.75 82.425781 37.425781 83.023438 C 38.101562 83.476562 38.550781 84.074219 38.625 85.050781 C 38.851562 87 37.125 91.574219 35.773438 94.273438 C 34.648438 96.675781 32.851562 99.226562 31.425781 100.5 C 30.375 101.398438 29.324219 102 28.351562 102.074219 C 27.601562 102.074219 26.699219 101.699219 26.175781 101.25 C 25.574219 100.726562 25.125 99.824219 25.050781 99.074219 C 24.976562 98.324219 25.199219 97.351562 25.574219 96.75 C 26.023438 96.148438 26.773438 95.550781 27.601562 95.398438 C 28.5 95.25 29.550781 96.226562 30.675781 96.226562 C 32.175781 96.300781 34.425781 94.800781 35.625 95.25 C 36.601562 95.550781 37.425781 96.675781 37.726562 97.574219 C 37.949219 98.25 37.875 99.226562 37.5 99.898438 C 37.050781 100.726562 35.925781 101.550781 34.949219 101.773438 C 33.898438 101.925781 32.550781 101.550781 31.574219 100.875 C 30.375 100.125 29.175781 98.324219 28.726562 96.898438 C 28.273438 95.699219 28.648438 94.273438 28.726562 93 C 28.800781 91.800781 28.648438 90.824219 29.175781 89.476562 C 30.074219 87.074219 33.226562 82.125 35.023438 80.476562 C 36 79.648438 36.898438 79.125 37.800781 79.125 C 38.773438 79.125 40.050781 79.949219 40.574219 80.625 C 41.023438 81.300781 41.476562 82.574219 41.101562 83.023438 C 40.425781 83.699219 34.949219 82.949219 34.574219 82.125 C 34.351562 81.523438 35.625 80.023438 36.449219 79.574219 C 37.125 79.199219 38.101562 79.125 38.773438 79.351562 C 39.675781 79.648438 40.800781 80.625 41.101562 81.523438 C 41.398438 82.351562 41.175781 83.398438 40.648438 84.449219 C 39.824219 86.398438 36.148438 89.023438 34.648438 91.425781 C 33.300781 93.675781 33.226562 97.5 31.726562 98.476562 C 30.75 99.148438 28.050781 98.324219 28.050781 98.398438 C 28.050781 98.476562 45.976562 98.773438 48.601562 99.898438 C 49.351562 100.199219 49.5 100.5 49.800781 100.949219 C 50.175781 101.550781 50.476562 102.523438 50.398438 103.273438 C 50.25 104.023438 49.800781 104.925781 49.273438 105.375 C 48.675781 105.898438 47.023438 106.273438 47.023438 106.273438 " clip-rule="nonzero"/></clipPath><clipPath id="dd92f752d5"><path d="M 282.050781 83.421875 L 355.785156 83.421875 L 355.785156 158.726562 L 282.050781 158.726562 Z M 282.050781 83.421875 " clip-rule="nonzero"/></clipPath><clipPath id="e9486a0589"><path d="M 355.5 109.949219 C 355.5 133.574219 352.800781 139.648438 349.199219 144.226562 C 345.601562 148.800781 340.351562 152.925781 335.101562 155.324219 C 329.773438 157.726562 323.25 158.925781 317.398438 158.550781 C 311.625 158.175781 305.25 156.226562 300.300781 153.226562 C 295.351562 150.226562 290.625 145.5 287.625 140.550781 C 284.625 135.523438 282.601562 129.148438 282.226562 123.375 C 281.925781 117.601562 283.125 111 285.523438 105.75 C 287.851562 100.425781 291.976562 95.175781 296.550781 91.574219 C 301.125 88.050781 307.199219 85.273438 312.898438 84.226562 C 318.675781 83.175781 325.273438 83.625 330.824219 85.351562 C 336.375 87.074219 346.199219 94.648438 346.199219 94.648438 " clip-rule="nonzero"/></clipPath><clipPath id="3f5b594fdb"><path d="M 273.664062 100.039062 L 368.222656 100.039062 L 368.222656 197.671875 L 273.664062 197.671875 Z M 273.664062 100.039062 " clip-rule="nonzero"/></clipPath><clipPath id="9f9a0ad7e1"><path d="M 309.675781 122.398438 C 319.5 126.074219 296.550781 167.699219 297.601562 168.375 C 297.898438 168.523438 300.898438 165.976562 300.976562 164.25 C 301.050781 161.699219 295.648438 158.023438 293.851562 154.425781 C 292.050781 150.824219 290.851562 146.773438 290.25 142.800781 C 289.726562 138.898438 289.875 134.625 290.625 130.726562 C 291.375 126.75 292.800781 122.773438 294.75 119.324219 C 296.699219 115.800781 299.398438 112.5 302.324219 109.875 C 305.324219 107.175781 308.925781 104.851562 312.601562 103.273438 C 316.199219 101.699219 320.398438 100.648438 324.375 100.351562 C 328.351562 100.050781 332.550781 100.351562 336.449219 101.324219 C 340.273438 102.300781 344.25 103.949219 347.625 106.125 C 350.925781 108.226562 354.148438 111.074219 356.625 114.226562 C 359.101562 117.300781 361.199219 120.976562 362.625 124.726562 C 363.976562 128.476562 364.800781 132.675781 364.949219 136.648438 C 365.023438 140.625 364.425781 144.898438 363.300781 148.648438 C 362.101562 152.476562 360.226562 156.300781 357.898438 159.523438 C 355.574219 162.824219 352.574219 165.824219 349.351562 168.148438 C 346.125 170.476562 342.300781 172.351562 338.476562 173.550781 C 334.648438 174.75 330.449219 175.273438 326.476562 175.199219 C 322.5 175.125 318.300781 174.300781 314.550781 172.949219 C 310.800781 171.601562 307.050781 169.5 303.976562 166.949219 C 300.824219 164.476562 298.050781 161.324219 295.875 157.949219 C 293.699219 154.574219 292.050781 150.675781 291.074219 146.851562 C 290.101562 142.949219 289.726562 138.675781 290.023438 134.699219 C 290.398438 130.726562 291.375 126.601562 292.949219 122.925781 C 294.523438 119.25 296.851562 115.648438 299.476562 112.726562 C 302.175781 109.726562 305.476562 107.101562 308.925781 105.074219 C 312.449219 103.125 316.425781 101.625 320.324219 100.875 C 324.226562 100.125 328.5 100.050781 332.476562 100.574219 C 336.375 101.101562 340.5 102.375 344.023438 104.101562 C 347.625 105.898438 351.074219 106.800781 353.925781 111.148438 C 360.148438 120.75 372.523438 154.273438 366.375 168.675781 C 360.449219 182.476562 328.949219 194.25 320.101562 197.023438 C 316.949219 198 315.601562 197.324219 313.125 197.324219 C 310.273438 197.25 307.050781 197.175781 304.050781 196.648438 C 301.125 196.050781 298.199219 195.074219 295.5 193.800781 C 292.800781 192.523438 290.175781 190.875 287.851562 189 C 285.523438 187.125 283.351562 184.875 281.550781 182.550781 C 279.75 180.148438 278.175781 177.449219 276.976562 174.75 C 275.773438 171.976562 274.875 168.976562 274.425781 166.050781 C 273.898438 163.125 273.75 159.976562 273.976562 157.050781 C 274.199219 154.050781 274.800781 150.976562 275.773438 148.125 C 276.675781 145.273438 278.023438 142.5 279.601562 139.949219 C 281.175781 137.398438 283.125 135 285.300781 132.898438 C 287.398438 130.875 289.875 129 292.5 127.5 C 295.050781 125.925781 297.898438 124.726562 300.75 123.898438 C 303.675781 123 309.675781 122.398438 309.675781 122.398438 " clip-rule="nonzero"/></clipPath><clipPath id="2d876cbe84"><path d="M 276 124 L 349.710938 124 L 349.710938 199 L 276 199 Z M 276 124 " clip-rule="nonzero"/></clipPath><clipPath id="bd7d6b9488"><path d="M 349.425781 150.375 C 349.425781 174 346.726562 180.074219 343.125 184.648438 C 339.523438 189.226562 334.273438 193.351562 329.023438 195.675781 C 323.699219 198.074219 317.175781 199.273438 311.324219 198.898438 C 305.550781 198.601562 299.175781 196.574219 294.226562 193.574219 C 289.199219 190.574219 284.550781 185.851562 281.476562 180.898438 C 278.476562 175.949219 276.523438 169.574219 276.148438 163.800781 C 275.851562 157.949219 277.050781 151.425781 279.375 146.101562 C 281.773438 140.773438 285.898438 135.601562 290.476562 132 C 295.050781 128.398438 301.125 125.699219 306.824219 124.648438 C 312.601562 123.601562 319.199219 123.976562 324.75 125.699219 C 330.300781 127.425781 340.125 135 340.125 135 " clip-rule="nonzero"/></clipPath><clipPath id="8a2f6cfd0e"><path d="M 291.5 126.019531 L 364.921875 126.019531 L 364.921875 201.324219 L 291.5 201.324219 Z M 291.5 126.019531 " clip-rule="nonzero"/></clipPath><clipPath id="e80c02f8b7"><path d="M 364.875 152.550781 C 364.949219 176.175781 362.175781 182.25 358.574219 186.824219 C 355.050781 191.398438 349.800781 195.523438 344.476562 197.925781 C 339.148438 200.324219 332.625 201.523438 326.851562 201.148438 C 321 200.773438 314.625 198.824219 309.675781 195.824219 C 304.726562 192.824219 300 188.101562 297 183.148438 C 294 178.125 291.976562 171.75 291.675781 165.976562 C 291.300781 160.199219 292.5 153.601562 294.898438 148.351562 C 297.300781 143.023438 301.425781 137.773438 306 134.175781 C 310.574219 130.574219 316.648438 127.875 322.351562 126.824219 C 328.050781 125.773438 334.726562 126.226562 340.273438 127.949219 C 345.824219 129.675781 355.648438 137.175781 355.648438 137.175781 " clip-rule="nonzero"/></clipPath><clipPath id="4b9282a446"><path d="M 293.148438 126.546875 L 366.570312 126.546875 L 366.570312 201.851562 L 293.148438 201.851562 Z M 293.148438 126.546875 " clip-rule="nonzero"/></clipPath><clipPath id="5790bd7251"><path d="M 366.523438 153.148438 C 366.601562 176.773438 363.824219 182.851562 360.300781 187.425781 C 356.699219 192 351.449219 196.050781 346.125 198.449219 C 340.875 200.851562 334.273438 202.050781 328.5 201.675781 C 322.648438 201.375 316.351562 199.351562 311.324219 196.351562 C 306.375 193.351562 301.648438 188.625 298.648438 183.675781 C 295.648438 178.726562 293.699219 172.351562 293.324219 166.5 C 292.949219 160.726562 294.148438 154.199219 296.550781 148.875 C 298.949219 143.550781 303.074219 138.300781 307.648438 134.773438 C 312.226562 131.175781 318.300781 128.398438 324 127.351562 C 329.699219 126.300781 336.375 126.75 341.925781 128.476562 C 347.476562 130.199219 357.300781 137.773438 357.300781 137.773438 " clip-rule="nonzero"/></clipPath><clipPath id="44f9fd2ca0"><path d="M 335.128906 158.109375 L 369.679688 158.109375 L 369.679688 193.621094 L 335.128906 193.621094 Z M 335.128906 158.109375 " clip-rule="nonzero"/></clipPath><clipPath id="d4a6add12b"><path d="M 369.675781 170.625 C 369.75 181.726562 368.398438 184.574219 366.75 186.75 C 365.101562 188.925781 362.625 190.800781 360.074219 191.925781 C 357.601562 193.050781 354.523438 193.648438 351.824219 193.5 C 349.050781 193.351562 346.125 192.375 343.726562 190.949219 C 341.398438 189.523438 339.226562 187.351562 337.800781 185.023438 C 336.375 182.699219 335.476562 179.699219 335.25 176.925781 C 335.101562 174.226562 335.699219 171.148438 336.824219 168.675781 C 337.949219 166.125 339.824219 163.726562 342 162 C 344.175781 160.351562 347.023438 159.074219 349.726562 158.550781 C 352.425781 158.023438 355.5 158.25 358.125 159.074219 C 360.75 159.898438 365.324219 163.425781 365.324219 163.425781 " clip-rule="nonzero"/></clipPath><clipPath id="1d254f7e7f"><path d="M 338.503906 158.109375 L 373.054688 158.109375 L 373.054688 193.621094 L 338.503906 193.621094 Z M 338.503906 158.109375 " clip-rule="nonzero"/></clipPath><clipPath id="73c3e62143"><path d="M 373.050781 170.625 C 373.050781 181.726562 371.773438 184.574219 370.050781 186.75 C 368.398438 188.925781 365.925781 190.800781 363.449219 191.925781 C 360.898438 193.050781 357.824219 193.648438 355.125 193.5 C 352.425781 193.351562 349.425781 192.375 347.101562 190.949219 C 344.773438 189.523438 342.523438 187.351562 341.101562 185.023438 C 339.675781 182.699219 338.773438 179.699219 338.625 176.925781 C 338.398438 174.226562 339 171.148438 340.125 168.675781 C 341.25 166.125 343.199219 163.726562 345.300781 162 C 347.476562 160.351562 350.324219 159.074219 353.023438 158.550781 C 355.726562 158.023438 358.800781 158.25 361.425781 159.074219 C 364.050781 159.898438 368.625 163.425781 368.625 163.425781 " clip-rule="nonzero"/></clipPath><clipPath id="742778bbad"><path d="M 338.503906 151.59375 L 373.054688 151.59375 L 373.054688 186.945312 L 338.503906 186.945312 Z M 338.503906 151.59375 " clip-rule="nonzero"/></clipPath><clipPath id="df49ac7b44"><path d="M 373.050781 164.023438 C 373.050781 175.125 371.773438 177.976562 370.050781 180.148438 C 368.398438 182.25 365.925781 184.199219 363.449219 185.324219 C 360.898438 186.449219 357.824219 186.976562 355.125 186.824219 C 352.425781 186.675781 349.425781 185.773438 347.101562 184.351562 C 344.773438 182.925781 342.523438 180.675781 341.101562 178.351562 C 339.675781 176.023438 338.773438 173.023438 338.625 170.324219 C 338.398438 167.550781 339 164.476562 340.125 162 C 341.25 159.523438 343.199219 157.050781 345.300781 155.398438 C 347.476562 153.675781 350.324219 152.398438 353.023438 151.875 C 355.726562 151.425781 358.800781 151.574219 361.425781 152.398438 C 364.050781 153.226562 368.625 156.824219 368.625 156.824219 " clip-rule="nonzero"/></clipPath><clipPath id="d710c6e8e4"><path d="M 336.253906 136.667969 L 370.804688 136.667969 L 370.804688 172 L 336.253906 172 Z M 336.253906 136.667969 " clip-rule="nonzero"/></clipPath><clipPath id="2518ad4339"><path d="M 370.800781 149.101562 C 370.800781 160.199219 369.523438 163.050781 367.875 165.148438 C 366.148438 167.324219 363.675781 169.273438 361.199219 170.398438 C 358.726562 171.523438 355.648438 172.050781 352.949219 171.898438 C 350.175781 171.75 347.175781 170.773438 344.851562 169.425781 C 342.523438 168 340.273438 165.75 338.925781 163.425781 C 337.5 161.101562 336.523438 158.101562 336.375 155.398438 C 336.226562 152.625 336.824219 149.550781 337.875 147.074219 C 339 144.601562 340.949219 142.125 343.125 140.476562 C 345.300781 138.75 348.148438 137.476562 350.773438 136.949219 C 353.476562 136.5 356.625 136.648438 359.25 137.476562 C 361.800781 138.300781 366.449219 141.824219 366.449219 141.824219 " clip-rule="nonzero"/></clipPath><clipPath id="0b4548ab6a"><path d="M 330.179688 120.09375 L 364.730469 120.09375 L 364.730469 155.445312 L 330.179688 155.445312 Z M 330.179688 120.09375 " clip-rule="nonzero"/></clipPath><clipPath id="9fd3e5ff9d"><path d="M 364.726562 132.449219 C 364.726562 143.550781 363.449219 146.476562 361.800781 148.574219 C 360.074219 150.75 357.601562 152.699219 355.125 153.824219 C 352.648438 154.949219 349.574219 155.476562 346.800781 155.324219 C 344.101562 155.175781 341.101562 154.199219 338.773438 152.773438 C 336.449219 151.425781 334.199219 149.175781 332.851562 146.851562 C 331.425781 144.523438 330.449219 141.523438 330.300781 138.75 C 330.148438 136.050781 330.675781 132.976562 331.800781 130.5 C 332.925781 128.023438 334.875 125.550781 337.050781 123.824219 C 339.148438 122.175781 342.074219 120.898438 344.699219 120.375 C 347.398438 119.925781 350.550781 120.074219 353.175781 120.898438 C 355.726562 121.726562 360.375 125.25 360.375 125.25 " clip-rule="nonzero"/></clipPath><clipPath id="70a129fa17"><path d="M 324.105469 103.359375 L 358.65625 103.359375 L 358.65625 138.871094 L 324.105469 138.871094 Z M 324.105469 103.359375 " clip-rule="nonzero"/></clipPath><clipPath id="e64ca3cce5"><path d="M 358.648438 115.875 C 358.648438 126.976562 357.375 129.824219 355.726562 132 C 354 134.175781 351.523438 136.050781 349.050781 137.175781 C 346.574219 138.300781 343.5 138.898438 340.726562 138.75 C 338.023438 138.523438 335.023438 137.625 332.699219 136.199219 C 330.375 134.773438 328.125 132.601562 326.699219 130.273438 C 325.351562 127.875 324.375 124.949219 324.226562 122.175781 C 324.074219 119.476562 324.601562 116.398438 325.726562 113.925781 C 326.851562 111.375 328.800781 108.898438 330.976562 107.25 C 333.074219 105.601562 335.925781 104.25 338.625 103.800781 C 341.324219 103.273438 344.476562 103.5 347.023438 104.324219 C 349.648438 105.148438 354.300781 108.675781 354.300781 108.675781 " clip-rule="nonzero"/></clipPath><clipPath id="9e1f8aa002"><path d="M 318.027344 85.132812 L 352.582031 85.132812 L 352.582031 120.484375 L 318.027344 120.484375 Z M 318.027344 85.132812 " clip-rule="nonzero"/></clipPath><clipPath id="1343527aae"><path d="M 352.574219 97.648438 C 352.574219 108.75 351.300781 111.601562 349.574219 113.773438 C 347.925781 115.875 345.449219 117.824219 342.976562 118.949219 C 340.5 120.074219 337.425781 120.601562 334.648438 120.449219 C 331.949219 120.300781 328.949219 119.398438 326.625 117.976562 C 324.300781 116.550781 322.050781 114.300781 320.625 111.976562 C 319.199219 109.648438 318.300781 106.648438 318.148438 103.949219 C 318 101.25 318.523438 98.101562 319.648438 95.625 C 320.773438 93.148438 322.726562 90.675781 324.898438 89.023438 C 327 87.300781 329.851562 86.023438 332.550781 85.574219 C 335.25 85.050781 338.398438 85.199219 340.949219 86.023438 C 343.574219 86.851562 348.226562 90.449219 348.226562 90.449219 " clip-rule="nonzero"/></clipPath><clipPath id="1a52b1c9a6"><path d="M 313.605469 78 L 348.15625 78 L 348.15625 113.445312 L 313.605469 113.445312 Z M 313.605469 78 " clip-rule="nonzero"/></clipPath><clipPath id="90e5708c7f"><path d="M 348.148438 90.449219 C 348.148438 101.550781 346.875 104.398438 345.148438 106.574219 C 343.5 108.675781 341.023438 110.625 338.550781 111.75 C 336.074219 112.875 333 113.476562 330.226562 113.25 C 327.523438 113.101562 324.523438 112.199219 322.199219 110.773438 C 319.875 109.351562 317.625 107.175781 316.199219 104.773438 C 314.773438 102.449219 313.875 99.449219 313.726562 96.75 C 313.574219 94.050781 314.101562 90.976562 315.226562 88.425781 C 316.351562 85.949219 318.300781 83.476562 320.476562 81.824219 C 322.574219 80.101562 325.425781 78.824219 328.125 78.375 C 330.824219 77.851562 333.976562 78.074219 336.523438 78.824219 C 339.148438 79.648438 343.800781 83.25 343.800781 83.25 " clip-rule="nonzero"/></clipPath><clipPath id="f3295ab5aa"><path d="M 318.554688 93 L 353.105469 93 L 353.105469 128.371094 L 318.554688 128.371094 Z M 318.554688 93 " clip-rule="nonzero"/></clipPath><clipPath id="7d67a74ddf"><path d="M 353.101562 105.375 C 353.101562 116.476562 351.824219 119.324219 350.175781 121.5 C 348.449219 123.675781 345.976562 125.550781 343.5 126.675781 C 341.023438 127.800781 337.949219 128.398438 335.25 128.175781 C 332.476562 128.023438 329.476562 127.125 327.148438 125.699219 C 324.824219 124.273438 322.574219 122.101562 321.226562 119.699219 C 319.800781 117.375 318.824219 114.375 318.675781 111.675781 C 318.523438 108.976562 319.125 105.898438 320.175781 103.351562 C 321.300781 100.875 323.25 98.398438 325.425781 96.75 C 327.601562 95.023438 330.449219 93.75 333.074219 93.300781 C 335.773438 92.773438 338.925781 93 341.550781 93.824219 C 344.101562 94.574219 348.75 98.175781 348.75 98.175781 " clip-rule="nonzero"/></clipPath></defs><g clip-path="url(#26a33b6d37)"><g clip-path="url(#8cb0cebed3)"><path fill="#66c0e1" d="M 0 0.605469 L 374.394531 0.605469 L 374.394531 375 L 0 375 Z M 0 0.605469 " fill-opacity="1" fill-rule="nonzero"/></g></g><g clip-path="url(#70e00f0f1d)"><g clip-path="url(#60eba29457)"><path fill="#d9d9d9" d="M 65.675781 187.5 L 178.175781 187.5 L 178.175781 300 L 65.675781 300 Z M 65.675781 187.5 " fill-opacity="1" fill-rule="nonzero"/></g></g><g clip-path="url(#83e4b80bd1)"><g clip-path="url(#72522fafb1)"><path fill="#d9d9d9" d="M 32.214844 211.054688 L 125.632812 211.054688 L 125.632812 304.472656 L 32.214844 304.472656 Z M 32.214844 211.054688 " fill-opacity="1" fill-rule="nonzero"/></g></g><g clip-path="url(#2732afc894)"><g clip-path="url(#ed32f533b4)"><g clip-path="url(#8bf30f247c)"><path fill="#d9d9d9" d="M 79.355469 304.464844 L 78.921875 220.535156 L 200.878906 219.90625 L 201.3125 303.832031 Z M 79.355469 304.464844 " fill-opacity="1" fill-rule="nonzero"/></g></g></g><g clip-path="url(#a5b118ab2e)"><g clip-path="url(#c8fbf444df)"><path fill="#d9d9d9" d="M 245.601562 103.523438 L 339.019531 103.523438 L 339.019531 196.941406 L 245.601562 196.941406 Z M 245.601562 103.523438 " fill-opacity="1" fill-rule="nonzero"/></g></g><g clip-path="url(#65c15fb6a8)"><g clip-path="url(#878bdf5de8)"><path fill="#d9d9d9" d="M 83.476562 31.5 L 163.800781 31.5 L 163.800781 111.824219 L 83.476562 111.824219 Z M 83.476562 31.5 " fill-opacity="1" fill-rule="nonzero"/></g></g><g clip-path="url(#16f81d467d)"><g clip-path="url(#aa8f6c9066)"><path fill="#d9d9d9" d="M 89.550781 34.800781 L 169.875 34.800781 L 169.875 115.125 L 89.550781 115.125 Z M 89.550781 34.800781 " fill-opacity="1" fill-rule="nonzero"/><path fill="#d9d9d9" d="M 89.550781 34.800781 L 169.875 34.800781 L 169.875 115.125 L 89.550781 115.125 Z M 89.550781 34.800781 " fill-opacity="1" fill-rule="nonzero"/></g></g><g clip-path="url(#bee0176c28)"><g clip-path="url(#ceff32b443)"><path fill="#d9d9d9" d="M 87.300781 33.675781 L 167.625 33.675781 L 167.625 114 L 87.300781 114 Z M 87.300781 33.675781 " fill-opacity="1" fill-rule="nonzero"/><path fill="#d9d9d9" d="M 87.300781 33.675781 L 167.625 33.675781 L 167.625 114 L 87.300781 114 Z M 87.300781 33.675781 " fill-opacity="1" fill-rule="nonzero"/><path fill="#d9d9d9" d="M 87.300781 33.675781 L 167.625 33.675781 L 167.625 114 L 87.300781 114 Z M 87.300781 33.675781 " fill-opacity="1" fill-rule="nonzero"/></g></g><g clip-path="url(#3f2975722f)"><g clip-path="url(#c402ed2f8c)"><path fill="#d9d9d9" d="M 54.148438 33.148438 L 134.476562 33.148438 L 134.476562 113.476562 L 54.148438 113.476562 Z M 54.148438 33.148438 " fill-opacity="1" fill-rule="nonzero"/></g></g><g clip-path="url(#c74d71ea80)"><g clip-path="url(#02990c3f81)"><path fill="#d9d9d9" d="M 64.648438 34.199219 L 144.976562 34.199219 L 144.976562 114.523438 L 64.648438 114.523438 Z M 64.648438 34.199219 " fill-opacity="1" fill-rule="nonzero"/></g></g><g clip-path="url(#cc71173055)"><g clip-path="url(#94dc379f20)"><path fill="#d9d9d9" d="M 72.375 34.199219 L 152.699219 34.199219 L 152.699219 114.523438 L 72.375 114.523438 Z M 72.375 34.199219 " fill-opacity="1" fill-rule="nonzero"/></g></g><g clip-path="url(#a39f8f54c9)"><g clip-path="url(#b72b2ab73d)"><path fill="#d9d9d9" d="M 80.699219 34.199219 L 161.023438 34.199219 L 161.023438 114.523438 L 80.699219 114.523438 Z M 80.699219 34.199219 " fill-opacity="1" fill-rule="nonzero"/></g></g><g clip-path="url(#da54a11f22)"><g clip-path="url(#deb209992f)"><path fill="#d9d9d9" d="M 29.398438 70.800781 L 99.496094 70.800781 L 99.496094 111.675781 L 29.398438 111.675781 Z M 29.398438 70.800781 " fill-opacity="1" fill-rule="nonzero"/></g></g><g clip-path="url(#b2a4714294)"><g clip-path="url(#e71210c8a8)"><path fill="#d9d9d9" d="M 31.050781 13.875 L 132.433594 13.875 L 132.433594 108.601562 L 31.050781 108.601562 Z M 31.050781 13.875 " fill-opacity="1" fill-rule="nonzero"/></g></g><g clip-path="url(#22a61e96f7)"><g clip-path="url(#17c7807ee8)"><path fill="#d9d9d9" d="M 29.925781 68.925781 L 69.375 68.925781 L 69.375 108.375 L 29.925781 108.375 Z M 29.925781 68.925781 " fill-opacity="1" fill-rule="nonzero"/></g></g><g clip-path="url(#4704b2b8d7)"><g clip-path="url(#5efaf2ba2b)"><path fill="#d9d9d9" d="M 30.449219 26.101562 L 110.023438 26.101562 L 110.023438 106.609375 L 30.449219 106.609375 Z M 30.449219 26.101562 " fill-opacity="1" fill-rule="nonzero"/></g></g><g clip-path="url(#13c54ec543)"><g clip-path="url(#d261dbb83a)"><path fill="#d9d9d9" d="M 19.875 76.125 L 53.414062 76.125 L 53.414062 109.273438 L 19.875 109.273438 Z M 19.875 76.125 " fill-opacity="1" fill-rule="nonzero"/></g></g><g clip-path="url(#dd92f752d5)"><g clip-path="url(#e9486a0589)"><path fill="#d9d9d9" d="M 279.226562 81.226562 L 359.550781 81.226562 L 359.550781 161.550781 L 279.226562 161.550781 Z M 279.226562 81.226562 " fill-opacity="1" fill-rule="nonzero"/></g></g><g clip-path="url(#3f5b594fdb)"><g clip-path="url(#9f9a0ad7e1)"><path fill="#d9d9d9" d="M 270.976562 97.351562 L 369.375 97.351562 L 369.375 200.363281 L 270.976562 200.363281 Z M 270.976562 97.351562 " fill-opacity="1" fill-rule="nonzero"/></g></g><g clip-path="url(#2d876cbe84)"><g clip-path="url(#bd7d6b9488)"><path fill="#d9d9d9" d="M 273.148438 121.648438 L 353.476562 121.648438 L 353.476562 201.976562 L 273.148438 201.976562 Z M 273.148438 121.648438 " fill-opacity="1" fill-rule="nonzero"/></g></g><g clip-path="url(#8a2f6cfd0e)"><g clip-path="url(#e80c02f8b7)"><path fill="#d9d9d9" d="M 288.675781 123.824219 L 369 123.824219 L 369 204.148438 L 288.675781 204.148438 Z M 288.675781 123.824219 " fill-opacity="1" fill-rule="nonzero"/></g></g><g clip-path="url(#4b9282a446)"><g clip-path="url(#5790bd7251)"><path fill="#d9d9d9" d="M 290.324219 124.351562 L 370.648438 124.351562 L 370.648438 204.675781 L 290.324219 204.675781 Z M 290.324219 124.351562 " fill-opacity="1" fill-rule="nonzero"/></g></g><g clip-path="url(#44f9fd2ca0)"><g clip-path="url(#d4a6add12b)"><path fill="#d9d9d9" d="M 332.25 155.550781 L 373.199219 155.550781 L 373.199219 196.5 L 332.25 196.5 Z M 332.25 155.550781 " fill-opacity="1" fill-rule="nonzero"/></g></g><g clip-path="url(#1d254f7e7f)"><g clip-path="url(#73c3e62143)"><path fill="#d9d9d9" d="M 335.625 155.550781 L 376.574219 155.550781 L 376.574219 196.5 L 335.625 196.5 Z M 335.625 155.550781 " fill-opacity="1" fill-rule="nonzero"/></g></g><g clip-path="url(#742778bbad)"><g clip-path="url(#df49ac7b44)"><path fill="#d9d9d9" d="M 335.625 148.875 L 376.574219 148.875 L 376.574219 189.824219 L 335.625 189.824219 Z M 335.625 148.875 " fill-opacity="1" fill-rule="nonzero"/></g></g><g clip-path="url(#d710c6e8e4)"><g clip-path="url(#2518ad4339)"><path fill="#d9d9d9" d="M 333.375 133.949219 L 374.324219 133.949219 L 374.324219 174.898438 L 333.375 174.898438 Z M 333.375 133.949219 " fill-opacity="1" fill-rule="nonzero"/></g></g><g clip-path="url(#0b4548ab6a)"><g clip-path="url(#9fd3e5ff9d)"><path fill="#d9d9d9" d="M 327.300781 117.375 L 368.25 117.375 L 368.25 158.324219 L 327.300781 158.324219 Z M 327.300781 117.375 " fill-opacity="1" fill-rule="nonzero"/></g></g><g clip-path="url(#70a129fa17)"><g clip-path="url(#e64ca3cce5)"><path fill="#d9d9d9" d="M 321.226562 100.800781 L 362.175781 100.800781 L 362.175781 141.75 L 321.226562 141.75 Z M 321.226562 100.800781 " fill-opacity="1" fill-rule="nonzero"/></g></g><g clip-path="url(#9e1f8aa002)"><g clip-path="url(#1343527aae)"><path fill="#d9d9d9" d="M 315.148438 82.574219 L 356.101562 82.574219 L 356.101562 123.523438 L 315.148438 123.523438 Z M 315.148438 82.574219 " fill-opacity="1" fill-rule="nonzero"/></g></g><g clip-path="url(#1a52b1c9a6)"><g clip-path="url(#90e5708c7f)"><path fill="#d9d9d9" d="M 310.726562 75.375 L 351.675781 75.375 L 351.675781 116.324219 L 310.726562 116.324219 Z M 310.726562 75.375 " fill-opacity="1" fill-rule="nonzero"/></g></g><g clip-path="url(#f3295ab5aa)"><g clip-path="url(#7d67a74ddf)"><path fill="#d9d9d9" d="M 315.675781 90.300781 L 356.625 90.300781 L 356.625 131.25 L 315.675781 131.25 Z M 315.675781 90.300781 " fill-opacity="1" fill-rule="nonzero"/></g></g></svg>