<svg xmlns="http://www.w3.org/2000/svg" xmlns:xlink="http://www.w3.org/1999/xlink" width="500" zoomAndPan="magnify" viewBox="0 0 375 374.999991" height="500" preserveAspectRatio="xMidYMid meet" version="1.0"><defs><clipPath id="b75a35ce09"><path d="M 0 0.605469 L 374.394531 0.605469 L 374.394531 375 L 0 375 Z M 0 0.605469 " clip-rule="nonzero"/></clipPath><clipPath id="498c089be1"><path d="M 187.199219 0.605469 C 83.8125 0.605469 0 84.417969 0 187.800781 C 0 291.1875 83.8125 375 187.199219 375 C 290.582031 375 374.394531 291.1875 374.394531 187.800781 C 374.394531 84.417969 290.582031 0.605469 187.199219 0.605469 Z M 187.199219 0.605469 " clip-rule="nonzero"/></clipPath><clipPath id="f906823475"><path d="M 272.507812 122.722656 L 354.925781 122.722656 L 354.925781 189.554688 L 272.507812 189.554688 Z M 272.507812 122.722656 " clip-rule="nonzero"/></clipPath><clipPath id="92762f94a0"><path d="M 204.925781 122.722656 L 354.925781 122.722656 L 354.925781 252.277344 L 204.925781 252.277344 Z M 204.925781 122.722656 " clip-rule="nonzero"/></clipPath><clipPath id="0aca16cb74"><path d="M 19.46875 122.722656 L 101.886719 122.722656 L 101.886719 189.554688 L 19.46875 189.554688 Z M 19.46875 122.722656 " clip-rule="nonzero"/></clipPath><clipPath id="c1378dfeb0"><path d="M 19.46875 122.722656 L 169.46875 122.722656 L 169.46875 252.277344 L 19.46875 252.277344 Z M 19.46875 122.722656 " clip-rule="nonzero"/></clipPath></defs><g clip-path="url(#b75a35ce09)"><g clip-path="url(#498c089be1)"><path fill="#66c0e1" d="M 0 0.605469 L 374.394531 0.605469 L 374.394531 375 L 0 375 Z M 0 0.605469 " fill-opacity="1" fill-rule="nonzero"/></g></g><path fill="#32282b" d="M 216.605469 248.242188 C 216.605469 248.242188 216.773438 248 217.085938 247.550781 C 217.164062 247.4375 217.253906 247.316406 217.347656 247.179688 C 217.457031 247.046875 217.578125 246.90625 217.703125 246.75 C 217.835938 246.597656 217.976562 246.429688 218.125 246.25 C 218.273438 246.066406 218.453125 245.90625 218.632812 245.71875 C 218.820312 245.53125 219.011719 245.339844 219.21875 245.132812 C 219.425781 244.933594 219.664062 244.746094 219.902344 244.539062 C 220.148438 244.339844 220.390625 244.109375 220.671875 243.914062 C 220.953125 243.714844 221.242188 243.511719 221.546875 243.296875 C 221.699219 243.195312 221.847656 243.074219 222.011719 242.980469 C 222.175781 242.886719 222.34375 242.789062 222.511719 242.691406 C 222.855469 242.5 223.203125 242.289062 223.574219 242.09375 C 223.945312 241.914062 224.335938 241.738281 224.734375 241.554688 C 224.9375 241.464844 225.136719 241.367188 225.347656 241.285156 C 225.554688 241.207031 225.769531 241.128906 225.984375 241.050781 C 226.414062 240.894531 226.859375 240.734375 227.316406 240.589844 C 227.777344 240.46875 228.246094 240.347656 228.726562 240.222656 C 228.96875 240.164062 229.207031 240.09375 229.453125 240.039062 C 229.703125 240 229.953125 239.957031 230.203125 239.914062 C 230.707031 239.832031 231.222656 239.746094 231.742188 239.664062 C 233.824219 239.457031 236.050781 239.34375 238.3125 239.550781 C 238.878906 239.59375 239.453125 239.632812 240.027344 239.6875 C 240.59375 239.773438 241.164062 239.859375 241.742188 239.949219 C 242.027344 239.992188 242.316406 240.035156 242.605469 240.082031 C 242.894531 240.128906 243.1875 240.164062 243.472656 240.230469 C 244.042969 240.359375 244.617188 240.492188 245.191406 240.621094 C 245.480469 240.6875 245.769531 240.753906 246.058594 240.820312 C 246.347656 240.886719 246.636719 240.953125 246.917969 241.039062 C 247.488281 241.203125 248.058594 241.367188 248.625 241.539062 C 249.179688 241.707031 249.734375 241.875 250.289062 242.042969 L 251.9375 242.5625 C 252.214844 242.65625 252.464844 242.71875 252.730469 242.796875 L 253.511719 243.019531 C 254.023438 243.175781 254.5625 243.3125 255.097656 243.449219 C 255.628906 243.589844 256.160156 243.722656 256.695312 243.84375 C 257.226562 243.960938 257.753906 244.105469 258.289062 244.199219 C 259.351562 244.421875 260.414062 244.605469 261.460938 244.785156 C 261.988281 244.863281 262.511719 244.9375 263.03125 245.011719 C 263.550781 245.074219 264.070312 245.136719 264.582031 245.199219 C 266.640625 245.410156 268.640625 245.523438 270.542969 245.523438 C 271.019531 245.53125 271.488281 245.515625 271.953125 245.511719 C 272.417969 245.503906 272.871094 245.472656 273.320312 245.460938 C 273.769531 245.445312 274.210938 245.410156 274.644531 245.386719 C 275.078125 245.347656 275.503906 245.3125 275.921875 245.277344 C 277.589844 245.117188 279.117188 244.878906 280.472656 244.621094 C 281.824219 244.363281 282.996094 244.078125 283.964844 243.8125 C 285.894531 243.277344 286.980469 242.832031 286.980469 242.832031 C 286.980469 242.832031 286.925781 242.882812 286.820312 242.976562 C 286.710938 243.066406 286.550781 243.207031 286.335938 243.375 C 285.902344 243.714844 285.246094 244.191406 284.363281 244.726562 C 283.480469 245.265625 282.371094 245.863281 281.046875 246.453125 C 279.726562 247.039062 278.1875 247.613281 276.464844 248.101562 C 276.03125 248.21875 275.589844 248.335938 275.136719 248.449219 C 274.683594 248.550781 274.21875 248.664062 273.746094 248.761719 C 272.796875 248.957031 271.808594 249.113281 270.789062 249.253906 C 268.742188 249.515625 266.5625 249.640625 264.3125 249.589844 C 263.75 249.570312 263.179688 249.5625 262.609375 249.527344 C 262.039062 249.484375 261.464844 249.4375 260.886719 249.394531 C 260.3125 249.328125 259.734375 249.265625 259.148438 249.203125 C 258.570312 249.125 257.992188 249.023438 257.40625 248.933594 C 256.820312 248.851562 256.246094 248.722656 255.660156 248.613281 C 255.367188 248.554688 255.074219 248.503906 254.785156 248.4375 L 253.914062 248.230469 C 253.335938 248.09375 252.753906 247.964844 252.167969 247.789062 L 251.289062 247.542969 C 251 247.457031 250.691406 247.378906 250.425781 247.289062 C 249.332031 246.9375 248.242188 246.585938 247.15625 246.238281 C 246.628906 246.074219 246.105469 245.902344 245.585938 245.726562 C 245.324219 245.632812 245.0625 245.5625 244.796875 245.496094 C 244.535156 245.421875 244.273438 245.351562 244.011719 245.28125 C 243.488281 245.140625 242.964844 244.996094 242.445312 244.855469 C 242.1875 244.773438 241.925781 244.730469 241.667969 244.671875 C 241.40625 244.613281 241.148438 244.558594 240.890625 244.5 C 240.371094 244.386719 239.859375 244.273438 239.347656 244.160156 C 238.835938 244.082031 238.328125 243.992188 237.820312 243.910156 C 237.570312 243.867188 237.316406 243.824219 237.066406 243.785156 C 236.941406 243.765625 236.816406 243.738281 236.691406 243.722656 L 236.316406 243.6875 C 235.820312 243.644531 235.328125 243.585938 234.839844 243.53125 C 234.59375 243.511719 234.347656 243.464844 234.109375 243.464844 C 233.867188 243.453125 233.628906 243.445312 233.390625 243.4375 C 232.914062 243.421875 232.4375 243.398438 231.972656 243.378906 C 231.507812 243.390625 231.046875 243.402344 230.597656 243.414062 C 230.371094 243.417969 230.144531 243.421875 229.921875 243.429688 C 229.703125 243.449219 229.480469 243.46875 229.265625 243.488281 C 228.828125 243.527344 228.398438 243.566406 227.976562 243.605469 C 227.558594 243.675781 227.148438 243.746094 226.75 243.808594 C 226.546875 243.84375 226.347656 243.875 226.148438 243.90625 C 225.953125 243.945312 225.765625 244 225.574219 244.042969 C 225.195312 244.136719 224.824219 244.230469 224.457031 244.3125 C 224.097656 244.417969 223.753906 244.535156 223.414062 244.640625 C 223.242188 244.699219 223.074219 244.75 222.910156 244.804688 C 222.742188 244.855469 222.589844 244.929688 222.429688 244.988281 C 222.117188 245.113281 221.8125 245.234375 221.519531 245.351562 C 221.371094 245.40625 221.234375 245.480469 221.097656 245.546875 C 220.957031 245.613281 220.820312 245.675781 220.691406 245.742188 C 220.425781 245.871094 220.160156 245.984375 219.925781 246.117188 C 219.6875 246.25 219.460938 246.378906 219.246094 246.5 C 218.804688 246.734375 218.445312 246.980469 218.113281 247.191406 C 217.949219 247.296875 217.796875 247.394531 217.660156 247.484375 C 217.523438 247.582031 217.398438 247.671875 217.289062 247.753906 C 216.84375 248.070312 216.605469 248.242188 216.605469 248.242188 " fill-opacity="1" fill-rule="nonzero"/><path fill="#32282b" d="M 287.035156 242.796875 C 286.308594 242.84375 285.582031 242.867188 284.855469 242.898438 C 284.125 242.921875 283.402344 242.972656 282.671875 242.949219 C 281.9375 242.941406 281.207031 242.914062 280.472656 242.898438 C 280.105469 242.886719 279.734375 242.882812 279.367188 242.859375 L 278.273438 242.777344 C 277.539062 242.722656 276.808594 242.660156 276.078125 242.597656 C 275.347656 242.507812 274.617188 242.417969 273.890625 242.316406 L 272.792969 242.167969 L 271.707031 241.980469 C 270.980469 241.851562 270.253906 241.722656 269.527344 241.574219 L 267.363281 241.085938 C 267.003906 241.007812 266.644531 240.914062 266.289062 240.8125 L 265.21875 240.523438 C 264.859375 240.421875 264.5 240.332031 264.144531 240.226562 L 263.082031 239.890625 L 262.019531 239.550781 L 260.96875 239.175781 L 259.914062 238.800781 C 259.5625 238.671875 259.21875 238.523438 258.871094 238.386719 C 258.527344 238.246094 258.175781 238.113281 257.832031 237.960938 L 256.800781 237.507812 C 256.457031 237.363281 256.117188 237.195312 255.773438 237.035156 C 255.433594 236.875 255.089844 236.714844 254.753906 236.535156 C 254.414062 236.359375 254.078125 236.1875 253.738281 235.992188 C 253.566406 235.898438 253.402344 235.8125 253.226562 235.707031 C 253.046875 235.601562 252.894531 235.515625 252.679688 235.378906 L 241.394531 228.210938 L 254.578125 231.21875 C 255.796875 231.496094 257.011719 231.769531 258.226562 232.066406 L 261.886719 232.800781 C 263.113281 233.007812 264.332031 233.242188 265.5625 233.429688 L 267.402344 233.683594 L 268.324219 233.816406 C 268.632812 233.859375 268.9375 233.886719 269.246094 233.921875 L 271.09375 234.125 L 271.554688 234.175781 L 272.015625 234.207031 L 272.941406 234.273438 C 273.558594 234.320312 274.175781 234.382812 274.789062 234.414062 L 276.640625 234.492188 C 276.949219 234.5 277.257812 234.523438 277.566406 234.523438 C 277.875 234.523438 278.183594 234.523438 278.492188 234.53125 C 279.105469 234.535156 279.726562 234.554688 280.339844 234.546875 C 281.570312 234.511719 282.804688 234.492188 284.035156 234.40625 C 285.265625 234.359375 286.488281 234.210938 287.71875 234.097656 L 289.554688 233.867188 C 290.164062 233.789062 290.769531 233.667969 291.378906 233.574219 C 291.992188 233.488281 292.59375 233.355469 293.199219 233.238281 C 293.5 233.179688 293.804688 233.125 294.105469 233.054688 L 295.007812 232.84375 L 295.914062 232.636719 L 296.808594 232.394531 L 297.707031 232.152344 L 298.59375 231.882812 L 299.488281 231.617188 L 300.367188 231.316406 C 300.960938 231.125 301.539062 230.898438 302.125 230.683594 C 303.289062 230.242188 304.441406 229.75 305.574219 229.21875 C 306.714844 228.691406 307.824219 228.097656 308.921875 227.46875 C 309.195312 227.3125 309.464844 227.144531 309.734375 226.980469 C 310.007812 226.820312 310.273438 226.644531 310.542969 226.472656 C 311.070312 226.121094 311.597656 225.757812 312.101562 225.359375 C 311.726562 225.886719 311.296875 226.371094 310.859375 226.847656 C 310.414062 227.320312 309.957031 227.785156 309.476562 228.21875 C 309 228.664062 308.503906 229.082031 307.996094 229.496094 L 307.230469 230.105469 C 306.972656 230.300781 306.707031 230.488281 306.441406 230.683594 C 306.179688 230.878906 305.910156 231.0625 305.636719 231.246094 C 305.367188 231.425781 305.097656 231.617188 304.820312 231.792969 L 303.988281 232.308594 L 303.566406 232.566406 L 303.140625 232.808594 L 302.28125 233.292969 C 301.996094 233.457031 301.699219 233.597656 301.410156 233.75 L 300.53125 234.195312 L 299.636719 234.613281 L 298.738281 235.019531 L 297.824219 235.394531 L 296.910156 235.765625 L 295.980469 236.105469 L 295.046875 236.433594 C 294.734375 236.539062 294.417969 236.632812 294.105469 236.734375 C 293.472656 236.925781 292.847656 237.136719 292.207031 237.296875 C 291.570312 237.457031 290.933594 237.636719 290.289062 237.777344 L 288.355469 238.199219 C 287.707031 238.324219 287.054688 238.421875 286.402344 238.53125 C 285.753906 238.652344 285.097656 238.722656 284.445312 238.808594 C 283.136719 239 281.820312 239.070312 280.507812 239.175781 C 279.847656 239.21875 279.191406 239.226562 278.53125 239.257812 C 277.875 239.285156 277.214844 239.296875 276.558594 239.28125 L 274.585938 239.257812 C 273.925781 239.246094 273.269531 239.195312 272.613281 239.167969 L 271.628906 239.109375 L 271.140625 239.078125 L 270.648438 239.03125 L 268.691406 238.835938 C 267.382812 238.726562 266.09375 238.496094 264.796875 238.316406 C 264.472656 238.269531 264.148438 238.210938 263.828125 238.148438 L 262.863281 237.972656 L 260.9375 237.613281 L 257.121094 236.730469 C 255.863281 236.394531 254.609375 236.039062 253.355469 235.6875 L 255.253906 231.527344 C 255.339844 231.589844 255.496094 231.6875 255.625 231.773438 C 255.757812 231.859375 255.90625 231.949219 256.046875 232.039062 C 256.328125 232.214844 256.628906 232.386719 256.921875 232.558594 C 257.214844 232.730469 257.519531 232.898438 257.820312 233.066406 C 258.121094 233.234375 258.417969 233.40625 258.726562 233.566406 L 259.652344 234.046875 C 259.960938 234.210938 260.277344 234.355469 260.59375 234.507812 L 261.535156 234.96875 L 263.449219 235.84375 L 264.421875 236.25 L 265.394531 236.660156 C 265.71875 236.796875 266.050781 236.917969 266.378906 237.050781 L 267.363281 237.433594 C 267.691406 237.5625 268.023438 237.691406 268.359375 237.800781 L 270.359375 238.519531 C 271.03125 238.746094 271.710938 238.945312 272.386719 239.171875 L 273.402344 239.503906 L 274.429688 239.796875 L 276.488281 240.394531 C 277.179688 240.570312 277.875 240.738281 278.570312 240.925781 L 279.613281 241.195312 C 279.960938 241.28125 280.308594 241.351562 280.65625 241.433594 C 281.355469 241.59375 282.058594 241.746094 282.761719 241.914062 L 283.292969 242.039062 L 283.828125 242.136719 L 284.894531 242.351562 C 285.609375 242.496094 286.324219 242.636719 287.035156 242.796875 " fill-opacity="1" fill-rule="nonzero"/><path fill="#32282b" d="M 312.101562 225.359375 C 311.28125 225.519531 310.457031 225.65625 309.632812 225.800781 C 309.21875 225.871094 308.808594 225.945312 308.394531 226.007812 L 307.777344 226.105469 L 307.152344 226.183594 L 304.648438 226.472656 C 304.230469 226.511719 303.808594 226.570312 303.390625 226.597656 L 302.132812 226.683594 L 299.613281 226.839844 C 298.773438 226.867188 297.933594 226.878906 297.089844 226.898438 C 296.667969 226.902344 296.246094 226.917969 295.824219 226.917969 L 294.5625 226.894531 C 293.71875 226.875 292.875 226.871094 292.03125 226.832031 L 289.5 226.683594 C 289.078125 226.664062 288.65625 226.617188 288.234375 226.582031 L 286.972656 226.464844 C 286.128906 226.390625 285.289062 226.277344 284.445312 226.171875 L 283.183594 226.011719 L 280.667969 225.605469 L 279.414062 225.367188 C 278.578125 225.214844 277.742188 225.035156 276.910156 224.84375 C 276.492188 224.753906 276.078125 224.644531 275.660156 224.542969 C 275.242188 224.441406 274.828125 224.339844 274.410156 224.222656 C 273.996094 224.109375 273.578125 223.996094 273.160156 223.871094 C 272.949219 223.808594 272.742188 223.75 272.527344 223.679688 C 272.308594 223.613281 272.113281 223.550781 271.859375 223.460938 L 255.0625 217.519531 L 272.941406 218.859375 L 276.742188 219.144531 L 280.542969 219.34375 C 281.804688 219.390625 283.070312 219.398438 284.335938 219.4375 C 285.601562 219.445312 286.863281 219.441406 288.128906 219.433594 L 290.019531 219.367188 C 290.648438 219.347656 291.28125 219.34375 291.90625 219.296875 C 293.164062 219.214844 294.425781 219.164062 295.675781 219.027344 C 296.300781 218.972656 296.929688 218.921875 297.554688 218.859375 L 299.421875 218.628906 C 299.734375 218.589844 300.050781 218.554688 300.359375 218.507812 L 301.289062 218.367188 C 301.90625 218.269531 302.53125 218.1875 303.148438 218.074219 C 304.378906 217.839844 305.617188 217.617188 306.835938 217.332031 L 307.757812 217.132812 L 308.667969 216.894531 L 309.574219 216.660156 L 310.03125 216.542969 L 310.484375 216.410156 C 311.082031 216.234375 311.6875 216.0625 312.285156 215.875 C 312.878906 215.675781 313.472656 215.476562 314.074219 215.28125 L 315.839844 214.628906 L 317.585938 213.917969 L 319.304688 213.140625 C 319.863281 212.851562 320.441406 212.59375 320.996094 212.292969 C 321.550781 211.996094 322.113281 211.703125 322.65625 211.375 C 322.925781 211.21875 323.207031 211.066406 323.472656 210.898438 L 324.28125 210.390625 C 325.347656 209.707031 326.386719 208.96875 327.386719 208.171875 C 328.382812 207.371094 329.355469 206.519531 330.214844 205.542969 C 329.929688 206.128906 329.578125 206.6875 329.207031 207.226562 C 328.835938 207.773438 328.4375 208.296875 328.015625 208.808594 C 327.179688 209.828125 326.253906 210.777344 325.285156 211.6875 C 324.308594 212.582031 323.277344 213.429688 322.203125 214.214844 C 321.941406 214.421875 321.664062 214.605469 321.390625 214.796875 L 320.566406 215.363281 C 320.003906 215.722656 319.441406 216.074219 318.871094 216.429688 C 318.292969 216.761719 317.714844 217.09375 317.128906 217.414062 L 315.34375 218.324219 C 314.738281 218.605469 314.132812 218.882812 313.523438 219.15625 C 312.910156 219.421875 312.289062 219.664062 311.667969 219.917969 C 311.054688 220.179688 310.417969 220.382812 309.792969 220.609375 L 308.84375 220.9375 L 307.890625 221.234375 L 306.933594 221.53125 C 306.613281 221.632812 306.296875 221.726562 305.972656 221.808594 L 304.035156 222.308594 C 303.386719 222.46875 302.734375 222.597656 302.085938 222.742188 L 301.109375 222.957031 C 300.78125 223.019531 300.453125 223.070312 300.125 223.128906 L 298.15625 223.464844 C 297.5 223.5625 296.839844 223.644531 296.183594 223.734375 C 294.863281 223.925781 293.542969 224.011719 292.21875 224.136719 C 290.898438 224.253906 289.574219 224.289062 288.25 224.355469 C 286.925781 224.375 285.605469 224.394531 284.28125 224.398438 C 282.960938 224.359375 281.640625 224.328125 280.320312 224.269531 C 279.007812 224.183594 277.6875 224.117188 276.375 224 L 272.445312 223.597656 L 273.527344 219 L 274.039062 219.183594 C 274.214844 219.253906 274.410156 219.3125 274.59375 219.378906 C 274.960938 219.511719 275.34375 219.628906 275.722656 219.753906 C 276.101562 219.878906 276.488281 219.992188 276.875 220.105469 C 277.257812 220.21875 277.640625 220.34375 278.03125 220.441406 C 278.8125 220.652344 279.585938 220.882812 280.375 221.074219 L 281.554688 221.378906 L 282.742188 221.652344 L 283.929688 221.929688 L 285.125 222.183594 C 285.921875 222.351562 286.71875 222.527344 287.523438 222.664062 C 288.328125 222.804688 289.125 222.980469 289.933594 223.109375 L 292.355469 223.503906 C 293.164062 223.636719 293.976562 223.734375 294.789062 223.851562 L 296.011719 224.023438 C 296.417969 224.078125 296.828125 224.121094 297.234375 224.171875 C 298.050781 224.265625 298.871094 224.351562 299.6875 224.457031 L 302.152344 224.683594 L 303.386719 224.804688 C 303.800781 224.851562 304.210938 224.863281 304.621094 224.894531 L 307.097656 225.070312 L 307.71875 225.121094 L 308.34375 225.148438 C 308.761719 225.164062 309.179688 225.191406 309.597656 225.210938 C 310.433594 225.257812 311.265625 225.296875 312.101562 225.359375 " fill-opacity="1" fill-rule="nonzero"/><path fill="#32282b" d="M 330.214844 205.542969 C 329.746094 205.773438 329.277344 206.007812 328.804688 206.234375 C 328.332031 206.457031 327.839844 206.640625 327.351562 206.847656 C 326.863281 207.0625 326.363281 207.226562 325.867188 207.398438 L 325.117188 207.660156 C 324.863281 207.742188 324.609375 207.8125 324.359375 207.886719 L 323.597656 208.109375 C 323.34375 208.183594 323.085938 208.257812 322.828125 208.316406 L 321.289062 208.695312 C 320.253906 208.90625 319.214844 209.132812 318.167969 209.292969 C 317.121094 209.476562 316.074219 209.597656 315.019531 209.738281 C 313.96875 209.851562 312.914062 209.953125 311.859375 210.023438 C 310.800781 210.113281 309.746094 210.15625 308.6875 210.199219 C 307.628906 210.226562 306.570312 210.257812 305.515625 210.257812 C 304.984375 210.265625 304.457031 210.253906 303.929688 210.246094 C 303.402344 210.234375 302.871094 210.234375 302.34375 210.214844 L 300.757812 210.164062 L 299.175781 210.085938 C 298.121094 210.023438 297.066406 209.957031 296.015625 209.867188 C 294.960938 209.789062 293.910156 209.691406 292.859375 209.578125 C 291.8125 209.46875 290.761719 209.34375 289.714844 209.214844 C 288.667969 209.082031 287.621094 208.941406 286.578125 208.777344 C 285.53125 208.617188 284.488281 208.445312 283.445312 208.265625 L 281.878906 207.980469 C 281.351562 207.882812 280.84375 207.785156 280.292969 207.664062 L 258.984375 203.027344 L 280.894531 202.953125 L 283.25 202.945312 L 284.425781 202.941406 C 284.816406 202.941406 285.210938 202.945312 285.601562 202.921875 C 286.382812 202.890625 287.167969 202.859375 287.949219 202.835938 L 289.125 202.796875 C 289.515625 202.777344 289.90625 202.746094 290.292969 202.71875 L 292.632812 202.550781 C 292.828125 202.539062 293.023438 202.527344 293.21875 202.507812 L 293.800781 202.441406 L 296.128906 202.199219 C 296.519531 202.160156 296.910156 202.125 297.292969 202.0625 L 299.609375 201.730469 C 300.382812 201.636719 301.144531 201.476562 301.914062 201.34375 L 303.0625 201.140625 C 303.445312 201.070312 303.832031 201.011719 304.210938 200.921875 L 306.488281 200.421875 L 307.058594 200.296875 L 307.621094 200.148438 L 308.75 199.855469 C 309.503906 199.664062 310.261719 199.480469 311 199.246094 C 311.742188 199.019531 312.492188 198.804688 313.230469 198.570312 C 313.964844 198.3125 314.699219 198.066406 315.433594 197.816406 C 315.804688 197.699219 316.167969 197.558594 316.527344 197.417969 L 317.617188 197 C 317.976562 196.855469 318.347656 196.730469 318.703125 196.574219 L 319.769531 196.113281 L 320.84375 195.65625 C 321.203125 195.503906 321.546875 195.328125 321.902344 195.164062 C 323.316406 194.519531 324.691406 193.792969 326.0625 193.050781 L 327.078125 192.476562 C 327.414062 192.28125 327.761719 192.101562 328.085938 191.886719 L 329.082031 191.273438 C 329.410156 191.066406 329.753906 190.871094 330.074219 190.652344 L 331.046875 190.003906 C 331.375 189.789062 331.703125 189.574219 332.015625 189.339844 L 332.964844 188.65625 L 333.445312 188.316406 L 333.910156 187.957031 C 334.53125 187.484375 335.160156 187.011719 335.757812 186.503906 L 336.667969 185.753906 L 337.558594 184.980469 L 338 184.59375 L 339.300781 183.386719 L 340.148438 182.558594 L 340.570312 182.144531 L 340.980469 181.714844 C 342.085938 180.585938 343.136719 179.398438 344.148438 178.164062 C 344.648438 177.546875 345.144531 176.921875 345.621094 176.28125 C 346.09375 175.632812 346.558594 174.980469 346.996094 174.304688 C 346.710938 175.058594 346.371094 175.792969 346.019531 176.519531 C 345.660156 177.246094 345.289062 177.96875 344.882812 178.667969 C 344.078125 180.082031 343.191406 181.445312 342.230469 182.761719 L 341.871094 183.257812 L 340.746094 184.710938 L 339.960938 185.652344 L 339.566406 186.125 L 338.335938 187.496094 C 338.058594 187.796875 337.769531 188.085938 337.484375 188.378906 C 336.917969 188.976562 336.320312 189.539062 335.726562 190.105469 C 334.535156 191.238281 333.273438 192.292969 331.988281 193.320312 C 331.347656 193.839844 330.671875 194.3125 330.011719 194.804688 C 329.683594 195.058594 329.335938 195.28125 328.996094 195.511719 L 327.972656 196.207031 C 326.59375 197.113281 325.179688 197.96875 323.730469 198.757812 C 323.367188 198.953125 323.011719 199.167969 322.644531 199.351562 L 321.539062 199.910156 L 320.425781 200.460938 C 320.054688 200.644531 319.675781 200.800781 319.296875 200.972656 L 318.167969 201.476562 C 317.789062 201.644531 317.414062 201.816406 317.027344 201.960938 C 316.257812 202.265625 315.492188 202.570312 314.71875 202.867188 C 313.941406 203.144531 313.160156 203.402344 312.378906 203.671875 C 311.601562 203.949219 310.808594 204.175781 310.015625 204.410156 L 308.828125 204.757812 L 308.230469 204.925781 L 307.632812 205.074219 L 305.226562 205.65625 C 304.828125 205.761719 304.421875 205.832031 304.019531 205.914062 L 302.808594 206.160156 C 302 206.320312 301.191406 206.484375 300.378906 206.59375 L 297.9375 206.960938 C 297.53125 207.03125 297.125 207.070312 296.714844 207.113281 L 295.488281 207.25 L 294.265625 207.382812 L 293.652344 207.445312 C 293.449219 207.464844 293.242188 207.472656 293.039062 207.488281 L 290.582031 207.644531 C 290.171875 207.667969 289.765625 207.699219 289.355469 207.71875 L 288.128906 207.75 C 287.308594 207.773438 286.488281 207.789062 285.671875 207.800781 C 285.261719 207.816406 284.855469 207.804688 284.445312 207.796875 L 283.21875 207.773438 L 280.765625 207.722656 L 281.367188 203.015625 L 282.835938 203.351562 L 284.332031 203.679688 C 285.335938 203.890625 286.339844 204.097656 287.347656 204.289062 L 290.378906 204.851562 C 291.390625 205.03125 292.402344 205.203125 293.417969 205.363281 C 294.433594 205.519531 295.449219 205.683594 296.46875 205.832031 C 297.484375 205.984375 298.503906 206.113281 299.523438 206.242188 L 301.054688 206.433594 L 302.585938 206.605469 C 303.097656 206.667969 303.609375 206.707031 304.117188 206.757812 C 304.628906 206.8125 305.140625 206.855469 305.652344 206.898438 C 306.675781 206.996094 307.699219 207.0625 308.726562 207.132812 L 310.265625 207.214844 C 310.777344 207.246094 311.292969 207.265625 311.804688 207.28125 C 312.316406 207.292969 312.832031 207.324219 313.34375 207.324219 L 314.886719 207.34375 C 315.910156 207.335938 316.941406 207.339844 317.96875 207.289062 C 318.996094 207.269531 320.019531 207.191406 321.046875 207.125 L 322.585938 206.980469 C 323.101562 206.941406 323.605469 206.851562 324.121094 206.792969 C 324.375 206.757812 324.632812 206.730469 324.886719 206.691406 L 325.652344 206.558594 C 326.160156 206.46875 326.675781 206.398438 327.175781 206.28125 C 327.679688 206.167969 328.191406 206.078125 328.695312 205.941406 C 329.203125 205.804688 329.710938 205.675781 330.214844 205.542969 " fill-opacity="1" fill-rule="nonzero"/><g clip-path="url(#f906823475)"><path fill="#32282b" d="M 347.390625 173.488281 C 346.292969 174.191406 345.199219 174.886719 344.085938 175.558594 L 342.398438 176.546875 L 341.550781 177.035156 L 340.691406 177.5 L 338.964844 178.425781 C 338.390625 178.734375 337.800781 179.011719 337.214844 179.308594 C 336.628906 179.59375 336.046875 179.890625 335.453125 180.164062 L 333.667969 180.980469 C 333.371094 181.117188 333.074219 181.257812 332.773438 181.386719 L 330.054688 182.523438 L 328.222656 183.234375 L 327.300781 183.585938 L 326.375 183.914062 L 324.515625 184.5625 L 322.636719 185.167969 C 322.011719 185.371094 321.378906 185.550781 320.75 185.734375 C 320.117188 185.914062 319.488281 186.109375 318.847656 186.273438 L 316.9375 186.773438 L 315.011719 187.222656 C 314.371094 187.378906 313.722656 187.503906 313.078125 187.636719 L 312.109375 187.839844 L 311.136719 188.019531 C 309.835938 188.269531 308.53125 188.464844 307.222656 188.65625 L 305.253906 188.914062 L 303.277344 189.128906 L 301.296875 189.296875 C 300.636719 189.335938 299.972656 189.386719 299.308594 189.417969 C 297.984375 189.476562 296.652344 189.527344 295.320312 189.523438 C 293.988281 189.523438 292.652344 189.492188 291.308594 189.414062 C 290.640625 189.375 289.964844 189.328125 289.289062 189.265625 C 288.949219 189.230469 288.613281 189.203125 288.269531 189.160156 L 287.75 189.097656 L 287.484375 189.0625 L 287.191406 189.015625 L 272.519531 186.789062 L 287.277344 184.359375 L 290.351562 183.851562 L 293.410156 183.273438 L 296.449219 182.617188 C 297.449219 182.367188 298.464844 182.148438 299.464844 181.890625 C 301.464844 181.371094 303.453125 180.816406 305.414062 180.175781 L 306.882812 179.703125 L 308.339844 179.191406 C 309.316406 178.863281 310.273438 178.484375 311.234375 178.117188 C 311.71875 177.941406 312.1875 177.734375 312.660156 177.539062 C 313.132812 177.339844 313.613281 177.148438 314.082031 176.941406 C 315.011719 176.507812 315.964844 176.121094 316.878906 175.660156 L 318.265625 174.992188 L 319.628906 174.28125 C 320.085938 174.050781 320.53125 173.800781 320.976562 173.550781 C 321.421875 173.296875 321.875 173.058594 322.3125 172.796875 C 324.082031 171.769531 325.808594 170.667969 327.488281 169.5 C 329.152344 168.316406 330.773438 167.070312 332.339844 165.753906 C 333.902344 164.4375 335.382812 163.023438 336.820312 161.566406 C 338.25 160.101562 339.601562 158.558594 340.886719 156.960938 C 342.167969 155.359375 343.367188 153.683594 344.488281 151.957031 C 345.617188 150.234375 346.648438 148.445312 347.609375 146.609375 C 348.570312 144.777344 349.433594 142.890625 350.222656 140.964844 C 350.617188 140.003906 350.988281 139.03125 351.332031 138.046875 C 351.6875 137.066406 352.015625 136.074219 352.320312 135.074219 C 352.929688 133.074219 353.453125 131.039062 353.878906 128.980469 C 354.304688 126.921875 354.652344 124.835938 354.820312 122.722656 C 354.917969 123.78125 354.933594 124.84375 354.921875 125.910156 C 354.90625 126.976562 354.867188 128.042969 354.78125 129.105469 C 354.621094 131.238281 354.332031 133.359375 353.933594 135.46875 C 353.535156 137.578125 353.015625 139.667969 352.394531 141.730469 C 351.78125 143.800781 351.035156 145.828125 350.195312 147.824219 C 349.359375 149.820312 348.398438 151.769531 347.351562 153.675781 C 346.296875 155.574219 345.132812 157.417969 343.878906 159.207031 C 342.625 160.988281 341.257812 162.695312 339.816406 164.335938 C 338.375 165.976562 336.839844 167.542969 335.226562 169.019531 C 333.613281 170.496094 331.929688 171.898438 330.179688 173.210938 C 328.417969 174.507812 326.617188 175.746094 324.75 176.886719 C 324.285156 177.171875 323.808594 177.4375 323.339844 177.714844 C 322.867188 177.992188 322.394531 178.265625 321.914062 178.519531 L 320.472656 179.300781 L 319.015625 180.039062 C 318.046875 180.539062 317.050781 180.980469 316.0625 181.4375 C 315.566406 181.660156 315.058594 181.863281 314.558594 182.078125 C 314.058594 182.289062 313.5625 182.511719 313.050781 182.703125 C 312.039062 183.09375 311.03125 183.503906 310.003906 183.855469 L 308.46875 184.402344 L 306.917969 184.898438 C 304.851562 185.5625 302.761719 186.128906 300.664062 186.664062 C 300.140625 186.804688 299.613281 186.910156 299.085938 187.039062 L 297.503906 187.398438 L 294.328125 188.027344 L 291.136719 188.574219 L 287.941406 189.03125 L 288.027344 184.371094 L 288.429688 184.441406 L 288.871094 184.507812 C 289.167969 184.554688 289.480469 184.589844 289.78125 184.628906 C 290.394531 184.703125 291.015625 184.765625 291.636719 184.816406 C 292.878906 184.925781 294.132812 184.988281 295.390625 185.03125 C 296.648438 185.085938 297.914062 185.089844 299.175781 185.082031 C 299.808594 185.078125 300.441406 185.054688 301.074219 185.039062 L 302.96875 184.960938 L 304.867188 184.847656 L 306.765625 184.699219 C 308.03125 184.582031 309.296875 184.449219 310.558594 184.289062 L 311.503906 184.171875 L 312.449219 184.035156 C 313.078125 183.945312 313.710938 183.863281 314.339844 183.75 L 316.222656 183.433594 L 318.105469 183.078125 C 318.734375 182.96875 319.355469 182.824219 319.980469 182.695312 C 320.605469 182.5625 321.234375 182.433594 321.855469 182.28125 L 323.722656 181.839844 L 325.582031 181.359375 L 326.511719 181.117188 L 327.4375 180.851562 L 329.289062 180.324219 L 331.125 179.753906 L 332.046875 179.464844 L 332.960938 179.160156 L 334.792969 178.546875 C 335.402344 178.339844 336 178.105469 336.609375 177.890625 C 337.210938 177.667969 337.828125 177.460938 338.425781 177.222656 L 341.132812 176.167969 L 342.027344 175.792969 L 343.820312 175.050781 C 345.015625 174.546875 346.191406 173.996094 347.390625 173.488281 " fill-opacity="1" fill-rule="nonzero"/></g><g clip-path="url(#92762f94a0)"><path fill="#32282b" d="M 354.820312 122.722656 C 354.820312 122.722656 354.730469 122.925781 354.558594 123.320312 C 354.386719 123.714844 354.136719 124.304688 353.789062 125.058594 C 353.609375 125.433594 353.402344 125.855469 353.175781 126.316406 C 352.949219 126.777344 352.703125 127.289062 352.410156 127.816406 C 352.121094 128.351562 351.824219 128.9375 351.476562 129.539062 C 351.121094 130.140625 350.742188 130.78125 350.339844 131.453125 C 348.691406 134.125 346.449219 137.246094 343.492188 140.53125 C 342 142.160156 340.320312 143.8125 338.460938 145.46875 C 337.992188 145.875 337.511719 146.285156 337.03125 146.703125 C 336.53125 147.101562 336.027344 147.507812 335.519531 147.914062 C 334.484375 148.714844 333.414062 149.519531 332.289062 150.300781 C 330.046875 151.867188 327.609375 153.351562 325.019531 154.765625 C 322.425781 156.175781 319.664062 157.472656 316.777344 158.679688 C 310.996094 161.085938 304.679688 163.023438 298.082031 164.558594 C 294.78125 165.332031 291.40625 165.988281 287.988281 166.574219 C 286.277344 166.867188 284.558594 167.148438 282.828125 167.40625 C 281.097656 167.667969 279.363281 167.894531 277.617188 168.128906 C 274.132812 168.574219 270.628906 169.011719 267.125 169.398438 C 263.625 169.796875 260.132812 170.199219 256.695312 170.6875 C 253.265625 171.164062 249.871094 171.714844 246.722656 172.550781 C 246.324219 172.652344 245.941406 172.765625 245.558594 172.878906 L 245.269531 172.964844 C 245.273438 172.964844 245.160156 173 245.257812 172.964844 L 245.179688 172.992188 L 245.023438 173.042969 L 244.398438 173.253906 L 243.144531 173.664062 C 242.9375 173.734375 242.71875 173.800781 242.523438 173.871094 L 241.953125 174.082031 L 240.808594 174.5 L 240.234375 174.710938 L 239.660156 174.945312 L 238.511719 175.417969 L 237.9375 175.652344 L 237.375 175.910156 C 235.871094 176.582031 234.402344 177.304688 232.984375 178.09375 C 232.632812 178.289062 232.277344 178.484375 231.921875 178.679688 C 231.566406 178.871094 231.234375 179.09375 230.886719 179.300781 C 230.542969 179.511719 230.199219 179.71875 229.859375 179.929688 C 229.527344 180.152344 229.195312 180.375 228.863281 180.59375 C 226.222656 182.382812 223.796875 184.394531 221.667969 186.613281 C 219.539062 188.832031 217.679688 191.242188 216.136719 193.789062 C 214.589844 196.332031 213.332031 198.992188 212.359375 201.699219 C 211.382812 204.398438 210.65625 207.132812 210.160156 209.832031 C 209.648438 212.53125 209.355469 215.191406 209.191406 217.765625 C 209.027344 220.339844 209.03125 222.824219 209.109375 225.195312 C 209.183594 227.566406 209.375 229.820312 209.597656 231.9375 C 210.054688 236.171875 210.722656 239.851562 211.363281 242.867188 C 212.015625 245.882812 212.621094 248.242188 213.085938 249.835938 C 213.320312 250.632812 213.496094 251.246094 213.625 251.65625 C 213.757812 252.066406 213.824219 252.277344 213.824219 252.277344 C 213.824219 252.277344 213.722656 252.082031 213.519531 251.699219 C 213.328125 251.3125 213.035156 250.742188 212.691406 249.984375 C 212 248.464844 211 246.21875 209.949219 243.273438 C 208.890625 240.328125 207.753906 236.6875 206.800781 232.398438 C 205.859375 228.113281 205.097656 223.175781 204.945312 217.695312 C 204.875 214.957031 204.984375 212.085938 205.300781 209.113281 C 205.375 208.371094 205.492188 207.625 205.59375 206.867188 C 205.726562 206.117188 205.835938 205.359375 205.996094 204.597656 C 206.152344 203.835938 206.304688 203.070312 206.5 202.300781 C 206.597656 201.917969 206.683594 201.53125 206.789062 201.148438 C 206.898438 200.761719 207.007812 200.378906 207.117188 199.992188 L 207.28125 199.410156 L 207.46875 198.832031 C 207.59375 198.445312 207.722656 198.058594 207.847656 197.671875 C 207.992188 197.285156 208.132812 196.902344 208.277344 196.515625 C 208.421875 196.128906 208.5625 195.738281 208.730469 195.359375 C 208.890625 194.976562 209.054688 194.589844 209.214844 194.207031 C 209.371094 193.816406 209.566406 193.445312 209.742188 193.0625 C 209.925781 192.679688 210.09375 192.292969 210.289062 191.917969 C 210.488281 191.542969 210.683594 191.164062 210.882812 190.785156 C 211.074219 190.402344 211.292969 190.035156 211.511719 189.664062 C 211.726562 189.292969 211.945312 188.917969 212.164062 188.542969 C 212.398438 188.183594 212.636719 187.816406 212.871094 187.453125 L 213.230469 186.90625 C 213.351562 186.722656 213.480469 186.546875 213.609375 186.371094 C 213.863281 186.015625 214.117188 185.65625 214.375 185.300781 C 214.628906 184.941406 214.914062 184.605469 215.183594 184.253906 C 215.460938 183.910156 215.722656 183.554688 216.015625 183.21875 C 216.308594 182.882812 216.597656 182.546875 216.890625 182.210938 C 219.234375 179.519531 221.980469 177.121094 224.933594 174.984375 C 225.304688 174.71875 225.675781 174.453125 226.046875 174.1875 C 226.429688 173.9375 226.808594 173.6875 227.191406 173.4375 C 227.578125 173.191406 227.953125 172.921875 228.351562 172.695312 C 228.742188 172.460938 229.136719 172.226562 229.53125 171.992188 C 231.117188 171.070312 232.753906 170.230469 234.417969 169.445312 L 235.042969 169.148438 L 236.941406 168.328125 L 237.578125 168.054688 L 238.234375 167.796875 L 239.550781 167.289062 L 240.210938 167.035156 C 240.429688 166.953125 240.628906 166.886719 240.839844 166.8125 L 242.085938 166.382812 L 242.710938 166.171875 L 242.867188 166.117188 L 243.09375 166.046875 L 243.441406 165.941406 C 243.898438 165.800781 244.363281 165.660156 244.820312 165.539062 C 246.65625 165.039062 248.476562 164.648438 250.285156 164.308594 C 252.09375 163.972656 253.894531 163.683594 255.683594 163.433594 C 262.84375 162.472656 269.882812 161.84375 276.765625 161.082031 C 278.484375 160.890625 280.191406 160.6875 281.886719 160.476562 C 283.582031 160.277344 285.261719 160.054688 286.933594 159.820312 C 290.265625 159.351562 293.539062 158.8125 296.742188 158.21875 C 303.132812 156.996094 309.226562 155.480469 314.828125 153.542969 C 320.429688 151.625 325.546875 149.3125 330.023438 146.734375 C 332.261719 145.449219 334.34375 144.097656 336.257812 142.714844 C 338.175781 141.335938 339.914062 139.910156 341.511719 138.527344 C 344.671875 135.714844 347.199219 132.976562 349.148438 130.601562 C 351.09375 128.222656 352.488281 126.230469 353.421875 124.859375 C 354.335938 123.464844 354.820312 122.722656 354.820312 122.722656 " fill-opacity="1" fill-rule="nonzero"/></g><path fill="#32282b" d="M 157.789062 248.242188 C 157.789062 248.242188 157.621094 248 157.3125 247.550781 C 157.230469 247.4375 157.144531 247.316406 157.046875 247.179688 C 156.9375 247.046875 156.820312 246.90625 156.691406 246.75 C 156.558594 246.597656 156.417969 246.429688 156.269531 246.25 C 156.121094 246.066406 155.941406 245.90625 155.761719 245.71875 C 155.574219 245.53125 155.382812 245.339844 155.175781 245.132812 C 154.96875 244.933594 154.730469 244.746094 154.492188 244.539062 C 154.246094 244.339844 154.003906 244.109375 153.722656 243.914062 C 153.441406 243.714844 153.152344 243.511719 152.851562 243.296875 C 152.695312 243.195312 152.546875 243.074219 152.382812 242.980469 C 152.21875 242.886719 152.050781 242.789062 151.882812 242.691406 C 151.539062 242.5 151.191406 242.289062 150.820312 242.09375 C 150.449219 241.914062 150.058594 241.738281 149.660156 241.554688 C 149.457031 241.464844 149.257812 241.367188 149.050781 241.285156 C 148.839844 241.207031 148.625 241.128906 148.410156 241.050781 C 147.980469 240.894531 147.535156 240.734375 147.082031 240.589844 C 146.617188 240.46875 146.148438 240.347656 145.667969 240.222656 C 145.429688 240.164062 145.1875 240.09375 144.941406 240.039062 C 144.691406 240 144.445312 239.957031 144.191406 239.914062 C 143.6875 239.832031 143.171875 239.746094 142.652344 239.664062 C 140.570312 239.457031 138.34375 239.34375 136.082031 239.550781 C 135.515625 239.59375 134.945312 239.632812 134.367188 239.6875 C 133.800781 239.773438 133.230469 239.859375 132.65625 239.949219 C 132.367188 239.992188 132.078125 240.035156 131.789062 240.082031 C 131.5 240.128906 131.207031 240.164062 130.921875 240.230469 C 130.351562 240.359375 129.777344 240.492188 129.203125 240.621094 C 128.914062 240.6875 128.625 240.753906 128.339844 240.820312 C 128.046875 240.886719 127.757812 240.953125 127.476562 241.039062 C 126.90625 241.203125 126.339844 241.367188 125.769531 241.539062 C 125.214844 241.707031 124.660156 241.875 124.105469 242.042969 L 122.460938 242.5625 C 122.179688 242.65625 121.929688 242.71875 121.664062 242.796875 L 120.882812 243.019531 C 120.371094 243.175781 119.832031 243.3125 119.300781 243.449219 C 118.765625 243.589844 118.234375 243.722656 117.703125 243.84375 C 117.167969 243.960938 116.640625 244.105469 116.105469 244.199219 C 115.042969 244.421875 113.984375 244.605469 112.933594 244.785156 C 112.40625 244.863281 111.882812 244.9375 111.363281 245.011719 C 110.84375 245.074219 110.324219 245.136719 109.8125 245.199219 C 107.753906 245.410156 105.753906 245.523438 103.851562 245.523438 C 103.375 245.53125 102.90625 245.515625 102.441406 245.511719 C 101.976562 245.503906 101.523438 245.472656 101.074219 245.460938 C 100.625 245.445312 100.183594 245.410156 99.75 245.386719 C 99.316406 245.347656 98.890625 245.3125 98.472656 245.277344 C 96.804688 245.117188 95.277344 244.878906 93.925781 244.621094 C 92.570312 244.363281 91.398438 244.078125 90.429688 243.8125 C 88.5 243.277344 87.414062 242.832031 87.414062 242.832031 C 87.414062 242.832031 87.46875 242.882812 87.574219 242.976562 C 87.683594 243.066406 87.84375 243.207031 88.0625 243.375 C 88.496094 243.714844 89.148438 244.191406 90.035156 244.726562 C 90.914062 245.265625 92.023438 245.863281 93.347656 246.453125 C 94.667969 247.039062 96.207031 247.613281 97.929688 248.101562 C 98.363281 248.21875 98.804688 248.335938 99.257812 248.449219 C 99.710938 248.550781 100.175781 248.664062 100.648438 248.761719 C 101.597656 248.957031 102.585938 249.113281 103.609375 249.253906 C 105.652344 249.515625 107.832031 249.640625 110.085938 249.589844 C 110.644531 249.570312 111.214844 249.5625 111.785156 249.527344 C 112.355469 249.484375 112.929688 249.4375 113.507812 249.394531 C 114.082031 249.328125 114.664062 249.265625 115.246094 249.203125 C 115.824219 249.125 116.402344 249.023438 116.988281 248.933594 C 117.574219 248.851562 118.152344 248.722656 118.734375 248.613281 C 119.027344 248.554688 119.320312 248.503906 119.609375 248.4375 L 120.480469 248.230469 C 121.058594 248.09375 121.640625 247.964844 122.226562 247.789062 L 123.105469 247.542969 C 123.394531 247.457031 123.707031 247.378906 123.96875 247.289062 C 125.0625 246.9375 126.152344 246.585938 127.238281 246.238281 C 127.765625 246.074219 128.289062 245.902344 128.8125 245.726562 C 129.070312 245.632812 129.332031 245.5625 129.597656 245.496094 C 129.859375 245.421875 130.121094 245.351562 130.382812 245.28125 C 130.90625 245.140625 131.429688 244.996094 131.949219 244.855469 C 132.207031 244.773438 132.46875 244.730469 132.730469 244.671875 C 132.988281 244.613281 133.246094 244.558594 133.503906 244.5 C 134.023438 244.386719 134.539062 244.273438 135.046875 244.160156 C 135.558594 244.082031 136.066406 243.992188 136.574219 243.910156 C 136.828125 243.867188 137.078125 243.824219 137.328125 243.785156 C 137.453125 243.765625 137.578125 243.738281 137.703125 243.722656 L 138.078125 243.6875 C 138.574219 243.644531 139.066406 243.585938 139.558594 243.53125 C 139.800781 243.511719 140.046875 243.464844 140.285156 243.464844 C 140.527344 243.453125 140.765625 243.445312 141.003906 243.4375 C 141.484375 243.421875 141.957031 243.398438 142.425781 243.378906 C 142.886719 243.390625 143.347656 243.402344 143.796875 243.414062 C 144.023438 243.417969 144.25 243.421875 144.472656 243.429688 C 144.695312 243.449219 144.914062 243.46875 145.128906 243.488281 C 145.566406 243.527344 145.996094 243.566406 146.417969 243.605469 C 146.835938 243.675781 147.246094 243.746094 147.644531 243.808594 C 147.847656 243.84375 148.046875 243.875 148.246094 243.90625 C 148.441406 243.945312 148.632812 244 148.820312 244.042969 C 149.199219 244.136719 149.570312 244.230469 149.9375 244.3125 C 150.296875 244.417969 150.640625 244.535156 150.984375 244.640625 C 151.152344 244.699219 151.320312 244.75 151.484375 244.804688 C 151.652344 244.855469 151.804688 244.929688 151.964844 244.988281 C 152.277344 245.113281 152.582031 245.234375 152.875 245.351562 C 153.027344 245.40625 153.160156 245.480469 153.300781 245.546875 C 153.4375 245.613281 153.574219 245.675781 153.707031 245.742188 C 153.96875 245.871094 154.234375 245.984375 154.472656 246.117188 C 154.707031 246.25 154.933594 246.378906 155.148438 246.5 C 155.59375 246.734375 155.953125 246.980469 156.28125 247.191406 C 156.445312 247.296875 156.597656 247.394531 156.738281 247.484375 C 156.871094 247.582031 156.996094 247.671875 157.105469 247.753906 C 157.550781 248.070312 157.789062 248.242188 157.789062 248.242188 " fill-opacity="1" fill-rule="nonzero"/><path fill="#32282b" d="M 87.359375 242.796875 C 88.089844 242.84375 88.816406 242.867188 89.542969 242.898438 C 90.269531 242.921875 90.992188 242.972656 91.726562 242.949219 C 92.457031 242.941406 93.1875 242.914062 93.925781 242.898438 C 94.292969 242.886719 94.660156 242.882812 95.027344 242.859375 L 96.121094 242.777344 C 96.855469 242.722656 97.585938 242.660156 98.320312 242.597656 C 99.046875 242.507812 99.777344 242.417969 100.503906 242.316406 L 101.601562 242.167969 L 102.6875 241.980469 C 103.414062 241.851562 104.140625 241.722656 104.867188 241.574219 L 107.03125 241.085938 C 107.390625 241.007812 107.75 240.914062 108.105469 240.8125 L 109.179688 240.523438 C 109.535156 240.421875 109.894531 240.332031 110.25 240.226562 L 111.3125 239.890625 L 112.375 239.550781 L 113.429688 239.175781 L 114.480469 238.800781 C 114.832031 238.671875 115.175781 238.523438 115.523438 238.386719 C 115.871094 238.246094 116.21875 238.113281 116.5625 237.960938 L 117.59375 237.507812 C 117.9375 237.363281 118.277344 237.195312 118.621094 237.035156 C 118.960938 236.875 119.304688 236.714844 119.640625 236.535156 C 119.980469 236.359375 120.316406 236.1875 120.65625 235.992188 C 120.828125 235.898438 120.992188 235.8125 121.167969 235.707031 C 121.347656 235.601562 121.5 235.515625 121.714844 235.378906 L 133 228.210938 L 119.816406 231.21875 C 118.601562 231.496094 117.382812 231.769531 116.171875 232.066406 L 112.507812 232.800781 C 111.28125 233.007812 110.0625 233.242188 108.835938 233.429688 L 106.992188 233.683594 L 106.070312 233.816406 C 105.765625 233.859375 105.457031 233.886719 105.148438 233.921875 L 103.300781 234.125 L 102.839844 234.175781 L 102.378906 234.207031 L 101.453125 234.273438 C 100.835938 234.320312 100.222656 234.382812 99.605469 234.414062 L 97.753906 234.492188 C 97.445312 234.5 97.136719 234.523438 96.828125 234.523438 C 96.519531 234.523438 96.214844 234.523438 95.90625 234.53125 C 95.289062 234.535156 94.671875 234.554688 94.054688 234.546875 C 92.824219 234.511719 91.589844 234.492188 90.359375 234.40625 C 89.128906 234.359375 87.90625 234.210938 86.675781 234.097656 L 84.84375 233.867188 C 84.230469 233.789062 83.625 233.667969 83.015625 233.574219 C 82.402344 233.488281 81.804688 233.355469 81.195312 233.238281 C 80.894531 233.179688 80.589844 233.125 80.289062 233.054688 L 79.386719 232.84375 L 78.480469 232.636719 L 77.585938 232.394531 L 76.6875 232.152344 L 75.800781 231.882812 L 74.90625 231.617188 L 74.027344 231.316406 C 73.433594 231.125 72.855469 230.898438 72.269531 230.683594 C 71.105469 230.242188 69.953125 229.75 68.820312 229.21875 C 67.679688 228.691406 66.570312 228.097656 65.476562 227.46875 C 65.199219 227.3125 64.933594 227.144531 64.660156 226.980469 C 64.386719 226.820312 64.121094 226.644531 63.851562 226.472656 C 63.324219 226.121094 62.800781 225.757812 62.292969 225.359375 C 62.667969 225.886719 63.097656 226.371094 63.539062 226.847656 C 63.980469 227.320312 64.4375 227.785156 64.917969 228.21875 C 65.394531 228.664062 65.890625 229.082031 66.398438 229.496094 L 67.164062 230.105469 C 67.425781 230.300781 67.691406 230.488281 67.953125 230.683594 C 68.214844 230.878906 68.484375 231.0625 68.757812 231.246094 C 69.027344 231.425781 69.296875 231.617188 69.574219 231.792969 L 70.828125 232.566406 L 71.253906 232.808594 L 72.113281 233.292969 C 72.398438 233.457031 72.695312 233.597656 72.984375 233.75 L 73.863281 234.195312 L 74.757812 234.613281 L 75.65625 235.019531 L 76.570312 235.394531 L 77.488281 235.765625 L 78.414062 236.105469 L 79.347656 236.433594 C 79.660156 236.539062 79.976562 236.632812 80.289062 236.734375 C 80.921875 236.925781 81.546875 237.136719 82.1875 237.296875 C 82.824219 237.457031 83.460938 237.636719 84.105469 237.777344 L 86.042969 238.199219 C 86.6875 238.324219 87.339844 238.421875 87.992188 238.53125 C 88.640625 238.652344 89.296875 238.722656 89.949219 238.808594 C 91.257812 239 92.574219 239.070312 93.890625 239.175781 C 94.546875 239.21875 95.203125 239.226562 95.863281 239.257812 C 96.519531 239.285156 97.179688 239.296875 97.835938 239.28125 L 99.8125 239.257812 C 100.46875 239.246094 101.125 239.195312 101.78125 239.167969 L 102.765625 239.109375 L 103.257812 239.078125 L 103.746094 239.03125 L 105.703125 238.835938 C 107.011719 238.726562 108.300781 238.496094 109.601562 238.316406 C 109.925781 238.269531 110.246094 238.210938 110.566406 238.148438 L 111.53125 237.972656 L 113.460938 237.613281 L 117.273438 236.730469 C 118.53125 236.394531 119.785156 236.039062 121.039062 235.6875 L 119.140625 231.527344 C 119.054688 231.589844 118.898438 231.6875 118.769531 231.773438 C 118.640625 231.859375 118.488281 231.949219 118.347656 232.039062 C 118.066406 232.214844 117.769531 232.386719 117.472656 232.558594 C 117.179688 232.730469 116.878906 232.898438 116.578125 233.066406 C 116.277344 233.234375 115.976562 233.40625 115.667969 233.566406 L 114.742188 234.046875 C 114.433594 234.210938 114.117188 234.355469 113.804688 234.507812 L 112.859375 234.96875 L 111.90625 235.40625 L 110.945312 235.84375 L 109.976562 236.25 L 109 236.660156 C 108.675781 236.796875 108.347656 236.917969 108.019531 237.050781 L 107.03125 237.433594 C 106.703125 237.5625 106.371094 237.691406 106.039062 237.800781 L 104.035156 238.519531 C 103.363281 238.746094 102.683594 238.945312 102.007812 239.171875 L 100.992188 239.503906 L 99.964844 239.796875 L 97.90625 240.394531 C 97.214844 240.570312 96.519531 240.738281 95.828125 240.925781 L 94.785156 241.195312 C 94.433594 241.28125 94.085938 241.351562 93.738281 241.433594 C 93.039062 241.59375 92.335938 241.746094 91.632812 241.914062 L 91.105469 242.039062 L 90.566406 242.136719 L 89.5 242.351562 C 88.785156 242.496094 88.070312 242.636719 87.359375 242.796875 " fill-opacity="1" fill-rule="nonzero"/><path fill="#32282b" d="M 62.292969 225.359375 C 63.117188 225.519531 63.941406 225.65625 64.765625 225.800781 C 65.175781 225.871094 65.585938 225.945312 66 226.007812 L 66.617188 226.105469 L 67.242188 226.183594 L 69.746094 226.472656 C 70.164062 226.511719 70.585938 226.570312 71.003906 226.597656 L 72.261719 226.683594 L 74.78125 226.839844 C 75.621094 226.867188 76.460938 226.878906 77.304688 226.898438 C 77.726562 226.902344 78.148438 226.917969 78.570312 226.917969 L 79.832031 226.894531 C 80.675781 226.875 81.523438 226.871094 82.363281 226.832031 L 84.894531 226.683594 C 85.316406 226.664062 85.738281 226.617188 86.160156 226.582031 L 87.425781 226.464844 C 88.265625 226.390625 89.105469 226.277344 89.949219 226.171875 L 91.210938 226.011719 L 93.726562 225.605469 L 94.980469 225.367188 C 95.816406 225.214844 96.652344 225.035156 97.484375 224.84375 C 97.902344 224.753906 98.320312 224.644531 98.734375 224.542969 C 99.152344 224.441406 99.566406 224.339844 99.984375 224.222656 C 100.398438 224.109375 100.816406 223.996094 101.234375 223.871094 C 101.449219 223.808594 101.652344 223.75 101.867188 223.679688 C 102.085938 223.613281 102.28125 223.550781 102.535156 223.460938 L 119.332031 217.519531 L 101.453125 218.859375 L 97.652344 219.144531 L 93.855469 219.34375 C 92.589844 219.390625 91.324219 219.398438 90.058594 219.4375 C 88.792969 219.445312 87.53125 219.441406 86.265625 219.433594 L 84.375 219.367188 C 83.746094 219.347656 83.113281 219.34375 82.488281 219.296875 C 81.230469 219.214844 79.96875 219.164062 78.722656 219.027344 C 78.09375 218.972656 77.464844 218.921875 76.839844 218.859375 L 74.972656 218.628906 C 74.660156 218.589844 74.347656 218.554688 74.035156 218.507812 L 73.105469 218.367188 C 72.488281 218.269531 71.863281 218.1875 71.246094 218.074219 C 70.015625 217.839844 68.777344 217.617188 67.558594 217.332031 L 66.636719 217.132812 L 65.730469 216.894531 L 64.820312 216.660156 L 64.363281 216.542969 L 63.910156 216.410156 C 63.3125 216.234375 62.707031 216.0625 62.109375 215.875 C 61.515625 215.675781 60.921875 215.476562 60.320312 215.28125 L 58.554688 214.628906 L 56.808594 213.917969 L 55.089844 213.140625 C 54.53125 212.851562 53.953125 212.59375 53.398438 212.292969 C 52.84375 211.996094 52.28125 211.703125 51.742188 211.375 C 51.46875 211.21875 51.1875 211.066406 50.921875 210.898438 L 50.117188 210.390625 C 49.050781 209.707031 48.007812 208.96875 47.007812 208.171875 C 46.011719 207.371094 45.039062 206.519531 44.179688 205.542969 C 44.464844 206.128906 44.816406 206.6875 45.191406 207.226562 C 45.558594 207.773438 45.957031 208.296875 46.378906 208.808594 C 47.214844 209.828125 48.140625 210.777344 49.113281 211.6875 C 50.089844 212.582031 51.117188 213.429688 52.191406 214.214844 C 52.457031 214.421875 52.730469 214.605469 53.003906 214.796875 L 53.828125 215.363281 C 54.390625 215.722656 54.957031 216.074219 55.523438 216.429688 C 56.101562 216.761719 56.679688 217.09375 57.265625 217.414062 L 59.050781 218.324219 C 59.65625 218.605469 60.261719 218.882812 60.871094 219.15625 C 61.484375 219.421875 62.105469 219.664062 62.726562 219.917969 C 63.339844 220.179688 63.976562 220.382812 64.605469 220.609375 L 65.550781 220.9375 L 66.503906 221.234375 L 67.460938 221.53125 C 67.78125 221.632812 68.101562 221.726562 68.421875 221.808594 L 70.359375 222.308594 C 71.007812 222.46875 71.660156 222.597656 72.308594 222.742188 L 73.289062 222.957031 C 73.613281 223.019531 73.941406 223.070312 74.269531 223.128906 L 76.238281 223.464844 C 76.894531 223.5625 77.554688 223.644531 78.214844 223.734375 C 79.53125 223.925781 80.851562 224.011719 82.175781 224.136719 C 83.5 224.253906 84.820312 224.289062 86.144531 224.355469 C 87.46875 224.375 88.792969 224.394531 90.113281 224.398438 C 91.433594 224.359375 92.757812 224.328125 94.074219 224.269531 C 95.390625 224.183594 96.707031 224.117188 98.019531 224 L 101.949219 223.597656 L 100.867188 219 L 100.355469 219.183594 C 100.179688 219.253906 99.984375 219.3125 99.804688 219.378906 C 99.433594 219.511719 99.050781 219.628906 98.671875 219.753906 C 98.292969 219.878906 97.90625 219.992188 97.523438 220.105469 C 97.136719 220.21875 96.753906 220.34375 96.363281 220.441406 C 95.582031 220.652344 94.808594 220.882812 94.019531 221.074219 L 92.839844 221.378906 L 91.652344 221.652344 L 90.464844 221.929688 L 89.269531 222.183594 C 88.472656 222.351562 87.675781 222.527344 86.871094 222.664062 C 86.070312 222.804688 85.269531 222.980469 84.460938 223.109375 L 82.039062 223.503906 C 81.230469 223.636719 80.417969 223.734375 79.605469 223.851562 L 78.382812 224.023438 C 77.976562 224.078125 77.570312 224.121094 77.160156 224.171875 C 76.34375 224.265625 75.523438 224.351562 74.707031 224.457031 L 72.242188 224.683594 L 71.007812 224.804688 C 70.59375 224.851562 70.1875 224.863281 69.773438 224.894531 L 67.296875 225.070312 L 66.675781 225.121094 L 66.050781 225.148438 C 65.632812 225.164062 65.214844 225.191406 64.796875 225.210938 C 63.964844 225.257812 63.128906 225.296875 62.292969 225.359375 " fill-opacity="1" fill-rule="nonzero"/><path fill="#32282b" d="M 44.179688 205.542969 C 44.648438 205.773438 45.117188 206.007812 45.589844 206.234375 C 46.0625 206.457031 46.554688 206.640625 47.042969 206.847656 C 47.53125 207.0625 48.03125 207.226562 48.527344 207.398438 L 49.277344 207.660156 C 49.53125 207.742188 49.785156 207.8125 50.035156 207.886719 L 50.796875 208.109375 C 51.054688 208.183594 51.308594 208.257812 51.566406 208.316406 L 53.105469 208.695312 C 54.144531 208.90625 55.179688 209.132812 56.226562 209.292969 C 57.273438 209.476562 58.324219 209.597656 59.375 209.738281 C 60.425781 209.851562 61.480469 209.953125 62.535156 210.023438 C 63.59375 210.113281 64.648438 210.15625 65.707031 210.199219 C 66.765625 210.226562 67.824219 210.257812 68.878906 210.257812 C 69.410156 210.265625 69.9375 210.253906 70.464844 210.246094 C 70.996094 210.234375 71.523438 210.234375 72.050781 210.214844 L 73.636719 210.164062 L 75.21875 210.085938 C 76.273438 210.023438 77.328125 209.957031 78.378906 209.867188 C 79.433594 209.789062 80.484375 209.691406 81.535156 209.578125 C 82.582031 209.46875 83.632812 209.34375 84.679688 209.214844 C 85.726562 209.082031 86.773438 208.941406 87.820312 208.777344 C 88.863281 208.617188 89.90625 208.445312 90.949219 208.265625 L 92.515625 207.980469 C 93.042969 207.882812 93.550781 207.785156 94.101562 207.664062 L 115.414062 203.027344 L 93.503906 202.953125 L 91.148438 202.945312 L 89.96875 202.941406 C 89.578125 202.941406 89.183594 202.945312 88.792969 202.921875 C 88.011719 202.890625 87.230469 202.859375 86.445312 202.835938 L 85.269531 202.796875 C 84.878906 202.777344 84.492188 202.746094 84.101562 202.71875 L 81.761719 202.550781 C 81.566406 202.539062 81.371094 202.527344 81.175781 202.507812 L 80.59375 202.441406 L 78.265625 202.199219 C 77.875 202.160156 77.488281 202.125 77.101562 202.0625 L 74.785156 201.730469 C 74.011719 201.636719 73.25 201.476562 72.484375 201.34375 L 71.332031 201.140625 C 70.949219 201.070312 70.5625 201.011719 70.1875 200.921875 L 67.335938 200.296875 L 66.773438 200.148438 L 65.644531 199.855469 C 64.890625 199.664062 64.132812 199.480469 63.394531 199.246094 C 62.652344 199.019531 61.90625 198.804688 61.164062 198.570312 C 60.433594 198.3125 59.695312 198.066406 58.960938 197.816406 C 58.589844 197.699219 58.226562 197.558594 57.867188 197.417969 L 56.777344 197 C 56.417969 196.855469 56.050781 196.730469 55.695312 196.574219 L 54.625 196.113281 L 53.550781 195.65625 C 53.191406 195.503906 52.847656 195.328125 52.496094 195.164062 C 51.078125 194.519531 49.703125 193.792969 48.335938 193.050781 L 47.316406 192.476562 C 46.980469 192.28125 46.636719 192.101562 46.308594 191.886719 L 45.3125 191.273438 C 44.984375 191.066406 44.644531 190.871094 44.324219 190.652344 L 43.347656 190.003906 C 43.019531 189.789062 42.691406 189.574219 42.378906 189.339844 L 41.429688 188.65625 L 40.949219 188.316406 L 40.484375 187.957031 C 39.863281 187.484375 39.234375 187.011719 38.636719 186.503906 L 37.726562 185.753906 L 36.839844 184.980469 L 36.394531 184.59375 L 35.09375 183.386719 L 34.25 182.558594 L 33.824219 182.144531 L 33.417969 181.714844 C 32.308594 180.585938 31.257812 179.398438 30.25 178.164062 C 29.746094 177.546875 29.25 176.921875 28.773438 176.28125 C 28.300781 175.632812 27.835938 174.980469 27.398438 174.304688 C 27.683594 175.058594 28.023438 175.792969 28.375 176.519531 C 28.734375 177.246094 29.105469 177.96875 29.511719 178.667969 C 30.316406 180.082031 31.203125 181.445312 32.167969 182.761719 L 32.523438 183.257812 L 33.648438 184.710938 L 34.433594 185.652344 L 34.828125 186.125 L 36.058594 187.496094 C 36.335938 187.796875 36.625 188.085938 36.910156 188.378906 C 37.476562 188.976562 38.074219 189.539062 38.667969 190.105469 C 39.859375 191.238281 41.121094 192.292969 42.410156 193.320312 C 43.050781 193.839844 43.722656 194.3125 44.382812 194.804688 C 44.710938 195.058594 45.058594 195.28125 45.398438 195.511719 L 46.421875 196.207031 C 47.800781 197.113281 49.214844 197.96875 50.667969 198.757812 C 51.027344 198.953125 51.382812 199.167969 51.753906 199.351562 L 52.859375 199.910156 L 53.96875 200.460938 C 54.339844 200.644531 54.71875 200.800781 55.097656 200.972656 L 56.226562 201.476562 C 56.605469 201.644531 56.980469 201.816406 57.367188 201.960938 C 58.136719 202.265625 58.90625 202.570312 59.675781 202.867188 C 60.453125 203.144531 61.238281 203.402344 62.015625 203.671875 C 62.796875 203.949219 63.589844 204.175781 64.378906 204.410156 L 65.566406 204.757812 L 66.164062 204.925781 L 66.761719 205.074219 L 69.167969 205.65625 C 69.566406 205.761719 69.972656 205.832031 70.375 205.914062 L 71.585938 206.160156 C 72.394531 206.320312 73.203125 206.484375 74.015625 206.59375 L 76.457031 206.960938 C 76.863281 207.03125 77.273438 207.070312 77.679688 207.113281 L 78.90625 207.25 L 80.128906 207.382812 L 80.742188 207.445312 C 80.945312 207.464844 81.152344 207.472656 81.355469 207.488281 L 83.8125 207.644531 C 84.222656 207.667969 84.632812 207.699219 85.039062 207.71875 L 86.265625 207.75 C 87.085938 207.773438 87.90625 207.789062 88.722656 207.800781 C 89.132812 207.816406 89.542969 207.804688 89.949219 207.796875 L 91.175781 207.773438 L 93.628906 207.722656 L 93.027344 203.015625 L 91.5625 203.351562 L 90.0625 203.679688 C 89.058594 203.890625 88.054688 204.097656 87.046875 204.289062 L 84.015625 204.851562 C 83.003906 205.03125 81.992188 205.203125 80.976562 205.363281 C 79.960938 205.519531 78.945312 205.683594 77.929688 205.832031 C 76.910156 205.984375 75.890625 206.113281 74.871094 206.242188 L 73.34375 206.433594 L 71.808594 206.605469 C 71.300781 206.667969 70.789062 206.707031 70.277344 206.757812 C 69.765625 206.8125 69.253906 206.855469 68.742188 206.898438 C 67.71875 206.996094 66.695312 207.0625 65.667969 207.132812 L 64.128906 207.214844 C 63.617188 207.246094 63.105469 207.265625 62.589844 207.28125 C 62.078125 207.292969 61.5625 207.324219 61.050781 207.324219 L 59.507812 207.34375 C 58.484375 207.335938 57.453125 207.339844 56.429688 207.289062 C 55.398438 207.269531 54.375 207.191406 53.347656 207.125 L 51.808594 206.980469 C 51.292969 206.941406 50.789062 206.851562 50.277344 206.792969 C 50.019531 206.757812 49.761719 206.730469 49.507812 206.691406 L 48.746094 206.558594 C 48.234375 206.46875 47.71875 206.398438 47.21875 206.28125 C 46.714844 206.167969 46.203125 206.078125 45.699219 205.941406 C 45.195312 205.804688 44.6875 205.675781 44.179688 205.542969 " fill-opacity="1" fill-rule="nonzero"/><g clip-path="url(#0aca16cb74)"><path fill="#32282b" d="M 27.003906 173.488281 C 28.101562 174.191406 29.195312 174.886719 30.308594 175.558594 L 31.996094 176.546875 L 32.84375 177.035156 L 33.707031 177.5 L 35.429688 178.425781 C 36.003906 178.734375 36.597656 179.011719 37.179688 179.308594 C 37.765625 179.59375 38.347656 179.890625 38.941406 180.164062 L 40.726562 180.980469 C 41.023438 181.117188 41.320312 181.257812 41.621094 181.386719 L 44.339844 182.523438 L 46.171875 183.234375 L 47.09375 183.585938 L 48.019531 183.914062 L 49.878906 184.5625 L 51.757812 185.167969 C 52.382812 185.371094 53.015625 185.550781 53.648438 185.734375 C 54.277344 185.914062 54.90625 186.109375 55.546875 186.273438 L 57.457031 186.773438 L 59.382812 187.222656 C 60.023438 187.378906 60.671875 187.503906 61.316406 187.636719 L 62.285156 187.839844 L 63.257812 188.019531 C 64.558594 188.269531 65.863281 188.464844 67.171875 188.65625 L 69.140625 188.914062 L 71.117188 189.128906 L 73.097656 189.296875 C 73.761719 189.335938 74.421875 189.386719 75.085938 189.417969 C 76.414062 189.476562 77.742188 189.527344 79.074219 189.523438 C 80.40625 189.523438 81.742188 189.492188 83.085938 189.414062 C 83.757812 189.375 84.429688 189.328125 85.105469 189.265625 C 85.445312 189.230469 85.78125 189.203125 86.125 189.160156 L 86.644531 189.097656 L 86.910156 189.0625 L 87.203125 189.015625 L 101.875 186.789062 L 87.117188 184.359375 L 84.042969 183.851562 L 80.984375 183.273438 L 77.949219 182.617188 C 76.945312 182.367188 75.933594 182.148438 74.933594 181.890625 C 72.933594 181.371094 70.941406 180.816406 68.984375 180.175781 L 67.511719 179.703125 L 66.054688 179.191406 C 65.078125 178.863281 64.121094 178.484375 63.160156 178.117188 C 62.679688 177.941406 62.210938 177.734375 61.734375 177.539062 C 61.261719 177.339844 60.785156 177.148438 60.3125 176.941406 C 59.382812 176.507812 58.433594 176.121094 57.515625 175.660156 L 56.132812 174.992188 L 54.765625 174.28125 C 54.308594 174.050781 53.863281 173.800781 53.417969 173.550781 C 52.972656 173.296875 52.519531 173.058594 52.082031 172.796875 C 50.3125 171.769531 48.585938 170.667969 46.90625 169.5 C 45.242188 168.316406 43.621094 167.070312 42.058594 165.753906 C 40.492188 164.4375 39.011719 163.023438 37.578125 161.566406 C 36.144531 160.101562 34.792969 158.558594 33.511719 156.960938 C 32.226562 155.359375 31.03125 153.683594 29.90625 151.957031 C 28.777344 150.234375 27.746094 148.445312 26.785156 146.609375 C 25.824219 144.777344 24.960938 142.890625 24.171875 140.964844 C 23.777344 140.003906 23.40625 139.03125 23.0625 138.046875 C 22.707031 137.066406 22.378906 136.074219 22.078125 135.074219 C 21.464844 133.074219 20.941406 131.039062 20.515625 128.980469 C 20.089844 126.921875 19.742188 124.835938 19.574219 122.722656 C 19.476562 123.78125 19.460938 124.84375 19.472656 125.910156 C 19.488281 126.976562 19.527344 128.042969 19.613281 129.105469 C 19.773438 131.238281 20.066406 133.359375 20.464844 135.46875 C 20.859375 137.578125 21.378906 139.667969 22 141.730469 C 22.613281 143.800781 23.359375 145.828125 24.199219 147.824219 C 25.035156 149.820312 25.996094 151.769531 27.042969 153.675781 C 28.097656 155.574219 29.261719 157.417969 30.515625 159.207031 C 31.769531 160.988281 33.136719 162.695312 34.582031 164.335938 C 36.023438 165.976562 37.554688 167.542969 39.167969 169.019531 C 40.78125 170.496094 42.464844 171.898438 44.214844 173.210938 C 45.976562 174.507812 47.78125 175.746094 49.644531 176.886719 C 50.109375 177.171875 50.585938 177.4375 51.054688 177.714844 C 51.527344 177.992188 52 178.265625 52.480469 178.519531 L 53.921875 179.300781 L 55.378906 180.039062 C 56.347656 180.539062 57.347656 180.980469 58.332031 181.4375 C 58.832031 181.660156 59.335938 181.863281 59.835938 182.078125 C 60.335938 182.289062 60.835938 182.511719 61.34375 182.703125 C 62.355469 183.09375 63.363281 183.503906 64.390625 183.855469 L 65.929688 184.402344 L 67.476562 184.898438 C 69.542969 185.5625 71.632812 186.128906 73.730469 186.664062 C 74.253906 186.804688 74.785156 186.910156 75.308594 187.039062 L 76.890625 187.398438 L 80.066406 188.027344 L 83.257812 188.574219 L 86.457031 189.03125 L 86.367188 184.371094 L 85.964844 184.441406 L 85.523438 184.507812 C 85.226562 184.554688 84.917969 184.589844 84.613281 184.628906 C 84 184.703125 83.382812 184.765625 82.757812 184.816406 C 81.515625 184.925781 80.261719 184.988281 79.003906 185.03125 C 77.746094 185.085938 76.484375 185.089844 75.21875 185.082031 C 74.585938 185.078125 73.953125 185.054688 73.324219 185.039062 L 71.425781 184.960938 L 69.527344 184.847656 L 67.628906 184.699219 C 66.363281 184.582031 65.101562 184.449219 63.835938 184.289062 L 62.890625 184.171875 L 61.945312 184.035156 C 61.316406 183.945312 60.683594 183.863281 60.058594 183.75 L 58.171875 183.433594 L 56.289062 183.078125 C 55.660156 182.96875 55.039062 182.824219 54.414062 182.695312 C 53.789062 182.5625 53.160156 182.433594 52.542969 182.28125 L 50.671875 181.839844 L 48.8125 181.359375 L 47.882812 181.117188 L 46.960938 180.851562 L 45.109375 180.324219 L 43.269531 179.753906 L 42.347656 179.464844 L 41.433594 179.160156 L 39.601562 178.546875 C 38.992188 178.339844 38.394531 178.105469 37.785156 177.890625 C 37.183594 177.667969 36.570312 177.460938 35.96875 177.222656 L 33.261719 176.167969 L 32.367188 175.792969 L 30.574219 175.050781 C 29.378906 174.546875 28.203125 173.996094 27.003906 173.488281 " fill-opacity="1" fill-rule="nonzero"/></g><g clip-path="url(#c1378dfeb0)"><path fill="#32282b" d="M 19.574219 122.722656 C 19.574219 122.722656 19.664062 122.925781 19.835938 123.320312 C 20.011719 123.714844 20.257812 124.304688 20.605469 125.058594 C 20.789062 125.433594 20.992188 125.855469 21.21875 126.316406 C 21.445312 126.777344 21.691406 127.289062 21.984375 127.816406 C 22.273438 128.351562 22.570312 128.9375 22.917969 129.539062 C 23.273438 130.140625 23.652344 130.78125 24.054688 131.453125 C 25.703125 134.125 27.945312 137.246094 30.902344 140.53125 C 32.394531 142.160156 34.074219 143.8125 35.933594 145.46875 C 36.402344 145.875 36.882812 146.285156 37.367188 146.703125 C 37.863281 147.101562 38.367188 147.507812 38.878906 147.914062 C 39.910156 148.714844 40.980469 149.519531 42.105469 150.300781 C 44.347656 151.867188 46.785156 153.351562 49.375 154.765625 C 51.96875 156.175781 54.730469 157.472656 57.617188 158.679688 C 63.398438 161.085938 69.714844 163.023438 76.316406 164.558594 C 79.613281 165.332031 82.988281 165.988281 86.40625 166.574219 C 88.117188 166.867188 89.835938 167.148438 91.566406 167.40625 C 93.296875 167.667969 95.035156 167.894531 96.777344 168.128906 C 100.265625 168.574219 103.769531 169.011719 107.269531 169.398438 C 110.769531 169.796875 114.261719 170.199219 117.699219 170.6875 C 121.128906 171.164062 124.527344 171.714844 127.671875 172.550781 C 128.070312 172.652344 128.453125 172.765625 128.835938 172.878906 L 129.125 172.964844 C 129.121094 172.964844 129.234375 173 129.136719 172.964844 L 129.214844 172.992188 L 129.371094 173.042969 L 129.996094 173.253906 L 131.25 173.664062 C 131.457031 173.734375 131.675781 173.800781 131.871094 173.871094 L 132.441406 174.082031 L 133.585938 174.5 L 134.160156 174.710938 L 134.734375 174.945312 L 135.882812 175.417969 L 136.457031 175.652344 L 137.019531 175.910156 C 138.523438 176.582031 139.992188 177.304688 141.410156 178.09375 C 141.761719 178.289062 142.117188 178.484375 142.472656 178.679688 C 142.832031 178.871094 143.164062 179.09375 143.507812 179.300781 C 143.851562 179.511719 144.195312 179.71875 144.535156 179.929688 C 144.867188 180.152344 145.199219 180.375 145.53125 180.59375 C 148.171875 182.382812 150.597656 184.394531 152.726562 186.613281 C 154.855469 188.832031 156.714844 191.242188 158.257812 193.789062 C 159.804688 196.332031 161.0625 198.992188 162.035156 201.699219 C 163.011719 204.398438 163.738281 207.132812 164.238281 209.832031 C 164.75 212.53125 165.039062 215.191406 165.203125 217.765625 C 165.367188 220.339844 165.363281 222.824219 165.285156 225.195312 C 165.210938 227.566406 165.023438 229.820312 164.796875 231.9375 C 164.339844 236.171875 163.671875 239.851562 163.03125 242.867188 C 162.378906 245.882812 161.773438 248.242188 161.308594 249.835938 C 161.078125 250.632812 160.898438 251.246094 160.769531 251.65625 C 160.640625 252.066406 160.570312 252.277344 160.570312 252.277344 C 160.570312 252.277344 160.675781 252.082031 160.875 251.699219 C 161.066406 251.3125 161.359375 250.742188 161.703125 249.984375 C 162.394531 248.464844 163.394531 246.21875 164.445312 243.273438 C 165.503906 240.328125 166.640625 236.6875 167.59375 232.398438 C 168.535156 228.113281 169.296875 223.175781 169.449219 217.695312 C 169.519531 214.957031 169.414062 212.085938 169.09375 209.113281 C 169.019531 208.371094 168.902344 207.625 168.800781 206.867188 C 168.667969 206.117188 168.558594 205.359375 168.398438 204.597656 C 168.242188 203.835938 168.089844 203.070312 167.894531 202.300781 C 167.796875 201.917969 167.710938 201.53125 167.605469 201.148438 C 167.496094 200.761719 167.390625 200.378906 167.28125 199.992188 L 167.113281 199.410156 L 166.925781 198.832031 C 166.800781 198.445312 166.671875 198.058594 166.546875 197.671875 C 166.402344 197.285156 166.261719 196.902344 166.117188 196.515625 C 165.972656 196.128906 165.832031 195.738281 165.664062 195.359375 C 165.503906 194.976562 165.34375 194.589844 165.179688 194.207031 C 165.023438 193.816406 164.828125 193.445312 164.65625 193.0625 C 164.46875 192.679688 164.304688 192.292969 164.105469 191.917969 C 163.90625 191.542969 163.710938 191.164062 163.511719 190.785156 C 163.320312 190.402344 163.101562 190.035156 162.882812 189.664062 C 162.667969 189.292969 162.449219 188.917969 162.230469 188.542969 C 161.996094 188.183594 161.757812 187.816406 161.523438 187.453125 L 161.164062 186.90625 C 161.046875 186.722656 160.914062 186.546875 160.789062 186.371094 C 160.53125 186.015625 160.277344 185.65625 160.019531 185.300781 C 159.765625 184.941406 159.480469 184.605469 159.210938 184.253906 C 158.933594 183.910156 158.671875 183.554688 158.378906 183.21875 C 158.085938 182.882812 157.796875 182.546875 157.503906 182.210938 C 155.160156 179.519531 152.414062 177.121094 149.460938 174.984375 C 149.09375 174.71875 148.71875 174.453125 148.347656 174.1875 C 147.96875 173.9375 147.585938 173.6875 147.203125 173.4375 C 146.816406 173.191406 146.441406 172.921875 146.042969 172.695312 C 145.652344 172.460938 145.257812 172.226562 144.863281 171.992188 C 143.277344 171.070312 141.640625 170.230469 139.976562 169.445312 L 139.351562 169.148438 L 137.453125 168.328125 L 136.816406 168.054688 L 136.160156 167.796875 L 134.84375 167.289062 L 134.183594 167.035156 C 133.964844 166.953125 133.765625 166.886719 133.554688 166.8125 L 132.308594 166.382812 L 131.683594 166.171875 L 131.527344 166.117188 L 131.300781 166.046875 L 130.957031 165.941406 C 130.496094 165.800781 130.03125 165.660156 129.574219 165.539062 C 127.738281 165.039062 125.917969 164.648438 124.109375 164.308594 C 122.300781 163.972656 120.503906 163.683594 118.710938 163.433594 C 111.550781 162.472656 104.511719 161.84375 97.628906 161.082031 C 95.914062 160.890625 94.203125 160.6875 92.507812 160.476562 C 90.8125 160.277344 89.132812 160.054688 87.460938 159.820312 C 84.128906 159.351562 80.855469 158.8125 77.652344 158.21875 C 71.261719 156.996094 65.167969 155.480469 59.566406 153.542969 C 53.964844 151.625 48.847656 149.3125 44.375 146.734375 C 42.132812 145.449219 40.050781 144.097656 38.136719 142.714844 C 36.21875 141.335938 34.484375 139.910156 32.882812 138.527344 C 29.722656 135.714844 27.195312 132.976562 25.246094 130.601562 C 23.300781 128.222656 21.90625 126.230469 20.972656 124.859375 C 20.0625 123.464844 19.574219 122.722656 19.574219 122.722656 " fill-opacity="1" fill-rule="nonzero"/></g></svg>