<svg xmlns="http://www.w3.org/2000/svg" xmlns:xlink="http://www.w3.org/1999/xlink" width="500" zoomAndPan="magnify" viewBox="0 0 375 374.999991" height="500" preserveAspectRatio="xMidYMid meet" version="1.0"><defs><clipPath id="03a6867f5a"><path d="M 0 0.605469 L 374.394531 0.605469 L 374.394531 375 L 0 375 Z M 0 0.605469 " clip-rule="nonzero"/></clipPath><clipPath id="351c22b9ad"><path d="M 187.199219 0.605469 C 83.8125 0.605469 0 84.417969 0 187.800781 C 0 291.1875 83.8125 375 187.199219 375 C 290.582031 375 374.394531 291.1875 374.394531 187.800781 C 374.394531 84.417969 290.582031 0.605469 187.199219 0.605469 Z M 187.199219 0.605469 " clip-rule="nonzero"/></clipPath><clipPath id="b3328aefc1"><path d="M 88 125 L 287.644531 125 L 287.644531 250 L 88 250 Z M 88 125 " clip-rule="nonzero"/></clipPath><clipPath id="9da26c7834"><path d="M 104.964844 166.34375 L 161.519531 166.34375 L 161.519531 224.136719 L 104.964844 224.136719 Z M 104.964844 166.34375 " clip-rule="nonzero"/></clipPath><clipPath id="f227dbfc7e"><path d="M 161.398438 186.675781 C 161.476562 204.824219 159.300781 209.550781 156.601562 213.074219 C 153.824219 216.601562 149.773438 219.75 145.726562 221.550781 C 141.601562 223.425781 136.574219 224.324219 132.074219 224.101562 C 127.648438 223.800781 122.699219 222.300781 118.875 219.976562 C 115.050781 217.648438 111.449219 213.976562 109.125 210.148438 C 106.800781 206.324219 105.300781 201.449219 105 196.949219 C 104.773438 192.523438 105.675781 187.5 107.550781 183.375 C 109.351562 179.324219 112.5 175.273438 116.023438 172.5 C 119.550781 169.726562 124.273438 167.625 128.625 166.875 C 133.050781 166.050781 138.148438 166.351562 142.425781 167.699219 C 146.699219 168.976562 154.273438 174.824219 154.273438 174.824219 " clip-rule="nonzero"/></clipPath><clipPath id="4bf3f90f42"><path d="M 148 165.746094 L 204.71875 165.746094 L 204.71875 223.785156 L 148 223.785156 Z M 148 165.746094 " clip-rule="nonzero"/></clipPath><clipPath id="4a3863ed07"><path d="M 204.523438 186.074219 C 204.601562 204.300781 202.5 208.949219 199.726562 212.476562 C 196.949219 216 192.898438 219.148438 188.851562 221.023438 C 184.726562 222.824219 179.699219 223.800781 175.273438 223.5 C 170.773438 223.273438 165.898438 221.699219 162.074219 219.375 C 158.25 217.050781 154.574219 213.449219 152.25 209.625 C 150 205.800781 148.425781 200.925781 148.199219 196.425781 C 147.898438 192 148.800781 186.898438 150.675781 182.851562 C 152.476562 178.726562 155.699219 174.75 159.148438 171.976562 C 162.675781 169.199219 167.398438 167.101562 171.824219 166.273438 C 176.175781 165.449219 181.351562 165.824219 185.550781 167.101562 C 189.824219 168.449219 197.398438 174.300781 197.398438 174.300781 " clip-rule="nonzero"/></clipPath><clipPath id="16c278b56f"><path d="M 189.039062 163 L 245.59375 163 L 245.59375 221 L 189.039062 221 Z M 189.039062 163 " clip-rule="nonzero"/></clipPath><clipPath id="3206b55556"><path d="M 245.476562 183.300781 C 245.550781 201.523438 243.375 206.25 240.675781 209.699219 C 237.898438 213.226562 233.851562 216.449219 229.800781 218.25 C 225.675781 220.125 220.648438 221.023438 216.148438 220.726562 C 211.726562 220.5 206.773438 218.925781 202.949219 216.601562 C 199.125 214.351562 195.523438 210.675781 193.199219 206.851562 C 190.875 203.023438 189.375 198.148438 189.074219 193.648438 C 188.851562 189.226562 189.75 184.125 191.625 180.074219 C 193.425781 176.023438 196.574219 171.976562 200.101562 169.199219 C 203.625 166.425781 208.351562 164.324219 212.699219 163.5 C 217.125 162.75 222.226562 163.050781 226.5 164.324219 C 230.773438 165.675781 238.351562 171.523438 238.351562 171.523438 " clip-rule="nonzero"/></clipPath><clipPath id="469afc428e"><path d="M 193.464844 163 L 250 163 L 250 221 L 193.464844 221 Z M 193.464844 163 " clip-rule="nonzero"/></clipPath><clipPath id="e201d02b14"><path d="M 249.898438 183.300781 C 249.976562 201.523438 247.800781 206.25 245.101562 209.699219 C 242.324219 213.226562 238.273438 216.449219 234.226562 218.25 C 230.101562 220.125 225.074219 221.023438 220.574219 220.726562 C 216.148438 220.5 211.199219 218.925781 207.375 216.601562 C 203.550781 214.351562 199.949219 210.675781 197.625 206.851562 C 195.300781 203.023438 193.800781 198.148438 193.5 193.648438 C 193.273438 189.226562 194.175781 184.125 196.050781 180.074219 C 197.851562 176.023438 201 171.976562 204.523438 169.199219 C 208.050781 166.425781 212.773438 164.324219 217.125 163.5 C 221.550781 162.75 226.648438 163.050781 230.925781 164.324219 C 235.199219 165.675781 242.773438 171.523438 242.773438 171.523438 " clip-rule="nonzero"/></clipPath><clipPath id="753f26273d"><path d="M 120.242188 155.769531 L 177 155.769531 L 177 213.808594 L 120.242188 213.808594 Z M 120.242188 155.769531 " clip-rule="nonzero"/></clipPath><clipPath id="5e7dd094fe"><path d="M 176.925781 176.175781 C 176.925781 194.324219 174.824219 199.050781 172.050781 202.574219 C 169.273438 206.101562 165.300781 209.25 161.175781 211.050781 C 157.125 212.925781 152.023438 213.824219 147.601562 213.523438 C 143.101562 213.300781 138.226562 211.726562 134.398438 209.476562 C 130.574219 207.148438 126.976562 203.476562 124.648438 199.648438 C 122.324219 195.824219 120.75 190.949219 120.523438 186.449219 C 120.226562 182.023438 121.199219 176.925781 123 172.875 C 124.875 168.824219 128.023438 164.773438 131.550781 162 C 135.074219 159.226562 139.726562 157.125 144.148438 156.300781 C 148.5 155.550781 153.675781 155.851562 157.949219 157.199219 C 162.226562 158.476562 169.726562 164.324219 169.726562 164.324219 " clip-rule="nonzero"/></clipPath><clipPath id="a1b12c56d1"><path d="M 140.714844 149.695312 L 197.519531 149.695312 L 197.519531 207.734375 L 140.714844 207.734375 Z M 140.714844 149.695312 " clip-rule="nonzero"/></clipPath><clipPath id="c75c006d14"><path d="M 197.398438 170.023438 C 197.398438 188.25 195.300781 192.976562 192.523438 196.425781 C 189.75 199.949219 185.699219 203.175781 181.648438 204.976562 C 177.601562 206.851562 172.5 207.75 168.074219 207.449219 C 163.574219 207.226562 158.699219 205.648438 154.875 203.324219 C 151.050781 201.074219 147.375 197.398438 145.125 193.574219 C 142.800781 189.75 141.226562 184.875 141 180.375 C 140.699219 175.949219 141.601562 170.851562 143.476562 166.800781 C 145.273438 162.75 148.5 158.699219 152.023438 155.925781 C 155.550781 153.148438 160.199219 151.050781 164.625 150.226562 C 168.976562 149.476562 174.148438 149.773438 178.425781 151.050781 C 182.699219 152.398438 190.199219 158.25 190.199219 158.25 " clip-rule="nonzero"/></clipPath><clipPath id="b58d0a7ac8"><path d="M 157.292969 149.695312 L 214 149.695312 L 214 207.734375 L 157.292969 207.734375 Z M 157.292969 149.695312 " clip-rule="nonzero"/></clipPath><clipPath id="e099e6b71a"><path d="M 213.976562 170.023438 C 213.976562 188.25 211.875 192.976562 209.101562 196.425781 C 206.398438 199.949219 202.351562 203.175781 198.226562 204.976562 C 194.175781 206.851562 189.148438 207.75 184.648438 207.449219 C 180.148438 207.226562 175.273438 205.648438 171.449219 203.324219 C 167.625 201.074219 164.023438 197.398438 161.699219 193.574219 C 159.375 189.75 157.875 184.875 157.574219 180.375 C 157.273438 175.949219 158.25 170.851562 160.050781 166.800781 C 161.925781 162.75 165.074219 158.699219 168.601562 155.925781 C 172.125 153.148438 176.773438 151.050781 181.199219 150.226562 C 185.625 149.476562 190.726562 149.773438 195 151.050781 C 199.273438 152.398438 206.851562 158.25 206.851562 158.25 " clip-rule="nonzero"/></clipPath><clipPath id="9ddd7d08b1"><path d="M 140.363281 145.269531 L 196.921875 145.269531 L 196.921875 203.308594 L 140.363281 203.308594 Z M 140.363281 145.269531 " clip-rule="nonzero"/></clipPath><clipPath id="4b23faa970"><path d="M 196.800781 165.601562 C 196.875 183.824219 194.699219 188.550781 192 192 C 189.226562 195.523438 185.175781 198.75 181.125 200.550781 C 177 202.425781 171.976562 203.324219 167.476562 203.023438 C 163.050781 202.800781 158.101562 201.226562 154.273438 198.898438 C 150.449219 196.648438 146.851562 192.976562 144.523438 189.148438 C 142.199219 185.324219 140.699219 180.449219 140.398438 175.949219 C 140.175781 171.523438 141.074219 166.425781 142.949219 162.375 C 144.75 158.324219 147.898438 154.273438 151.425781 151.5 C 154.949219 148.726562 159.675781 146.625 164.023438 145.800781 C 168.449219 145.050781 173.550781 145.351562 177.824219 146.625 C 182.101562 147.976562 189.675781 153.824219 189.675781 153.824219 " clip-rule="nonzero"/></clipPath><clipPath id="984f565ffc"><path d="M 172.214844 153.59375 L 229 153.59375 L 229 211.632812 L 172.214844 211.632812 Z M 172.214844 153.59375 " clip-rule="nonzero"/></clipPath><clipPath id="f758c42653"><path d="M 228.898438 173.925781 C 228.898438 192.148438 226.800781 196.800781 224.023438 200.324219 C 221.324219 203.851562 217.273438 207 213.148438 208.875 C 209.101562 210.675781 204.074219 211.648438 199.574219 211.351562 C 195.148438 211.050781 190.199219 209.550781 186.375 207.226562 C 182.550781 204.898438 178.949219 201.300781 176.625 197.476562 C 174.300781 193.648438 172.800781 188.699219 172.5 184.273438 C 172.199219 179.773438 173.175781 174.75 174.976562 170.699219 C 176.851562 166.574219 180 162.523438 183.523438 159.824219 C 187.050781 157.050781 191.699219 154.949219 196.125 154.125 C 200.550781 153.300781 205.648438 153.601562 209.925781 154.949219 C 214.199219 156.300781 221.773438 162.074219 221.773438 162.074219 " clip-rule="nonzero"/></clipPath><clipPath id="9d9fa5e7db"><path d="M 165.261719 148.644531 L 221.820312 148.644531 L 221.820312 206.4375 L 165.261719 206.4375 Z M 165.261719 148.644531 " clip-rule="nonzero"/></clipPath><clipPath id="899103c6a2"><path d="M 221.699219 168.976562 C 221.699219 187.125 219.601562 191.851562 216.898438 195.375 C 214.125 198.898438 210.074219 202.050781 205.949219 203.851562 C 201.898438 205.726562 196.875 206.625 192.375 206.398438 C 187.949219 206.101562 183 204.601562 179.175781 202.273438 C 175.351562 199.949219 171.75 196.273438 169.425781 192.449219 C 167.101562 188.625 165.601562 183.75 165.300781 179.25 C 165.074219 174.824219 165.976562 169.800781 167.773438 165.675781 C 169.648438 161.625 172.800781 157.574219 176.324219 154.800781 C 179.851562 152.023438 184.5 149.925781 188.925781 149.175781 C 193.351562 148.351562 198.449219 148.648438 202.726562 150 C 207 151.273438 214.574219 157.125 214.574219 157.125 " clip-rule="nonzero"/></clipPath><clipPath id="5aa47e0730"><path d="M 177.765625 153.070312 L 234.570312 153.070312 L 234.570312 210.859375 L 177.765625 210.859375 Z M 177.765625 153.070312 " clip-rule="nonzero"/></clipPath><clipPath id="97f6bea415"><path d="M 234.449219 173.398438 C 234.449219 191.550781 232.351562 196.273438 229.574219 199.800781 C 226.800781 203.324219 222.75 206.476562 218.699219 208.273438 C 214.648438 210.148438 209.550781 211.050781 205.125 210.824219 C 200.625 210.523438 195.75 209.023438 191.925781 206.699219 C 188.101562 204.375 184.425781 200.699219 182.175781 196.875 C 179.851562 193.050781 178.273438 188.175781 178.050781 183.675781 C 177.75 179.25 178.726562 174.226562 180.523438 170.101562 C 182.398438 166.050781 185.550781 162 189.074219 159.226562 C 192.601562 156.449219 197.25 154.351562 201.675781 153.601562 C 206.023438 152.773438 211.199219 153.074219 215.476562 154.425781 C 219.75 155.699219 227.25 161.550781 227.25 161.550781 " clip-rule="nonzero"/></clipPath><clipPath id="7935185280"><path d="M 163.367188 182.917969 L 220.171875 182.917969 L 220.171875 240.710938 L 163.367188 240.710938 Z M 163.367188 182.917969 " clip-rule="nonzero"/></clipPath><clipPath id="6236b4c0da"><path d="M 220.050781 203.25 C 220.050781 221.476562 217.949219 226.125 215.175781 229.648438 C 212.476562 233.175781 208.425781 236.324219 204.300781 238.199219 C 200.25 240 195.226562 240.898438 190.726562 240.675781 C 186.300781 240.375 181.351562 238.875 177.523438 236.550781 C 173.699219 234.226562 170.101562 230.625 167.773438 226.800781 C 165.449219 222.976562 163.949219 218.023438 163.648438 213.601562 C 163.351562 209.101562 164.324219 204.074219 166.125 199.949219 C 168 195.898438 171.148438 191.851562 174.675781 189.074219 C 178.199219 186.375 182.851562 184.273438 187.273438 183.449219 C 191.699219 182.625 196.800781 182.925781 201.074219 184.273438 C 205.351562 185.625 212.925781 191.398438 212.925781 191.398438 " clip-rule="nonzero"/></clipPath><clipPath id="1cfcec244f"><path d="M 128.738281 179.019531 L 185.296875 179.019531 L 185.296875 237 L 128.738281 237 Z M 128.738281 179.019531 " clip-rule="nonzero"/></clipPath><clipPath id="1bb32f1c6c"><path d="M 185.175781 199.351562 C 185.25 217.574219 183.148438 222.226562 180.375 225.75 C 177.601562 229.273438 173.550781 232.425781 169.5 234.300781 C 165.375 236.101562 160.351562 237.074219 155.851562 236.773438 C 151.425781 236.550781 146.550781 234.976562 142.726562 232.648438 C 138.898438 230.324219 135.226562 226.726562 132.898438 222.898438 C 130.574219 219.074219 129.074219 214.199219 128.773438 209.699219 C 128.550781 205.273438 129.449219 200.175781 131.324219 196.125 C 133.125 192 136.273438 188.023438 139.800781 185.25 C 143.324219 182.476562 148.050781 180.375 152.398438 179.550781 C 156.824219 178.726562 161.925781 179.101562 166.199219 180.375 C 170.476562 181.726562 178.050781 187.574219 178.050781 187.574219 " clip-rule="nonzero"/></clipPath><clipPath id="eb132e5ae9"><path d="M 119.886719 178 L 176.445312 178 L 176.445312 235.933594 L 119.886719 235.933594 Z M 119.886719 178 " clip-rule="nonzero"/></clipPath><clipPath id="997e16bc4c"><path d="M 176.324219 198.300781 C 176.398438 216.449219 174.300781 221.175781 171.523438 224.699219 C 168.75 228.226562 164.699219 231.375 160.648438 233.175781 C 156.523438 235.050781 151.5 235.949219 147.074219 235.648438 C 142.574219 235.425781 137.699219 233.851562 133.875 231.601562 C 130.050781 229.273438 126.375 225.601562 124.050781 221.773438 C 121.726562 217.949219 120.226562 213.074219 119.925781 208.574219 C 119.699219 204.148438 120.601562 199.050781 122.476562 195 C 124.273438 190.949219 127.425781 186.898438 130.949219 184.125 C 134.476562 181.351562 139.199219 179.25 143.550781 178.425781 C 147.976562 177.675781 153.074219 177.976562 157.351562 179.324219 C 161.625 180.601562 169.199219 186.449219 169.199219 186.449219 " clip-rule="nonzero"/></clipPath><clipPath id="d7fda47a9f"><path d="M 143.136719 185.09375 L 199.695312 185.09375 L 199.695312 243 L 143.136719 243 Z M 143.136719 185.09375 " clip-rule="nonzero"/></clipPath><clipPath id="095d94c557"><path d="M 199.574219 205.425781 C 199.574219 223.648438 197.476562 228.300781 194.773438 231.824219 C 192 235.351562 187.949219 238.574219 183.824219 240.375 C 179.773438 242.25 174.75 243.148438 170.25 242.851562 C 165.824219 242.625 160.875 241.050781 157.050781 238.726562 C 153.226562 236.476562 149.625 232.800781 147.300781 228.976562 C 144.976562 225.148438 143.476562 220.273438 143.175781 215.773438 C 142.949219 211.351562 143.851562 206.25 145.648438 202.199219 C 147.523438 198.148438 150.675781 194.101562 154.199219 191.324219 C 157.726562 188.550781 162.449219 186.449219 166.800781 185.625 C 171.226562 184.875 176.324219 185.175781 180.601562 186.449219 C 184.875 187.800781 192.449219 193.648438 192.449219 193.648438 " clip-rule="nonzero"/></clipPath><clipPath id="61701eed21"><path d="M 174.464844 179.621094 L 231.269531 179.621094 L 231.269531 237.410156 L 174.464844 237.410156 Z M 174.464844 179.621094 " clip-rule="nonzero"/></clipPath><clipPath id="75c278cfbd"><path d="M 231.074219 199.949219 C 231.148438 218.101562 229.050781 222.824219 226.273438 226.351562 C 223.5 229.875 219.449219 233.023438 215.398438 234.824219 C 211.273438 236.699219 206.25 237.601562 201.824219 237.375 C 197.324219 237.074219 192.449219 235.574219 188.625 233.25 C 184.800781 230.925781 181.125 227.25 178.800781 223.425781 C 176.550781 219.601562 174.976562 214.726562 174.75 210.226562 C 174.449219 205.800781 175.351562 200.773438 177.226562 196.648438 C 179.023438 192.601562 182.25 188.550781 185.699219 185.773438 C 189.226562 183 193.949219 180.898438 198.375 180.148438 C 202.726562 179.324219 207.898438 179.625 212.101562 180.976562 C 216.375 182.25 223.949219 188.101562 223.949219 188.101562 " clip-rule="nonzero"/></clipPath><clipPath id="9246a026a2"><path d="M 180.542969 176.246094 L 237.34375 176.246094 L 237.34375 234.285156 L 180.542969 234.285156 Z M 180.542969 176.246094 " clip-rule="nonzero"/></clipPath><clipPath id="2a39278152"><path d="M 237.226562 196.574219 C 237.226562 214.800781 235.125 219.449219 232.351562 222.976562 C 229.574219 226.5 225.523438 229.726562 221.476562 231.523438 C 217.425781 233.398438 212.324219 234.300781 207.898438 234 C 203.398438 233.773438 198.523438 232.199219 194.699219 229.875 C 190.875 227.625 187.199219 223.949219 184.875 220.125 C 182.625 216.300781 181.050781 211.425781 180.824219 206.925781 C 180.523438 202.5 181.425781 197.398438 183.300781 193.351562 C 185.101562 189.300781 188.324219 185.25 191.851562 182.476562 C 195.375 179.699219 200.023438 177.601562 204.449219 176.773438 C 208.800781 176.023438 213.976562 176.324219 218.25 177.601562 C 222.523438 178.949219 230.023438 184.800781 230.023438 184.800781 " clip-rule="nonzero"/></clipPath><clipPath id="8a8ac9c88b"><path d="M 93.0625 181.601562 L 114.40625 181.601562 L 114.40625 203.382812 L 93.0625 203.382812 Z M 93.0625 181.601562 " clip-rule="nonzero"/></clipPath><clipPath id="e8848ef339"><path d="M 114.375 189.226562 C 114.375 196.125 113.550781 197.851562 112.574219 199.199219 C 111.523438 200.476562 109.949219 201.675781 108.449219 202.425781 C 106.875 203.101562 105 203.398438 103.351562 203.324219 C 101.625 203.25 99.824219 202.648438 98.324219 201.75 C 96.898438 200.925781 95.550781 199.574219 94.648438 198.074219 C 93.824219 196.648438 93.226562 194.851562 93.148438 193.125 C 93 191.476562 93.375 189.523438 94.050781 188.023438 C 94.726562 186.449219 95.925781 184.949219 97.273438 183.898438 C 98.625 182.851562 100.351562 182.101562 102 181.800781 C 103.648438 181.5 105.601562 181.574219 107.25 182.101562 C 108.824219 182.625 111.675781 184.800781 111.675781 184.800781 " clip-rule="nonzero"/></clipPath><clipPath id="828239076f"><path d="M 96.359375 186.554688 L 117.707031 186.554688 L 117.707031 208.332031 L 96.359375 208.332031 Z M 96.359375 186.554688 " clip-rule="nonzero"/></clipPath><clipPath id="24485f3e24"><path d="M 117.675781 194.25 C 117.675781 201.074219 116.925781 202.800781 115.875 204.148438 C 114.824219 205.5 113.324219 206.699219 111.75 207.375 C 110.25 208.050781 108.300781 208.425781 106.648438 208.273438 C 104.925781 208.199219 103.125 207.601562 101.699219 206.773438 C 100.199219 205.875 98.851562 204.523438 98.023438 203.101562 C 97.125 201.675781 96.523438 199.800781 96.449219 198.074219 C 96.375 196.425781 96.675781 194.550781 97.351562 192.976562 C 98.101562 191.476562 99.300781 189.898438 100.574219 188.925781 C 101.925781 187.875 103.648438 187.050781 105.375 186.75 C 107.023438 186.449219 108.898438 186.601562 110.550781 187.050781 C 112.125 187.574219 114.976562 189.75 114.976562 189.75 " clip-rule="nonzero"/></clipPath><clipPath id="a883ea753f"><path d="M 99.660156 176.578125 L 121 176.578125 L 121 198.464844 L 99.660156 198.464844 Z M 99.660156 176.578125 " clip-rule="nonzero"/></clipPath><clipPath id="3697afe18e"><path d="M 120.976562 184.273438 C 121.050781 191.101562 120.226562 192.898438 119.175781 194.175781 C 118.125 195.523438 116.625 196.726562 115.050781 197.398438 C 113.550781 198.074219 111.675781 198.449219 109.949219 198.375 C 108.300781 198.226562 106.425781 197.699219 105 196.800781 C 103.574219 195.898438 102.148438 194.550781 101.324219 193.125 C 100.425781 191.699219 99.898438 189.824219 99.75 188.175781 C 99.675781 186.449219 99.976562 184.574219 100.726562 183 C 101.398438 181.5 102.601562 180 103.949219 178.949219 C 105.226562 177.898438 107.023438 177.074219 108.675781 176.773438 C 110.324219 176.476562 112.273438 176.625 113.851562 177.148438 C 115.5 177.601562 118.273438 179.773438 118.273438 179.773438 " clip-rule="nonzero"/></clipPath><clipPath id="5d909cdd6c"><path d="M 162.210938 137.878906 L 183.558594 137.878906 L 183.558594 159.765625 L 162.210938 159.765625 Z M 162.210938 137.878906 " clip-rule="nonzero"/></clipPath><clipPath id="868bf6bdfc"><path d="M 183.523438 145.574219 C 183.523438 152.398438 182.699219 154.199219 181.648438 155.476562 C 180.675781 156.824219 179.101562 158.023438 177.601562 158.699219 C 176.023438 159.375 174.148438 159.75 172.425781 159.675781 C 170.773438 159.523438 168.898438 158.925781 167.476562 158.101562 C 166.050781 157.199219 164.699219 155.851562 163.800781 154.425781 C 162.976562 153 162.375 151.125 162.300781 149.476562 C 162.148438 147.75 162.523438 145.875 163.199219 144.300781 C 163.875 142.800781 165.074219 141.226562 166.425781 140.25 C 167.773438 139.199219 169.5 138.375 171.148438 138.074219 C 172.800781 137.773438 174.75 137.925781 176.324219 138.375 C 177.976562 138.898438 180.824219 141.074219 180.824219 141.074219 " clip-rule="nonzero"/></clipPath><clipPath id="a29a2d635f"><path d="M 168.8125 137.351562 L 190.15625 137.351562 L 190.15625 159.132812 L 168.8125 159.132812 Z M 168.8125 137.351562 " clip-rule="nonzero"/></clipPath><clipPath id="85024f8d7f"><path d="M 190.125 144.976562 C 190.125 151.875 189.375 153.601562 188.324219 154.949219 C 187.273438 156.300781 185.773438 157.425781 184.199219 158.175781 C 182.699219 158.851562 180.75 159.148438 179.101562 159.074219 C 177.449219 159 175.574219 158.398438 174.148438 157.5 C 172.726562 156.675781 171.300781 155.324219 170.476562 153.824219 C 169.574219 152.398438 168.976562 150.601562 168.898438 148.875 C 168.824219 147.226562 169.125 145.273438 169.875 143.773438 C 170.550781 142.199219 171.75 140.699219 173.023438 139.648438 C 174.375 138.601562 176.175781 137.851562 177.824219 137.550781 C 179.476562 137.25 181.351562 137.324219 183 137.851562 C 184.574219 138.375 187.425781 140.550781 187.425781 140.550781 " clip-rule="nonzero"/></clipPath><clipPath id="c08c79818e"><path d="M 195.886719 221.953125 L 217.339844 221.953125 L 217.339844 243.730469 L 195.886719 243.730469 Z M 195.886719 221.953125 " clip-rule="nonzero"/></clipPath><clipPath id="b8db7eb9ad"><path d="M 217.273438 229.648438 C 217.273438 236.476562 216.449219 238.199219 215.398438 239.550781 C 214.351562 240.898438 212.851562 242.101562 211.351562 242.773438 C 209.773438 243.449219 207.898438 243.824219 206.175781 243.675781 C 204.523438 243.601562 202.648438 243 201.226562 242.175781 C 199.800781 241.273438 198.449219 239.925781 197.550781 238.5 C 196.648438 237 196.125 235.199219 195.976562 233.476562 C 195.898438 231.824219 196.273438 229.949219 196.949219 228.375 C 197.625 226.875 198.824219 225.300781 200.175781 224.324219 C 201.449219 223.273438 203.25 222.449219 204.898438 222.148438 C 206.550781 221.851562 208.5 222 210.074219 222.449219 C 211.726562 222.976562 214.574219 225.148438 214.574219 225.148438 " clip-rule="nonzero"/></clipPath><clipPath id="3c01e6577b"><path d="M 236.835938 183.777344 L 258.183594 183.777344 L 258.183594 205.664062 L 236.835938 205.664062 Z M 236.835938 183.777344 " clip-rule="nonzero"/></clipPath><clipPath id="157391e317"><path d="M 258.148438 191.476562 C 258.148438 198.300781 257.398438 200.101562 256.351562 201.375 C 255.300781 202.726562 253.800781 203.925781 252.226562 204.601562 C 250.726562 205.273438 248.773438 205.648438 247.125 205.574219 C 245.476562 205.425781 243.601562 204.898438 242.175781 204 C 240.75 203.101562 239.324219 201.75 238.5 200.324219 C 237.601562 198.898438 237 197.023438 236.925781 195.375 C 236.851562 193.648438 237.148438 191.773438 237.898438 190.199219 C 238.574219 188.699219 239.773438 187.199219 241.050781 186.148438 C 242.398438 185.101562 244.199219 184.273438 245.851562 183.976562 C 247.5 183.675781 249.449219 183.824219 251.023438 184.273438 C 252.601562 184.800781 255.449219 186.976562 255.449219 186.976562 " clip-rule="nonzero"/></clipPath><clipPath id="0010ae328c"><path d="M 240.734375 180.476562 L 262.082031 180.476562 L 262.082031 202.257812 L 240.734375 202.257812 Z M 240.734375 180.476562 " clip-rule="nonzero"/></clipPath><clipPath id="64d803821c"><path d="M 262.050781 188.101562 C 262.050781 195 261.226562 196.726562 260.25 198.074219 C 259.199219 199.425781 257.625 200.625 256.125 201.300781 C 254.550781 201.976562 252.675781 202.351562 251.023438 202.199219 C 249.300781 202.125 247.5 201.523438 246 200.699219 C 244.574219 199.800781 243.226562 198.449219 242.324219 197.023438 C 241.5 195.523438 240.898438 193.726562 240.824219 192 C 240.675781 190.351562 241.050781 188.476562 241.726562 186.898438 C 242.398438 185.398438 243.601562 183.824219 244.949219 182.773438 C 246.300781 181.800781 248.023438 180.976562 249.675781 180.675781 C 251.324219 180.375 253.273438 180.523438 254.925781 180.976562 C 256.5 181.5 259.351562 183.675781 259.351562 183.675781 " clip-rule="nonzero"/></clipPath><clipPath id="7564be7699"><path d="M 253.410156 178.828125 L 274.867188 178.828125 L 274.867188 200.605469 L 253.410156 200.605469 Z M 253.410156 178.828125 " clip-rule="nonzero"/></clipPath><clipPath id="795556213f"><path d="M 274.800781 186.449219 C 274.800781 193.351562 273.976562 195.074219 272.925781 196.425781 C 271.875 197.773438 270.375 198.976562 268.875 199.648438 C 267.300781 200.324219 265.425781 200.699219 263.699219 200.550781 C 262.050781 200.476562 260.175781 199.875 258.75 199.050781 C 257.324219 198.148438 255.976562 196.800781 255.074219 195.300781 C 254.175781 193.875 253.648438 192.074219 253.5 190.351562 C 253.425781 188.699219 253.800781 186.75 254.476562 185.25 C 255.148438 183.675781 256.351562 182.175781 257.699219 181.125 C 258.976562 180.074219 260.773438 179.324219 262.425781 179.023438 C 264.074219 178.726562 266.023438 178.800781 267.601562 179.324219 C 269.25 179.851562 272.101562 182.023438 272.101562 182.023438 " clip-rule="nonzero"/></clipPath><clipPath id="0951facf6f"><path d="M 253.410156 171.628906 L 274.867188 171.628906 L 274.867188 193.40625 L 253.410156 193.40625 Z M 253.410156 171.628906 " clip-rule="nonzero"/></clipPath><clipPath id="fb02207541"><path d="M 274.800781 179.25 C 274.800781 186.148438 273.976562 187.875 272.925781 189.226562 C 271.875 190.574219 270.375 191.773438 268.875 192.449219 C 267.300781 193.125 265.425781 193.5 263.699219 193.351562 C 262.050781 193.273438 260.175781 192.675781 258.75 191.851562 C 257.324219 190.949219 255.976562 189.601562 255.074219 188.175781 C 254.175781 186.675781 253.648438 184.875 253.5 183.148438 C 253.425781 181.5 253.800781 179.625 254.476562 178.050781 C 255.148438 176.550781 256.351562 174.976562 257.699219 173.925781 C 258.976562 172.949219 260.773438 172.125 262.425781 171.824219 C 264.074219 171.523438 266.023438 171.675781 267.601562 172.125 C 269.25 172.648438 272.101562 174.824219 272.101562 174.824219 " clip-rule="nonzero"/></clipPath><clipPath id="b59cc73aa6"><path d="M 255.0625 167.203125 L 276.515625 167.203125 L 276.515625 188.980469 L 255.0625 188.980469 Z M 255.0625 167.203125 " clip-rule="nonzero"/></clipPath><clipPath id="b30141a4d6"><path d="M 276.449219 174.824219 C 276.449219 181.726562 275.625 183.449219 274.574219 184.800781 C 273.523438 186.148438 272.023438 187.351562 270.523438 188.023438 C 268.949219 188.699219 267.074219 189.074219 265.351562 188.925781 C 263.699219 188.851562 261.824219 188.25 260.398438 187.425781 C 258.976562 186.523438 257.625 185.175781 256.726562 183.75 C 255.824219 182.25 255.300781 180.449219 255.148438 178.726562 C 255.074219 177.074219 255.449219 175.199219 256.125 173.625 C 256.800781 172.125 258 170.550781 259.351562 169.5 C 260.625 168.523438 262.425781 167.699219 264.074219 167.398438 C 265.726562 167.101562 267.675781 167.25 269.25 167.699219 C 270.898438 168.226562 273.75 170.398438 273.75 170.398438 " clip-rule="nonzero"/></clipPath><clipPath id="6f8591edb6"><path d="M 257.3125 161.128906 L 278.65625 161.128906 L 278.65625 182.90625 L 257.3125 182.90625 Z M 257.3125 161.128906 " clip-rule="nonzero"/></clipPath><clipPath id="ff4d038542"><path d="M 278.625 168.75 C 278.625 175.648438 277.875 177.375 276.824219 178.726562 C 275.773438 180.074219 274.273438 181.273438 272.699219 181.949219 C 271.199219 182.625 269.25 183 267.601562 182.851562 C 265.949219 182.773438 264.074219 182.175781 262.648438 181.351562 C 261.148438 180.449219 259.800781 179.101562 258.976562 177.675781 C 258.074219 176.175781 257.476562 174.375 257.398438 172.648438 C 257.324219 171 257.625 169.050781 258.300781 167.550781 C 259.050781 166.050781 260.25 164.476562 261.523438 163.425781 C 262.875 162.449219 264.601562 161.625 266.324219 161.324219 C 267.976562 161.023438 269.851562 161.101562 271.5 161.625 C 273.074219 162.148438 275.925781 164.324219 275.925781 164.324219 " clip-rule="nonzero"/></clipPath><clipPath id="6442ecdaa6"><path d="M 251.761719 195.402344 L 273.109375 195.402344 L 273.109375 217.179688 L 251.761719 217.179688 Z M 251.761719 195.402344 " clip-rule="nonzero"/></clipPath><clipPath id="fef48897e8"><path d="M 273.074219 203.101562 C 273.148438 209.925781 272.324219 211.648438 271.273438 213 C 270.226562 214.351562 268.726562 215.550781 267.148438 216.226562 C 265.648438 216.898438 263.773438 217.273438 262.050781 217.125 C 260.398438 217.050781 258.523438 216.449219 257.101562 215.625 C 255.675781 214.726562 254.25 213.375 253.425781 211.949219 C 252.523438 210.523438 252 208.648438 251.851562 206.925781 C 251.773438 205.273438 252.148438 203.398438 252.824219 201.824219 C 253.5 200.324219 254.699219 198.75 256.050781 197.773438 C 257.324219 196.726562 259.125 195.898438 260.773438 195.601562 C 262.425781 195.300781 264.375 195.449219 265.949219 195.898438 C 267.601562 196.425781 270.449219 198.601562 270.449219 198.601562 " clip-rule="nonzero"/></clipPath><clipPath id="43d9964945"><path d="M 253.410156 199.828125 L 274.867188 199.828125 L 274.867188 221.605469 L 253.410156 221.605469 Z M 253.410156 199.828125 " clip-rule="nonzero"/></clipPath><clipPath id="be66267481"><path d="M 274.800781 207.523438 C 274.800781 214.351562 273.976562 216.074219 272.925781 217.425781 C 271.875 218.773438 270.375 219.976562 268.875 220.648438 C 267.300781 221.324219 265.425781 221.699219 263.699219 221.550781 C 262.050781 221.476562 260.175781 220.875 258.75 220.050781 C 257.324219 219.148438 255.976562 217.800781 255.074219 216.375 C 254.175781 214.949219 253.648438 213.074219 253.5 211.351562 C 253.425781 209.699219 253.800781 207.824219 254.476562 206.25 C 255.148438 204.75 256.351562 203.175781 257.699219 202.199219 C 258.976562 201.148438 260.773438 200.324219 262.425781 200.023438 C 264.074219 199.726562 266.023438 199.875 267.601562 200.324219 C 269.25 200.851562 272.101562 203.023438 272.101562 203.023438 " clip-rule="nonzero"/></clipPath><clipPath id="933755341b"><path d="M 253.410156 188.203125 L 274.867188 188.203125 L 274.867188 210.089844 L 253.410156 210.089844 Z M 253.410156 188.203125 " clip-rule="nonzero"/></clipPath><clipPath id="ba53e224f6"><path d="M 274.800781 195.898438 C 274.800781 202.726562 273.976562 204.523438 272.925781 205.800781 C 271.875 207.148438 270.375 208.351562 268.875 209.023438 C 267.300781 209.699219 265.425781 210.074219 263.699219 210 C 262.050781 209.851562 260.175781 209.324219 258.75 208.425781 C 257.324219 207.523438 255.976562 206.175781 255.074219 204.75 C 254.175781 203.324219 253.648438 201.449219 253.5 199.800781 C 253.425781 198.074219 253.800781 196.199219 254.476562 194.625 C 255.148438 193.125 256.351562 191.625 257.699219 190.574219 C 258.976562 189.523438 260.773438 188.699219 262.425781 188.398438 C 264.074219 188.101562 266.023438 188.25 267.601562 188.699219 C 269.25 189.226562 272.101562 191.398438 272.101562 191.398438 " clip-rule="nonzero"/></clipPath><clipPath id="84d14bf5c9"><path d="M 272.234375 155.980469 L 278.722656 155.980469 L 278.722656 162.511719 L 272.234375 162.511719 Z M 272.234375 155.980469 " clip-rule="nonzero"/></clipPath><clipPath id="8c0e1a9ed4"><path d="M 278.699219 158.324219 C 277.800781 161.851562 277.351562 162.226562 276.824219 162.375 C 276.074219 162.601562 274.425781 162.523438 273.675781 162.148438 C 273.148438 161.925781 272.773438 161.550781 272.550781 161.023438 C 272.25 160.273438 272.101562 158.699219 272.398438 157.875 C 272.550781 157.351562 272.925781 156.976562 273.375 156.601562 C 273.75 156.300781 274.273438 156 274.800781 156 C 275.625 155.925781 277.800781 156.898438 277.800781 156.898438 " clip-rule="nonzero"/></clipPath><clipPath id="e8c2f183dc"><path d="M 265.328125 151.480469 L 281.082031 151.480469 L 281.082031 165.246094 L 265.328125 165.246094 Z M 265.328125 151.480469 " clip-rule="nonzero"/></clipPath><clipPath id="4226999e64"><path d="M 278.699219 158.101562 C 272.25 160.351562 272.398438 163.199219 271.648438 164.101562 C 271.273438 164.625 270.824219 164.851562 270.300781 165.074219 C 269.625 165.226562 268.574219 165.226562 267.898438 165 C 267.375 164.851562 266.925781 164.550781 266.625 164.101562 C 266.175781 163.574219 265.574219 162.675781 265.726562 161.851562 C 265.949219 160.800781 267.675781 159.226562 268.800781 158.324219 C 269.851562 157.425781 270.976562 156.601562 272.25 156.300781 C 273.675781 155.851562 275.925781 155.773438 277.050781 156.300781 C 277.875 156.601562 278.398438 157.425781 278.699219 158.023438 C 278.925781 158.550781 279 159.074219 278.925781 159.601562 C 278.851562 160.273438 278.476562 161.25 277.875 161.773438 C 277.351562 162.300781 275.699219 162.75 275.699219 162.675781 C 275.625 162.601562 277.5 161.324219 277.648438 161.476562 C 277.800781 161.550781 277.273438 162.898438 276.675781 163.351562 C 276 163.949219 274.5 164.398438 273.675781 164.25 C 272.925781 164.175781 272.25 163.726562 271.800781 163.199219 C 271.351562 162.675781 270.976562 161.925781 270.976562 161.175781 C 270.976562 160.273438 271.5 158.851562 272.25 158.324219 C 273 157.726562 274.5 157.574219 275.398438 157.726562 C 276.074219 157.875 276.675781 158.476562 277.125 159 C 277.5 159.601562 277.800781 160.351562 277.726562 161.101562 C 277.574219 161.925781 276.824219 163.273438 276.148438 163.800781 C 275.550781 164.25 274.726562 164.398438 274.050781 164.324219 C 273.375 164.25 272.550781 163.949219 272.023438 163.425781 C 271.425781 162.824219 270.75 161.476562 270.976562 160.425781 C 271.351562 159 274.125 156.148438 275.476562 155.925781 C 276.449219 155.773438 277.726562 156.601562 278.324219 157.273438 C 278.773438 157.875 279 158.925781 278.925781 159.601562 C 278.925781 160.199219 278.773438 160.648438 278.398438 161.101562 C 278.023438 161.699219 277.273438 162.300781 276.449219 162.523438 C 275.625 162.824219 274.5 162.226562 273.523438 162.523438 C 272.476562 162.898438 270.601562 165 270.449219 164.851562 C 270.300781 164.699219 272.324219 161.851562 272.476562 161.925781 C 272.625 161.925781 272.398438 162.976562 272.101562 163.425781 C 271.726562 164.023438 271.050781 164.773438 270.300781 165.074219 C 269.476562 165.300781 267.976562 165.148438 267.226562 164.625 C 266.550781 164.25 266.175781 163.5 265.875 162.675781 C 265.425781 161.550781 265.273438 159.75 265.5 158.398438 C 265.800781 157.125 266.550781 155.773438 267.375 154.875 C 268.199219 154.050781 269.101562 153.601562 270.375 153.148438 C 272.175781 152.398438 275.699219 151.425781 277.351562 151.5 C 278.398438 151.5 279.074219 151.800781 279.675781 152.175781 C 280.125 152.476562 280.5 152.925781 280.726562 153.449219 C 280.949219 154.050781 281.175781 155.101562 280.875 155.773438 C 280.574219 156.675781 278.699219 158.101562 278.699219 158.101562 " clip-rule="nonzero"/></clipPath><clipPath id="bc8e6a2bb3"><path d="M 252.648438 206.761719 L 262.226562 206.761719 L 262.226562 219.617188 L 252.648438 219.617188 Z M 252.648438 206.761719 " clip-rule="nonzero"/></clipPath><clipPath id="bd3ec096e2"><path d="M 255.523438 216.824219 C 254.625 212.699219 253.648438 212.625 253.273438 212.023438 C 252.898438 211.5 252.675781 210.675781 252.75 209.925781 C 252.75 209.25 253.125 208.5 253.5 207.976562 C 253.949219 207.449219 254.699219 207 255.375 206.851562 C 256.050781 206.699219 256.949219 206.851562 257.550781 207.148438 C 258.148438 207.449219 258.824219 207.976562 259.050781 208.648438 C 259.425781 209.398438 259.5 210.976562 259.050781 211.800781 C 258.601562 212.625 257.324219 213.449219 256.425781 213.523438 C 255.523438 213.601562 254.101562 212.925781 253.5 212.324219 C 252.976562 211.800781 252.75 210.976562 252.675781 210.300781 C 252.675781 209.625 252.898438 208.800781 253.273438 208.273438 C 253.726562 207.675781 254.398438 207.148438 255.074219 207 C 255.675781 206.773438 256.5 206.699219 257.175781 207 C 258.074219 207.375 258.898438 208.425781 259.648438 209.550781 C 260.625 211.125 262.125 214.050781 262.199219 215.699219 C 262.199219 216.898438 261.824219 218.023438 261.226562 218.699219 C 260.699219 219.226562 259.726562 219.601562 258.976562 219.601562 C 258.226562 219.675781 257.324219 219.375 256.726562 218.851562 C 256.125 218.398438 255.523438 216.824219 255.523438 216.824219 " clip-rule="nonzero"/></clipPath><clipPath id="863ca3043b"><path d="M 258.816406 205.605469 L 281.296875 205.605469 L 281.296875 237.496094 L 258.816406 237.496094 Z M 258.816406 205.605469 " clip-rule="nonzero"/></clipPath><clipPath id="0ef5c85a20"><path d="M 267.074219 229.5 C 267.898438 218.625 268.574219 218.175781 269.25 217.949219 C 270 217.648438 270.976562 217.648438 271.648438 217.949219 C 272.476562 218.324219 273.300781 219.148438 273.75 220.273438 C 274.425781 222.148438 272.699219 226.425781 273.824219 228.601562 C 275.023438 230.625 280.875 232.351562 280.648438 232.949219 C 280.574219 233.324219 277.199219 232.125 276.449219 232.800781 C 275.773438 233.476562 276.75 236.324219 276.300781 236.476562 C 275.851562 236.699219 274.351562 234.601562 273.601562 233.476562 C 272.925781 232.425781 272.476562 231.601562 272.101562 230.101562 C 271.425781 227.550781 270.226562 220.875 271.5 218.925781 C 272.324219 217.726562 274.949219 216.824219 275.625 217.351562 C 276.523438 218.101562 275.175781 223.574219 274.351562 225.75 C 273.824219 227.25 273.226562 228.824219 272.023438 229.425781 C 270.601562 230.101562 267.375 229.5 266.023438 228.675781 C 264.898438 228 264.226562 226.574219 263.851562 225.449219 C 263.476562 224.25 263.476562 222.824219 263.773438 221.625 C 264.074219 220.425781 264.976562 218.101562 265.5 218.175781 C 265.949219 218.175781 266.925781 221.324219 266.550781 221.550781 C 266.25 221.851562 264.300781 220.574219 263.476562 219.75 C 262.574219 219 262.050781 218.101562 261.449219 216.824219 C 260.476562 214.949219 258.75 211.199219 258.824219 209.324219 C 258.824219 208.125 259.351562 207 260.101562 206.398438 C 260.773438 205.875 262.273438 205.574219 263.175781 205.875 C 264.074219 206.101562 265.125 207.226562 265.425781 208.125 C 265.648438 209.023438 265.351562 210.449219 264.75 211.199219 C 264.226562 211.949219 262.800781 212.550781 261.898438 212.398438 C 260.925781 212.324219 259.648438 211.5 259.199219 210.675781 C 258.75 209.925781 258.824219 208.351562 259.125 207.523438 C 259.425781 206.851562 260.101562 206.324219 260.699219 206.023438 C 261.300781 205.726562 262.125 205.574219 262.800781 205.726562 C 263.699219 206.023438 264.824219 206.925781 265.273438 207.75 C 265.800781 208.648438 265.351562 209.699219 265.800781 210.898438 C 266.476562 212.773438 269.023438 215.773438 269.773438 217.800781 C 270.300781 219.226562 270.523438 220.425781 270.523438 221.699219 C 270.523438 222.976562 270.523438 224.625 269.773438 225.601562 C 268.875 226.574219 266.773438 227.398438 265.425781 227.324219 C 264.226562 227.324219 263.023438 226.800781 262.050781 225.824219 C 260.699219 224.476562 258.824219 220.875 259.050781 219.074219 C 259.199219 217.726562 260.398438 216.226562 261.523438 215.699219 C 262.574219 215.101562 264.449219 215.324219 265.726562 215.773438 C 267 216.148438 268.273438 216.976562 269.023438 217.875 C 269.851562 218.773438 270.226562 219.976562 270.523438 221.101562 C 270.824219 222.226562 271.199219 224.324219 270.75 224.625 C 270.300781 224.925781 268.273438 223.875 267.824219 222.824219 C 267.148438 221.25 268.5 217.050781 269.476562 215.25 C 270.074219 213.976562 270.898438 212.925781 271.949219 212.476562 C 273 211.949219 274.800781 211.800781 275.773438 212.476562 C 276.976562 213.148438 277.800781 215.175781 278.25 217.199219 C 279 220.199219 277.425781 226.125 278.25 228.824219 C 278.851562 230.625 280.726562 231.300781 281.101562 232.726562 C 281.398438 234.074219 281.324219 236.398438 280.5 237.074219 C 279.601562 237.824219 277.273438 237.226562 275.625 236.625 C 273.449219 235.949219 270.300781 234.300781 268.875 232.648438 C 267.824219 231.449219 267.449219 230.25 267.074219 228.601562 C 266.625 226.351562 266.625 222.074219 267.226562 220.273438 C 267.523438 219.375 267.898438 218.773438 268.574219 218.324219 C 269.175781 217.875 270.148438 217.648438 270.898438 217.726562 C 271.574219 217.875 272.476562 218.398438 273 218.851562 C 273.375 219.300781 273.601562 219.601562 273.75 220.273438 C 274.199219 222.074219 274.351562 228.375 273.75 230.324219 C 273.449219 231.300781 273 231.898438 272.398438 232.351562 C 271.800781 232.726562 270.824219 232.949219 270.074219 232.875 C 269.324219 232.800781 268.425781 232.351562 267.976562 231.75 C 267.449219 231.226562 267.074219 229.5 267.074219 229.5 " clip-rule="nonzero"/></clipPath><clipPath id="1fa50de1ce"><path d="M 211.886719 237.832031 L 218.421875 237.832031 L 218.421875 244.558594 L 211.886719 244.558594 Z M 211.886719 237.832031 " clip-rule="nonzero"/></clipPath><clipPath id="4d5178519d"><path d="M 218.398438 240.148438 C 217.5 243.75 217.050781 244.050781 216.523438 244.199219 C 216.074219 244.425781 215.550781 244.648438 214.949219 244.5 C 214.125 244.351562 212.773438 243.675781 212.25 242.925781 C 211.800781 242.101562 211.800781 240.523438 212.101562 239.773438 C 212.25 239.175781 212.550781 238.800781 213.074219 238.5 C 213.75 238.050781 215.324219 237.75 216.148438 237.898438 C 216.75 238.050781 217.574219 238.800781 217.574219 238.800781 " clip-rule="nonzero"/></clipPath><clipPath id="c591a592c8"><path d="M 174.730469 135.003906 L 181.359375 135.003906 L 181.359375 141.539062 L 174.730469 141.539062 Z M 174.730469 135.003906 " clip-rule="nonzero"/></clipPath><clipPath id="d07380c64e"><path d="M 181.351562 137.25 C 180.449219 140.851562 180.074219 141.148438 179.476562 141.375 C 178.726562 141.601562 177.074219 141.523438 176.324219 141.148438 C 175.800781 140.925781 175.5 140.476562 175.199219 140.023438 C 174.976562 139.574219 174.675781 139.050781 174.75 138.449219 C 174.75 137.625 175.273438 136.199219 176.023438 135.601562 C 176.773438 135.074219 178.273438 134.925781 179.101562 135.074219 C 179.699219 135.148438 180.449219 135.898438 180.449219 135.898438 " clip-rule="nonzero"/></clipPath><clipPath id="71a6000552"><path d="M 179.152344 134.40625 L 185.785156 134.40625 L 185.785156 140.941406 L 179.152344 140.941406 Z M 179.152344 134.40625 " clip-rule="nonzero"/></clipPath><clipPath id="be1d80ea91"><path d="M 185.773438 136.726562 C 184.875 140.324219 184.5 140.625 183.898438 140.773438 C 183.148438 141.074219 181.5 140.925781 180.75 140.625 C 180.226562 140.398438 179.925781 139.949219 179.625 139.5 C 179.398438 139.050781 179.101562 138.523438 179.175781 137.925781 C 179.175781 137.101562 179.699219 135.601562 180.449219 135.074219 C 181.199219 134.476562 182.699219 134.324219 183.523438 134.476562 C 184.125 134.625 184.875 135.300781 184.875 135.300781 " clip-rule="nonzero"/></clipPath><clipPath id="4d25821cef"><path d="M 182.453125 134.40625 L 189.085938 134.40625 L 189.085938 140.941406 L 182.453125 140.941406 Z M 182.453125 134.40625 " clip-rule="nonzero"/></clipPath><clipPath id="518033de0d"><path d="M 189.074219 136.726562 C 188.175781 140.324219 187.800781 140.625 187.199219 140.773438 C 186.449219 141.074219 184.875 140.925781 184.125 140.625 C 183.523438 140.398438 183.226562 139.949219 182.925781 139.5 C 182.699219 139.050781 182.398438 138.523438 182.476562 137.925781 C 182.550781 137.101562 183 135.601562 183.75 135.074219 C 184.5 134.476562 186.074219 134.324219 186.824219 134.476562 C 187.425781 134.625 188.25 135.300781 188.25 135.300781 " clip-rule="nonzero"/></clipPath><clipPath id="1343fc5659"><path d="M 184.617188 131.066406 L 191.277344 131.066406 L 191.277344 137.632812 L 184.617188 137.632812 Z M 184.617188 131.066406 " clip-rule="nonzero"/></clipPath><clipPath id="a7bf753d92"><path d="M 191.25 133.425781 C 190.425781 136.949219 189.976562 137.324219 189.449219 137.476562 C 188.625 137.699219 187.050781 137.625 186.300781 137.324219 C 185.773438 137.023438 185.398438 136.574219 185.175781 136.125 C 184.875 135.675781 184.648438 135.226562 184.648438 134.625 C 184.726562 133.800781 185.398438 132.300781 186 131.773438 C 186.375 131.324219 186.824219 131.101562 187.425781 131.101562 C 188.25 131.023438 190.425781 132 190.425781 132 " clip-rule="nonzero"/></clipPath><clipPath id="a936cb8703"><path d="M 184.628906 136.054688 L 191.257812 136.054688 L 191.257812 142.589844 L 184.628906 142.589844 Z M 184.628906 136.054688 " clip-rule="nonzero"/></clipPath><clipPath id="fb85929c25"><path d="M 191.25 138.375 C 190.425781 141.976562 189.976562 142.273438 189.449219 142.425781 C 188.625 142.726562 187.050781 142.574219 186.300781 142.273438 C 185.773438 142.050781 185.398438 141.601562 185.175781 141.148438 C 184.875 140.699219 184.648438 140.175781 184.648438 139.574219 C 184.726562 138.75 185.25 137.324219 186 136.726562 C 186.675781 136.125 188.25 135.976562 189.074219 136.125 C 189.601562 136.273438 190.425781 137.023438 190.425781 137.023438 " clip-rule="nonzero"/></clipPath><clipPath id="790df0ff48"><path d="M 181.929688 131.628906 L 188.511719 131.628906 L 188.511719 138.164062 L 181.929688 138.164062 Z M 181.929688 131.628906 " clip-rule="nonzero"/></clipPath><clipPath id="64799324af"><path d="M 188.476562 133.949219 C 187.648438 137.550781 187.199219 137.851562 186.675781 138 C 185.925781 138.300781 184.273438 138.148438 183.523438 137.851562 C 183 137.625 182.699219 137.175781 182.398438 136.726562 C 182.101562 136.273438 181.875 135.75 181.949219 135.148438 C 181.949219 134.324219 182.476562 132.898438 183.226562 132.300781 C 183.898438 131.699219 185.476562 131.550781 186.300781 131.699219 C 186.898438 131.851562 187.648438 132.601562 187.648438 132.601562 " clip-rule="nonzero"/></clipPath><clipPath id="2f49700411"><path d="M 113.566406 172.8125 L 128.363281 172.8125 L 128.363281 187.851562 L 113.566406 187.851562 Z M 113.566406 172.8125 " clip-rule="nonzero"/></clipPath><clipPath id="0a5d84bc7a"><path d="M 128.324219 178.050781 C 128.324219 182.773438 127.726562 184.050781 127.050781 184.949219 C 126.300781 185.851562 125.25 186.675781 124.199219 187.125 C 123.148438 187.648438 121.800781 187.875 120.675781 187.800781 C 119.550781 187.726562 118.273438 187.351562 117.226562 186.75 C 116.25 186.148438 115.273438 185.175781 114.675781 184.199219 C 114.074219 183.226562 113.699219 181.949219 113.625 180.75 C 113.550781 179.625 113.851562 178.273438 114.300781 177.226562 C 114.75 176.175781 115.574219 175.125 116.476562 174.375 C 117.449219 173.699219 118.648438 173.175781 119.773438 172.949219 C 120.898438 172.726562 122.25 172.800781 123.375 173.175781 C 124.5 173.476562 126.449219 174.976562 126.449219 174.976562 " clip-rule="nonzero"/></clipPath></defs><g clip-path="url(#03a6867f5a)"><g clip-path="url(#351c22b9ad)"><path fill="#498296" d="M 0 0.605469 L 374.394531 0.605469 L 374.394531 375 L 0 375 Z M 0 0.605469 " fill-opacity="1" fill-rule="nonzero"/></g></g><g clip-path="url(#b3328aefc1)"><path fill="#d9d9d9" d="M 215.632812 249.984375 C 206.636719 249.984375 197.761719 247.257812 191.46875 244.730469 C 175.722656 247.632812 159.988281 246.222656 144.6875 240.539062 C 126.429688 233.753906 108.5625 220.773438 91.582031 201.949219 C 87.402344 197.3125 87.566406 190.21875 91.957031 185.792969 C 102.167969 175.503906 123.292969 157.074219 150.734375 148.367188 C 158.664062 139.839844 171.40625 129.246094 188.101562 125.542969 C 190.585938 124.992188 193.164062 125.839844 194.828125 127.800781 C 196.175781 129.390625 196.664062 131.535156 196.289062 133.585938 C 195.722656 136.707031 195.066406 140.875 194.746094 144.851562 C 214.105469 148.097656 232.65625 157.890625 249.984375 174.019531 C 254.753906 164.199219 263.847656 150.710938 279.667969 144.03125 C 281.636719 143.207031 283.84375 143.574219 285.433594 144.996094 C 287.015625 146.414062 287.625 148.5625 287.019531 150.601562 C 284.617188 158.65625 279.035156 179.101562 279.035156 194.921875 C 279.035156 210.742188 284.617188 231.1875 287.015625 239.246094 C 287.625 241.285156 287.015625 243.429688 285.433594 244.851562 C 283.84375 246.273438 281.632812 246.640625 279.667969 245.8125 C 263.15625 238.839844 253.964844 224.597656 249.253906 214.285156 C 240.351562 222.296875 230.980469 228.933594 221.320312 234.070312 C 221.847656 236.421875 222.699219 238.683594 223.40625 240.335938 C 224.507812 242.902344 223.964844 245.933594 221.890625 247.984375 C 220.632812 249.226562 218.910156 249.894531 217.144531 249.957031 C 216.640625 249.976562 216.136719 249.984375 215.632812 249.984375 Z M 191.875 237.242188 C 192.105469 237.195312 192.34375 237.21875 192.5625 237.308594 L 193.246094 237.59375 C 199.15625 240.054688 207.921875 242.910156 216.507812 242.699219 C 215.398438 240.039062 214.089844 236.246094 213.683594 232.441406 L 213.503906 230.753906 C 213.453125 230.265625 213.707031 229.792969 214.148438 229.570312 L 215.664062 228.808594 C 229.707031 221.734375 241.042969 212.199219 248.082031 205.445312 L 250.601562 203.023438 C 251.289062 202.363281 252.433594 202.621094 252.769531 203.515625 L 254.003906 206.785156 C 257.15625 215.136719 264.449219 229.644531 278.910156 237.394531 C 276.128906 227.449219 271.761719 209.496094 271.761719 194.925781 C 271.761719 180.351562 276.128906 162.402344 278.910156 152.457031 C 265.039062 159.910156 257.773438 173.671875 254.578125 181.601562 L 253.277344 184.824219 C 252.917969 185.707031 251.777344 185.941406 251.101562 185.269531 L 248.636719 182.820312 C 230.410156 164.695312 210.839844 154.183594 190.46875 151.574219 L 188.269531 151.292969 C 187.667969 151.214844 187.21875 150.695312 187.234375 150.085938 L 187.292969 147.867188 C 187.429688 142.800781 188.292969 136.992188 189.039062 132.792969 C 174.035156 136.328125 162.507812 146.246094 155.4375 154 L 154.988281 154.496094 C 154.84375 154.652344 154.664062 154.769531 154.460938 154.832031 L 153.820312 155.027344 C 127.433594 163.140625 106.972656 180.996094 97.121094 190.921875 C 95.453125 192.605469 95.390625 195.308594 96.984375 197.074219 C 126.894531 230.234375 158.578125 243.796875 191.148438 237.386719 L 191.878906 237.242188 Z M 191.875 237.242188 " fill-opacity="1" fill-rule="nonzero"/></g><g clip-path="url(#9da26c7834)"><g clip-path="url(#f227dbfc7e)"><path fill="#d9d9d9" d="M 102 163.875 L 165.226562 163.875 L 165.226562 227.101562 L 102 227.101562 Z M 102 163.875 " fill-opacity="1" fill-rule="nonzero"/></g></g><g clip-path="url(#4bf3f90f42)"><g clip-path="url(#4a3863ed07)"><path fill="#d9d9d9" d="M 145.199219 163.273438 L 208.425781 163.273438 L 208.425781 226.5 L 145.199219 226.5 Z M 145.199219 163.273438 " fill-opacity="1" fill-rule="nonzero"/></g></g><g clip-path="url(#16c278b56f)"><g clip-path="url(#3206b55556)"><path fill="#d9d9d9" d="M 186.074219 160.5 L 249.300781 160.5 L 249.300781 223.726562 L 186.074219 223.726562 Z M 186.074219 160.5 " fill-opacity="1" fill-rule="nonzero"/></g></g><g clip-path="url(#469afc428e)"><g clip-path="url(#e201d02b14)"><path fill="#d9d9d9" d="M 190.5 160.5 L 253.726562 160.5 L 253.726562 223.726562 L 190.5 223.726562 Z M 190.5 160.5 " fill-opacity="1" fill-rule="nonzero"/></g></g><g clip-path="url(#753f26273d)"><g clip-path="url(#5e7dd094fe)"><path fill="#d9d9d9" d="M 117.523438 153.300781 L 180.75 153.300781 L 180.75 216.523438 L 117.523438 216.523438 Z M 117.523438 153.300781 " fill-opacity="1" fill-rule="nonzero"/></g></g><g clip-path="url(#a1b12c56d1)"><g clip-path="url(#c75c006d14)"><path fill="#d9d9d9" d="M 138 147.226562 L 201.226562 147.226562 L 201.226562 210.449219 L 138 210.449219 Z M 138 147.226562 " fill-opacity="1" fill-rule="nonzero"/></g></g><g clip-path="url(#b58d0a7ac8)"><g clip-path="url(#e099e6b71a)"><path fill="#d9d9d9" d="M 154.574219 147.226562 L 217.800781 147.226562 L 217.800781 210.449219 L 154.574219 210.449219 Z M 154.574219 147.226562 " fill-opacity="1" fill-rule="nonzero"/></g></g><g clip-path="url(#9ddd7d08b1)"><g clip-path="url(#4b23faa970)"><path fill="#d9d9d9" d="M 137.398438 142.800781 L 200.625 142.800781 L 200.625 206.023438 L 137.398438 206.023438 Z M 137.398438 142.800781 " fill-opacity="1" fill-rule="nonzero"/></g></g><g clip-path="url(#984f565ffc)"><g clip-path="url(#f758c42653)"><path fill="#d9d9d9" d="M 169.5 151.125 L 232.726562 151.125 L 232.726562 214.351562 L 169.5 214.351562 Z M 169.5 151.125 " fill-opacity="1" fill-rule="nonzero"/></g></g><g clip-path="url(#9d9fa5e7db)"><g clip-path="url(#899103c6a2)"><path fill="#d9d9d9" d="M 162.300781 146.175781 L 225.523438 146.175781 L 225.523438 209.398438 L 162.300781 209.398438 Z M 162.300781 146.175781 " fill-opacity="1" fill-rule="nonzero"/></g></g><g clip-path="url(#5aa47e0730)"><g clip-path="url(#97f6bea415)"><path fill="#d9d9d9" d="M 175.050781 150.601562 L 238.273438 150.601562 L 238.273438 213.824219 L 175.050781 213.824219 Z M 175.050781 150.601562 " fill-opacity="1" fill-rule="nonzero"/></g></g><g clip-path="url(#7935185280)"><g clip-path="url(#6236b4c0da)"><path fill="#d9d9d9" d="M 160.648438 180.449219 L 223.875 180.449219 L 223.875 243.675781 L 160.648438 243.675781 Z M 160.648438 180.449219 " fill-opacity="1" fill-rule="nonzero"/></g></g><g clip-path="url(#1cfcec244f)"><g clip-path="url(#1bb32f1c6c)"><path fill="#d9d9d9" d="M 125.773438 176.550781 L 189 176.550781 L 189 239.773438 L 125.773438 239.773438 Z M 125.773438 176.550781 " fill-opacity="1" fill-rule="nonzero"/></g></g><g clip-path="url(#eb132e5ae9)"><g clip-path="url(#997e16bc4c)"><path fill="#d9d9d9" d="M 116.925781 175.425781 L 180.148438 175.425781 L 180.148438 238.648438 L 116.925781 238.648438 Z M 116.925781 175.425781 " fill-opacity="1" fill-rule="nonzero"/></g></g><g clip-path="url(#d7fda47a9f)"><g clip-path="url(#095d94c557)"><path fill="#d9d9d9" d="M 140.175781 182.625 L 203.398438 182.625 L 203.398438 245.851562 L 140.175781 245.851562 Z M 140.175781 182.625 " fill-opacity="1" fill-rule="nonzero"/></g></g><g clip-path="url(#61701eed21)"><g clip-path="url(#75c278cfbd)"><path fill="#d9d9d9" d="M 171.75 177.148438 L 234.976562 177.148438 L 234.976562 240.375 L 171.75 240.375 Z M 171.75 177.148438 " fill-opacity="1" fill-rule="nonzero"/></g></g><g clip-path="url(#9246a026a2)"><g clip-path="url(#2a39278152)"><path fill="#d9d9d9" d="M 177.824219 173.773438 L 241.050781 173.773438 L 241.050781 237 L 177.824219 237 Z M 177.824219 173.773438 " fill-opacity="1" fill-rule="nonzero"/></g></g><g clip-path="url(#8a8ac9c88b)"><g clip-path="url(#e8848ef339)"><path fill="#d9d9d9" d="M 90.148438 178.800781 L 117.75 178.800781 L 117.75 206.398438 L 90.148438 206.398438 Z M 90.148438 178.800781 " fill-opacity="1" fill-rule="nonzero"/></g></g><g clip-path="url(#828239076f)"><g clip-path="url(#24485f3e24)"><path fill="#d9d9d9" d="M 93.449219 183.75 L 121.050781 183.75 L 121.050781 211.351562 L 93.449219 211.351562 Z M 93.449219 183.75 " fill-opacity="1" fill-rule="nonzero"/></g></g><g clip-path="url(#a883ea753f)"><g clip-path="url(#3697afe18e)"><path fill="#d9d9d9" d="M 96.75 173.773438 L 124.351562 173.773438 L 124.351562 201.375 L 96.75 201.375 Z M 96.75 173.773438 " fill-opacity="1" fill-rule="nonzero"/></g></g><g clip-path="url(#5d909cdd6c)"><g clip-path="url(#868bf6bdfc)"><path fill="#d9d9d9" d="M 159.300781 135.074219 L 186.898438 135.074219 L 186.898438 162.675781 L 159.300781 162.675781 Z M 159.300781 135.074219 " fill-opacity="1" fill-rule="nonzero"/></g></g><g clip-path="url(#a29a2d635f)"><g clip-path="url(#85024f8d7f)"><path fill="#d9d9d9" d="M 165.898438 134.550781 L 193.5 134.550781 L 193.5 162.148438 L 165.898438 162.148438 Z M 165.898438 134.550781 " fill-opacity="1" fill-rule="nonzero"/></g></g><g clip-path="url(#c08c79818e)"><g clip-path="url(#b8db7eb9ad)"><path fill="#d9d9d9" d="M 192.976562 219.148438 L 220.574219 219.148438 L 220.574219 246.75 L 192.976562 246.75 Z M 192.976562 219.148438 " fill-opacity="1" fill-rule="nonzero"/></g></g><g clip-path="url(#3c01e6577b)"><g clip-path="url(#157391e317)"><path fill="#d9d9d9" d="M 233.925781 180.976562 L 261.523438 180.976562 L 261.523438 208.574219 L 233.925781 208.574219 Z M 233.925781 180.976562 " fill-opacity="1" fill-rule="nonzero"/></g></g><g clip-path="url(#0010ae328c)"><g clip-path="url(#64d803821c)"><path fill="#d9d9d9" d="M 237.824219 177.675781 L 265.425781 177.675781 L 265.425781 205.273438 L 237.824219 205.273438 Z M 237.824219 177.675781 " fill-opacity="1" fill-rule="nonzero"/></g></g><g clip-path="url(#7564be7699)"><g clip-path="url(#795556213f)"><path fill="#d9d9d9" d="M 250.5 176.023438 L 278.101562 176.023438 L 278.101562 203.625 L 250.5 203.625 Z M 250.5 176.023438 " fill-opacity="1" fill-rule="nonzero"/></g></g><g clip-path="url(#0951facf6f)"><g clip-path="url(#fb02207541)"><path fill="#d9d9d9" d="M 250.5 168.824219 L 278.101562 168.824219 L 278.101562 196.425781 L 250.5 196.425781 Z M 250.5 168.824219 " fill-opacity="1" fill-rule="nonzero"/></g></g><g clip-path="url(#b59cc73aa6)"><g clip-path="url(#b30141a4d6)"><path fill="#d9d9d9" d="M 252.148438 164.398438 L 279.75 164.398438 L 279.75 192 L 252.148438 192 Z M 252.148438 164.398438 " fill-opacity="1" fill-rule="nonzero"/></g></g><g clip-path="url(#6f8591edb6)"><g clip-path="url(#ff4d038542)"><path fill="#d9d9d9" d="M 254.398438 158.324219 L 282 158.324219 L 282 185.925781 L 254.398438 185.925781 Z M 254.398438 158.324219 " fill-opacity="1" fill-rule="nonzero"/></g></g><g clip-path="url(#6442ecdaa6)"><g clip-path="url(#fef48897e8)"><path fill="#d9d9d9" d="M 248.851562 192.601562 L 276.449219 192.601562 L 276.449219 220.199219 L 248.851562 220.199219 Z M 248.851562 192.601562 " fill-opacity="1" fill-rule="nonzero"/></g></g><g clip-path="url(#43d9964945)"><g clip-path="url(#be66267481)"><path fill="#d9d9d9" d="M 250.5 197.023438 L 278.101562 197.023438 L 278.101562 224.625 L 250.5 224.625 Z M 250.5 197.023438 " fill-opacity="1" fill-rule="nonzero"/></g></g><g clip-path="url(#933755341b)"><g clip-path="url(#ba53e224f6)"><path fill="#d9d9d9" d="M 250.5 185.398438 L 278.101562 185.398438 L 278.101562 213 L 250.5 213 Z M 250.5 185.398438 " fill-opacity="1" fill-rule="nonzero"/></g></g><g clip-path="url(#84d14bf5c9)"><g clip-path="url(#8c0e1a9ed4)"><path fill="#d9d9d9" d="M 269.398438 153 L 281.699219 153 L 281.699219 165.445312 L 269.398438 165.445312 Z M 269.398438 153 " fill-opacity="1" fill-rule="nonzero"/></g></g><g clip-path="url(#e8c2f183dc)"><g clip-path="url(#4226999e64)"><path fill="#d9d9d9" d="M 262.5 148.5 L 283.910156 148.5 L 283.910156 168.074219 L 262.5 168.074219 Z M 262.5 148.5 " fill-opacity="1" fill-rule="nonzero"/></g></g><g clip-path="url(#bc8e6a2bb3)"><g clip-path="url(#bd3ec096e2)"><path fill="#d9d9d9" d="M 249.675781 203.851562 L 265.199219 203.851562 L 265.199219 222.648438 L 249.675781 222.648438 Z M 249.675781 203.851562 " fill-opacity="1" fill-rule="nonzero"/></g></g><g clip-path="url(#863ca3043b)"><g clip-path="url(#0ef5c85a20)"><path fill="#d9d9d9" d="M 255.824219 202.726562 L 284.175781 202.726562 L 284.175781 240.046875 L 255.824219 240.046875 Z M 255.824219 202.726562 " fill-opacity="1" fill-rule="nonzero"/></g></g><g clip-path="url(#1fa50de1ce)"><g clip-path="url(#4d5178519d)"><path fill="#d9d9d9" d="M 209.101562 234.898438 L 221.398438 234.898438 L 221.398438 247.488281 L 209.101562 247.488281 Z M 209.101562 234.898438 " fill-opacity="1" fill-rule="nonzero"/></g></g><g clip-path="url(#c591a592c8)"><g clip-path="url(#d07380c64e)"><path fill="#d9d9d9" d="M 171.75 132.074219 L 184.339844 132.074219 L 184.339844 144.375 L 171.75 144.375 Z M 171.75 132.074219 " fill-opacity="1" fill-rule="nonzero"/></g></g><g clip-path="url(#71a6000552)"><g clip-path="url(#be1d80ea91)"><path fill="#d9d9d9" d="M 176.175781 131.476562 L 188.761719 131.476562 L 188.761719 143.773438 L 176.175781 143.773438 Z M 176.175781 131.476562 " fill-opacity="1" fill-rule="nonzero"/></g></g><g clip-path="url(#4d25821cef)"><g clip-path="url(#518033de0d)"><path fill="#d9d9d9" d="M 179.476562 131.476562 L 192.0625 131.476562 L 192.0625 143.773438 L 179.476562 143.773438 Z M 179.476562 131.476562 " fill-opacity="1" fill-rule="nonzero"/></g></g><g clip-path="url(#1343fc5659)"><g clip-path="url(#a7bf753d92)"><path fill="#d9d9d9" d="M 181.648438 128.101562 L 194.246094 128.101562 L 194.246094 140.550781 L 181.648438 140.550781 Z M 181.648438 128.101562 " fill-opacity="1" fill-rule="nonzero"/></g></g><g clip-path="url(#a936cb8703)"><g clip-path="url(#fb85929c25)"><path fill="#d9d9d9" d="M 181.648438 133.125 L 194.238281 133.125 L 194.238281 145.425781 L 181.648438 145.425781 Z M 181.648438 133.125 " fill-opacity="1" fill-rule="nonzero"/></g></g><g clip-path="url(#790df0ff48)"><g clip-path="url(#64799324af)"><path fill="#d9d9d9" d="M 178.949219 128.699219 L 191.539062 128.699219 L 191.539062 141 L 178.949219 141 Z M 178.949219 128.699219 " fill-opacity="1" fill-rule="nonzero"/></g></g><g clip-path="url(#2f49700411)"><g clip-path="url(#0a5d84bc7a)"><path fill="#498296" d="M 110.625 169.949219 L 131.550781 169.949219 L 131.550781 190.875 L 110.625 190.875 Z M 110.625 169.949219 " fill-opacity="1" fill-rule="nonzero"/></g></g></svg>