<svg xmlns="http://www.w3.org/2000/svg" xmlns:xlink="http://www.w3.org/1999/xlink" width="500" zoomAndPan="magnify" viewBox="0 0 375 374.999991" height="500" preserveAspectRatio="xMidYMid meet" version="1.0"><defs><clipPath id="44654ef788"><path d="M 0 0.605469 L 374.394531 0.605469 L 374.394531 375 L 0 375 Z M 0 0.605469 " clip-rule="nonzero"/></clipPath><clipPath id="b056fbff5b"><path d="M 187.199219 0.605469 C 83.8125 0.605469 0 84.417969 0 187.800781 C 0 291.1875 83.8125 375 187.199219 375 C 290.582031 375 374.394531 291.1875 374.394531 187.800781 C 374.394531 84.417969 290.582031 0.605469 187.199219 0.605469 Z M 187.199219 0.605469 " clip-rule="nonzero"/></clipPath><clipPath id="4d4a1b832f"><path d="M 8.074219 137 L 366.574219 137 L 366.574219 238.964844 L 8.074219 238.964844 Z M 8.074219 137 " clip-rule="nonzero"/></clipPath></defs><g clip-path="url(#44654ef788)"><g clip-path="url(#b056fbff5b)"><path fill="#50823c" d="M 0 0.605469 L 374.394531 0.605469 L 374.394531 375 L 0 375 Z M 0 0.605469 " fill-opacity="1" fill-rule="nonzero"/></g></g><g clip-path="url(#4d4a1b832f)"><path fill="#111010" d="M 8.074219 238.398438 L 79.601562 185.410156 L 106.636719 198.804688 L 140.964844 171.054688 L 157.710938 171.054688 L 191.5625 137.203125 L 240.363281 184.453125 L 269.070312 162.800781 L 297.539062 187.800781 L 313.445312 187.800781 L 321.460938 198.328125 L 336.773438 200.71875 L 366.914062 238.398438 L 355.910156 238.398438 L 329.234375 207.058594 L 319.1875 225.71875 L 316.316406 203.589844 L 299.332031 192.464844 L 287.132812 187.800781 L 268.351562 168.542969 L 238.6875 202.871094 L 249.214844 231.578125 L 220.746094 205.265625 L 176.371094 227.511719 L 208.546875 193.660156 L 232.347656 193.660156 L 192.757812 145.21875 L 136.300781 209.449219 L 150.175781 180.265625 L 93.71875 238.398438 L 98.382812 213.398438 L 80.320312 193.660156 L 16.804688 238.398438 Z M 8.074219 238.398438 " fill-opacity="1" fill-rule="nonzero"/></g></svg>