<svg xmlns="http://www.w3.org/2000/svg" xmlns:xlink="http://www.w3.org/1999/xlink" width="500" zoomAndPan="magnify" viewBox="0 0 375 374.999991" height="500" preserveAspectRatio="xMidYMid meet" version="1.0"><defs><clipPath id="d0108dcae9"><path d="M 187.5 0 C 83.945312 0 0 83.945312 0 187.5 C 0 291.054688 83.945312 375 187.5 375 C 291.054688 375 375 291.054688 375 187.5 C 375 83.945312 291.054688 0 187.5 0 Z M 187.5 0 " clip-rule="nonzero"/></clipPath><clipPath id="c54a62099e"><path d="M 66 48 L 293 48 L 293 174 L 66 174 Z M 66 48 " clip-rule="nonzero"/></clipPath><clipPath id="65044c633b"><path d="M 309.175781 153.609375 L 83.46875 190.8125 L 66.027344 84.992188 L 291.730469 47.789062 Z M 309.175781 153.609375 " clip-rule="nonzero"/></clipPath><clipPath id="8dc431efac"><path d="M 309.175781 153.609375 L 83.46875 190.8125 L 66.027344 84.992188 L 291.730469 47.789062 Z M 309.175781 153.609375 " clip-rule="nonzero"/></clipPath></defs><g clip-path="url(#d0108dcae9)"><rect x="-37.5" width="450" fill="#ff6d6d" y="-37.499999" height="449.999989" fill-opacity="1"/></g><g clip-path="url(#c54a62099e)"><g clip-path="url(#65044c633b)"><g clip-path="url(#8dc431efac)"><path fill="#ae0d0d" d="M 65.8125 85.242188 C 87.277344 133.097656 138.925781 162.46875 193.109375 153.539062 C 247.296875 144.605469 286.789062 100.210938 291.757812 48 C 297.566406 107.628906 256.167969 162.347656 196.191406 172.234375 C 136.214844 182.121094 79.449219 143.582031 65.8125 85.242188 Z M 65.8125 85.242188 " fill-opacity="1" fill-rule="nonzero"/></g></g></g><path stroke-linecap="butt" transform="matrix(0.30378, 0.685724, -0.685724, 0.30378, 75.145701, 102.926228)" fill="none" stroke-linejoin="miter" d="M 0.00122831 2.001733 L 374.36705 1.999199 " stroke="#ae0d0d" stroke-width="4" stroke-opacity="1" stroke-miterlimit="4"/><path stroke-linecap="butt" transform="matrix(-0.253233, 0.705955, -0.705955, -0.253233, 288.369653, 83.469583)" fill="none" stroke-linejoin="miter" d="M 0.00248706 2.000115 L 392.777605 2.001981 " stroke="#ae0d0d" stroke-width="4" stroke-opacity="1" stroke-miterlimit="4"/><path stroke-linecap="butt" transform="matrix(-0.49313, -0.565086, 0.565086, -0.49313, 236.109291, 139.225128)" fill="none" stroke-linejoin="miter" d="M 0.00162603 1.999326 L 129.468461 1.999801 " stroke="#ae0d0d" stroke-width="4" stroke-opacity="1" stroke-miterlimit="4"/><path stroke-linecap="butt" transform="matrix(0.27352, -0.698346, 0.698346, 0.27352, 135.866172, 156.806431)" fill="none" stroke-linejoin="miter" d="M 0.00181071 1.997651 L 132.12843 1.999671 " stroke="#ae0d0d" stroke-width="4" stroke-opacity="1" stroke-miterlimit="4"/></svg>