<svg xmlns="http://www.w3.org/2000/svg" xmlns:xlink="http://www.w3.org/1999/xlink" width="500" zoomAndPan="magnify" viewBox="0 0 375 374.999991" height="500" preserveAspectRatio="xMidYMid meet" version="1.0"><defs><clipPath id="e71dc7f179"><path d="M 0 0.605469 L 374.394531 0.605469 L 374.394531 375 L 0 375 Z M 0 0.605469 " clip-rule="nonzero"/></clipPath><clipPath id="c02dcb215c"><path d="M 187.199219 0.605469 C 83.8125 0.605469 0 84.417969 0 187.800781 C 0 291.1875 83.8125 375 187.199219 375 C 290.582031 375 374.394531 291.1875 374.394531 187.800781 C 374.394531 84.417969 290.582031 0.605469 187.199219 0.605469 Z M 187.199219 0.605469 " clip-rule="nonzero"/></clipPath><clipPath id="6a186755fc"><path d="M 189.382812 110.710938 L 294.433594 110.710938 L 294.433594 291.640625 L 189.382812 291.640625 Z M 189.382812 110.710938 " clip-rule="nonzero"/></clipPath><clipPath id="4ca845b26b"><path d="M 60.15625 137 L 189 137 L 189 247 L 60.15625 247 Z M 60.15625 137 " clip-rule="nonzero"/></clipPath><clipPath id="9e186fdd47"><path d="M 192.0625 88.46875 L 320.339844 88.46875 L 320.339844 195.394531 L 192.0625 195.394531 Z M 192.0625 88.46875 " clip-rule="nonzero"/></clipPath><clipPath id="f7ffc62ec1"><path d="M 186.625 108.460938 L 291.675781 108.460938 L 291.675781 289.390625 L 186.625 289.390625 Z M 186.625 108.460938 " clip-rule="nonzero"/></clipPath><clipPath id="471defd4e8"><path d="M 57.402344 135 L 186 135 L 186 245 L 57.402344 245 Z M 57.402344 135 " clip-rule="nonzero"/></clipPath><clipPath id="58d1181ef3"><path d="M 189.304688 86.21875 L 317.585938 86.21875 L 317.585938 193 L 189.304688 193 Z M 189.304688 86.21875 " clip-rule="nonzero"/></clipPath></defs><g clip-path="url(#e71dc7f179)"><g clip-path="url(#c02dcb215c)"><path fill="#50823c" d="M 0 0.605469 L 374.394531 0.605469 L 374.394531 375 L 0 375 Z M 0 0.605469 " fill-opacity="1" fill-rule="nonzero"/></g></g><g clip-path="url(#6a186755fc)"><path fill="#a24e1c" d="M 192.890625 291.640625 C 191.90625 291.640625 191.050781 290.90625 190.921875 289.902344 C 189.261719 276.925781 189.03125 263.839844 190.230469 251.011719 C 191.769531 234.617188 195.664062 218.601562 201.808594 203.414062 C 207.59375 189.121094 215.320312 175.695312 224.78125 163.511719 C 232.585938 153.457031 241.636719 144.148438 251.6875 135.84375 C 263.984375 125.683594 277.71875 117.0625 291.40625 110.914062 C 292.40625 110.460938 293.585938 110.910156 294.035156 111.914062 C 294.488281 112.914062 294.039062 114.09375 293.035156 114.542969 C 274.304688 122.960938 228.28125 148.613281 205.5 204.910156 C 192.039062 238.175781 192.289062 269.21875 194.867188 289.398438 C 195.007812 290.488281 194.238281 291.484375 193.148438 291.625 C 193.0625 291.636719 192.976562 291.640625 192.890625 291.640625 " fill-opacity="1" fill-rule="nonzero"/></g><path fill="#a24e1c" d="M 191.730469 278.882812 C 191.726562 278.882812 191.726562 278.882812 191.722656 278.882812 C 190.625 278.882812 189.734375 277.988281 189.738281 276.886719 C 189.824219 245.941406 175.144531 218.519531 146.109375 195.386719 C 123.734375 177.554688 99.378906 167.984375 92.609375 166.039062 C 91.550781 165.734375 90.941406 164.628906 91.246094 163.574219 C 91.550781 162.519531 92.652344 161.90625 93.710938 162.210938 C 96.804688 163.101562 104.753906 165.957031 114.910156 171 C 127.039062 177.023438 138.6875 184.378906 148.589844 192.273438 C 161.886719 202.863281 172.429688 214.613281 179.933594 227.195312 C 189.128906 242.613281 193.765625 259.335938 193.71875 276.898438 C 193.71875 277.996094 192.828125 278.882812 191.730469 278.882812 " fill-opacity="1" fill-rule="nonzero"/><g clip-path="url(#4ca845b26b)"><path fill="#a24e1c" d="M 153.855469 246.363281 C 144.246094 246.363281 134.996094 244.882812 126.191406 241.929688 C 114.820312 238.113281 104.265625 230.488281 94.824219 219.273438 C 87.34375 210.390625 80.535156 199.234375 74.585938 186.117188 C 64.492188 163.859375 60.292969 143.304688 60.25 143.101562 C 60.144531 142.578125 60.253906 142.035156 60.550781 141.59375 C 60.851562 141.152344 61.3125 140.847656 61.839844 140.75 C 61.972656 140.726562 75.582031 138.230469 92.324219 137.878906 C 102.1875 137.675781 111.207031 138.242188 119.132812 139.5625 C 129.15625 141.238281 137.476562 144.136719 143.867188 148.179688 C 152.265625 153.496094 159.730469 160.179688 166.054688 168.050781 C 171.234375 174.496094 175.691406 181.78125 179.308594 189.703125 C 185.058594 202.316406 187.3125 213.558594 188.140625 219.140625 C 188.300781 220.226562 187.550781 221.238281 186.464844 221.402344 C 185.378906 221.5625 184.363281 220.8125 184.203125 219.726562 C 182.609375 209.027344 174.84375 172.5 141.738281 151.542969 C 131.019531 144.757812 113.960938 141.410156 92.40625 141.859375 C 79.742188 142.125 68.933594 143.636719 64.597656 144.324219 C 65.898438 149.964844 70.136719 166.695312 78.242188 184.542969 C 87.304688 204.507812 103.203125 230.011719 127.457031 238.152344 C 141.347656 242.816406 156.449219 243.625 172.34375 240.558594 C 173.421875 240.351562 174.46875 241.058594 174.675781 242.136719 C 174.882812 243.21875 174.175781 244.261719 173.097656 244.46875 C 166.550781 245.730469 160.128906 246.363281 153.855469 246.363281 " fill-opacity="1" fill-rule="nonzero"/></g><g clip-path="url(#9e186fdd47)"><path fill="#a24e1c" d="M 225.527344 195.226562 C 224.582031 195.226562 223.746094 194.550781 223.570312 193.589844 C 223.375 192.507812 224.09375 191.472656 225.175781 191.277344 C 246.734375 187.378906 266.359375 178.125 281.929688 164.515625 C 298.546875 149.992188 312.738281 108.265625 315.824219 98.71875 C 310.324219 97.285156 293.976562 93.414062 275.382812 92.601562 C 254.617188 91.691406 226.703125 94.523438 211.628906 113.144531 C 190.613281 139.113281 196.441406 173.496094 198.730469 183.417969 C 198.976562 184.488281 198.308594 185.558594 197.238281 185.804688 C 196.164062 186.050781 195.097656 185.382812 194.851562 184.3125 C 192.460938 173.949219 186.386719 138.007812 208.535156 110.640625 C 215.695312 101.792969 226.023438 95.503906 239.226562 91.945312 C 249.660156 89.136719 261.90625 88.019531 275.632812 88.625 C 298.894531 89.652344 318.710938 95.371094 318.90625 95.429688 C 319.417969 95.578125 319.847656 95.921875 320.101562 96.390625 C 320.351562 96.859375 320.410156 97.410156 320.253906 97.917969 C 320.214844 98.046875 316.214844 111.125 309.894531 126.101562 C 301.339844 146.359375 292.8125 160.292969 284.550781 167.511719 C 274.933594 175.917969 263.902344 182.703125 251.761719 187.679688 C 243.546875 191.046875 234.84375 193.574219 225.882812 195.195312 C 225.765625 195.214844 225.644531 195.226562 225.527344 195.226562 " fill-opacity="1" fill-rule="nonzero"/></g><g clip-path="url(#f7ffc62ec1)"><path fill="#641d1d" d="M 190.136719 289.390625 C 189.148438 289.390625 188.292969 288.65625 188.164062 287.652344 C 186.503906 274.675781 186.273438 261.589844 187.476562 248.761719 C 189.011719 232.367188 192.90625 216.351562 199.050781 201.164062 C 204.835938 186.871094 212.566406 173.445312 222.023438 161.261719 C 229.828125 151.207031 238.878906 141.898438 248.933594 133.59375 C 261.230469 123.433594 274.960938 114.8125 288.648438 108.664062 C 289.652344 108.210938 290.828125 108.660156 291.28125 109.664062 C 291.730469 110.664062 291.28125 111.84375 290.28125 112.292969 C 271.550781 120.710938 225.523438 146.363281 202.742188 202.660156 C 189.28125 235.925781 189.53125 266.96875 192.113281 287.148438 C 192.25 288.238281 191.480469 289.234375 190.390625 289.375 C 190.304688 289.386719 190.21875 289.390625 190.136719 289.390625 " fill-opacity="1" fill-rule="nonzero"/></g><path fill="#641d1d" d="M 188.972656 276.632812 C 188.972656 276.632812 188.96875 276.632812 188.96875 276.632812 C 187.867188 276.632812 186.980469 275.738281 186.984375 274.636719 C 187.066406 243.691406 172.386719 216.269531 143.351562 193.136719 C 120.976562 175.304688 96.621094 165.734375 89.851562 163.789062 C 88.796875 163.484375 88.1875 162.378906 88.488281 161.324219 C 88.792969 160.269531 89.898438 159.65625 90.953125 159.960938 C 94.050781 160.851562 102 163.707031 112.152344 168.75 C 124.285156 174.773438 135.929688 182.128906 145.832031 190.023438 C 159.128906 200.613281 169.675781 212.363281 177.179688 224.945312 C 186.375 240.363281 191.011719 257.085938 190.964844 274.648438 C 190.960938 275.746094 190.070312 276.632812 188.972656 276.632812 " fill-opacity="1" fill-rule="nonzero"/><g clip-path="url(#471defd4e8)"><path fill="#641d1d" d="M 151.101562 244.113281 C 141.492188 244.113281 132.238281 242.632812 123.433594 239.679688 C 112.0625 235.863281 101.511719 228.238281 92.066406 217.023438 C 84.585938 208.140625 77.777344 196.984375 71.828125 183.867188 C 61.734375 161.609375 57.535156 141.054688 57.492188 140.851562 C 57.386719 140.328125 57.496094 139.785156 57.796875 139.34375 C 58.09375 138.902344 58.558594 138.597656 59.082031 138.5 C 59.21875 138.476562 72.828125 135.980469 89.566406 135.628906 C 99.429688 135.425781 108.449219 135.992188 116.375 137.3125 C 126.398438 138.988281 134.71875 141.886719 141.109375 145.929688 C 149.507812 151.246094 156.972656 157.929688 163.296875 165.800781 C 168.476562 172.246094 172.9375 179.53125 176.550781 187.453125 C 182.300781 200.066406 184.554688 211.308594 185.382812 216.890625 C 185.546875 217.976562 184.796875 218.988281 183.707031 219.152344 C 182.621094 219.3125 181.609375 218.5625 181.445312 217.476562 C 179.855469 206.777344 172.085938 170.25 138.980469 149.292969 C 128.261719 142.507812 111.203125 139.160156 89.652344 139.609375 C 76.984375 139.875 66.179688 141.386719 61.839844 142.074219 C 63.144531 147.714844 67.382812 164.445312 75.484375 182.292969 C 84.550781 202.257812 100.445312 227.761719 124.699219 235.902344 C 138.589844 240.566406 153.691406 241.375 169.585938 238.308594 C 170.667969 238.101562 171.710938 238.808594 171.917969 239.886719 C 172.128906 240.96875 171.421875 242.011719 170.339844 242.21875 C 163.796875 243.480469 157.371094 244.113281 151.101562 244.113281 " fill-opacity="1" fill-rule="nonzero"/></g><g clip-path="url(#58d1181ef3)"><path fill="#641d1d" d="M 222.769531 192.976562 C 221.828125 192.976562 220.988281 192.300781 220.8125 191.339844 C 220.617188 190.257812 221.335938 189.222656 222.417969 189.027344 C 243.976562 185.128906 263.605469 175.875 279.175781 162.265625 C 295.789062 147.742188 309.980469 106.015625 313.066406 96.46875 C 307.566406 95.035156 291.21875 91.164062 272.625 90.351562 C 251.859375 89.441406 223.945312 92.273438 208.871094 110.894531 C 187.859375 136.863281 193.6875 171.246094 195.972656 181.167969 C 196.222656 182.238281 195.550781 183.308594 194.480469 183.554688 C 193.410156 183.800781 192.339844 183.132812 192.09375 182.0625 C 189.703125 171.699219 183.628906 135.757812 205.777344 108.390625 C 212.941406 99.542969 223.265625 93.253906 236.472656 89.695312 C 246.902344 86.886719 259.152344 85.769531 272.878906 86.375 C 296.136719 87.402344 315.953125 93.121094 316.152344 93.179688 C 316.660156 93.328125 317.089844 93.671875 317.34375 94.140625 C 317.597656 94.609375 317.652344 95.160156 317.496094 95.667969 C 317.457031 95.796875 313.460938 108.875 307.136719 123.851562 C 298.582031 144.109375 290.058594 158.042969 281.792969 165.261719 C 272.179688 173.667969 261.144531 180.453125 249.003906 185.429688 C 240.792969 188.796875 232.085938 191.324219 223.128906 192.945312 C 223.007812 192.964844 222.886719 192.976562 222.769531 192.976562 " fill-opacity="1" fill-rule="nonzero"/></g></svg>