<svg xmlns="http://www.w3.org/2000/svg" xmlns:xlink="http://www.w3.org/1999/xlink" width="500" zoomAndPan="magnify" viewBox="0 0 375 374.999991" height="500" preserveAspectRatio="xMidYMid meet" version="1.0"><defs><clipPath id="a048594446"><path d="M 0 0.605469 L 374.394531 0.605469 L 374.394531 375 L 0 375 Z M 0 0.605469 " clip-rule="nonzero"/></clipPath><clipPath id="752ff63102"><path d="M 187.199219 0.605469 C 83.8125 0.605469 0 84.417969 0 187.800781 C 0 291.1875 83.8125 375 187.199219 375 C 290.582031 375 374.394531 291.1875 374.394531 187.800781 C 374.394531 84.417969 290.582031 0.605469 187.199219 0.605469 Z M 187.199219 0.605469 " clip-rule="nonzero"/></clipPath><clipPath id="ff06cf9d67"><path d="M 37 37 L 89 37 L 89 89 L 37 89 Z M 37 37 " clip-rule="nonzero"/></clipPath><clipPath id="c92d34c138"><path d="M 107.03125 70.550781 L 69.171875 106.925781 L 37.476562 73.933594 L 75.332031 37.5625 Z M 107.03125 70.550781 " clip-rule="nonzero"/></clipPath><clipPath id="7981934f5e"><path d="M 107.027344 70.550781 L 69.257812 106.84375 L 37.503906 73.792969 L 75.273438 37.503906 Z M 107.027344 70.550781 " clip-rule="nonzero"/></clipPath><clipPath id="cfe8020b36"><path d="M 88.144531 88.699219 L 37.503906 73.792969 L 75.273438 37.503906 Z M 88.144531 88.699219 " clip-rule="nonzero"/></clipPath><clipPath id="0b8359aacc"><path d="M 20 78 L 72 78 L 72 130 L 20 130 Z M 20 78 " clip-rule="nonzero"/></clipPath><clipPath id="316da0a2c1"><path d="M 90.269531 111.3125 L 52.410156 147.6875 L 20.714844 114.695312 L 58.570312 78.320312 Z M 90.269531 111.3125 " clip-rule="nonzero"/></clipPath><clipPath id="c0bb787196"><path d="M 90.265625 111.3125 L 52.496094 147.605469 L 20.742188 114.554688 L 58.511719 78.265625 Z M 90.265625 111.3125 " clip-rule="nonzero"/></clipPath><clipPath id="0d4205288f"><path d="M 71.382812 129.457031 L 20.742188 114.554688 L 58.511719 78.265625 Z M 71.382812 129.457031 " clip-rule="nonzero"/></clipPath><clipPath id="509b720efe"><path d="M 64 72 L 115 72 L 115 124 L 64 124 Z M 64 72 " clip-rule="nonzero"/></clipPath><clipPath id="6db3528567"><path d="M 133.796875 105.230469 L 95.9375 141.605469 L 64.242188 108.613281 L 102.097656 72.238281 Z M 133.796875 105.230469 " clip-rule="nonzero"/></clipPath><clipPath id="44dbf3fae6"><path d="M 133.792969 105.230469 L 96.023438 141.519531 L 64.269531 108.472656 L 102.039062 72.179688 Z M 133.792969 105.230469 " clip-rule="nonzero"/></clipPath><clipPath id="9fefee3c03"><path d="M 114.910156 123.375 L 64.269531 108.472656 L 102.039062 72.179688 Z M 114.910156 123.375 " clip-rule="nonzero"/></clipPath><clipPath id="2afc32b98b"><path d="M 77 14 L 129 14 L 129 66 L 77 66 Z M 77 14 " clip-rule="nonzero"/></clipPath><clipPath id="28b28f67f0"><path d="M 147.453125 47.539062 L 109.597656 83.914062 L 77.898438 50.921875 L 115.757812 14.550781 Z M 147.453125 47.539062 " clip-rule="nonzero"/></clipPath><clipPath id="e8d1b88938"><path d="M 147.453125 47.539062 L 109.683594 83.832031 L 77.929688 50.78125 L 115.699219 14.492188 Z M 147.453125 47.539062 " clip-rule="nonzero"/></clipPath><clipPath id="27d3ee3fc5"><path d="M 128.566406 65.6875 L 77.929688 50.78125 L 115.699219 14.492188 Z M 128.566406 65.6875 " clip-rule="nonzero"/></clipPath><clipPath id="92ce44f1a0"><path d="M 103 49 L 155 49 L 155 101 L 103 101 Z M 103 49 " clip-rule="nonzero"/></clipPath><clipPath id="900c97e9c9"><path d="M 172.898438 82.21875 L 135.039062 118.59375 L 103.34375 85.601562 L 141.199219 49.226562 Z M 172.898438 82.21875 " clip-rule="nonzero"/></clipPath><clipPath id="d44573c7f4"><path d="M 172.894531 82.21875 L 135.125 118.507812 L 103.371094 85.460938 L 141.140625 49.167969 Z M 172.894531 82.21875 " clip-rule="nonzero"/></clipPath><clipPath id="5917520de2"><path d="M 154.011719 100.363281 L 103.371094 85.460938 L 141.140625 49.167969 Z M 154.011719 100.363281 " clip-rule="nonzero"/></clipPath><clipPath id="ebf569d055"><path d="M 2 118 L 54 118 L 54 170 L 2 170 Z M 2 118 " clip-rule="nonzero"/></clipPath><clipPath id="ce4c23e67a"><path d="M 72.257812 151.195312 L 34.402344 187.566406 L 2.703125 154.578125 L 40.5625 118.203125 Z M 72.257812 151.195312 " clip-rule="nonzero"/></clipPath><clipPath id="fe8f45e79a"><path d="M 72.257812 151.195312 L 34.488281 187.484375 L 2.734375 154.4375 L 40.503906 118.144531 Z M 72.257812 151.195312 " clip-rule="nonzero"/></clipPath><clipPath id="f3b96294cd"><path d="M 53.371094 169.339844 L 2.734375 154.4375 L 40.503906 118.144531 Z M 53.371094 169.339844 " clip-rule="nonzero"/></clipPath><clipPath id="18bcd2c1b3"><path d="M 48 113 L 100 113 L 100 165 L 48 165 Z M 48 113 " clip-rule="nonzero"/></clipPath><clipPath id="bc5a9463d2"><path d="M 118.140625 145.992188 L 80.28125 182.363281 L 48.585938 149.375 L 86.441406 113 Z M 118.140625 145.992188 " clip-rule="nonzero"/></clipPath><clipPath id="dbdedf4912"><path d="M 118.140625 145.992188 L 80.367188 182.28125 L 48.613281 149.234375 L 86.382812 112.941406 Z M 118.140625 145.992188 " clip-rule="nonzero"/></clipPath><clipPath id="3f2ea2fd02"><path d="M 99.253906 164.136719 L 48.613281 149.234375 L 86.382812 112.941406 Z M 99.253906 164.136719 " clip-rule="nonzero"/></clipPath><clipPath id="582941c71a"><path d="M 122 8 L 174 8 L 174 61 L 122 61 Z M 122 8 " clip-rule="nonzero"/></clipPath><clipPath id="999c968878"><path d="M 192.253906 41.953125 L 154.398438 78.328125 L 122.699219 45.339844 L 160.558594 8.964844 Z M 192.253906 41.953125 " clip-rule="nonzero"/></clipPath><clipPath id="4097c5852d"><path d="M 192.253906 41.957031 L 154.484375 78.246094 L 122.730469 45.199219 L 160.5 8.90625 Z M 192.253906 41.957031 " clip-rule="nonzero"/></clipPath><clipPath id="2b547a50ee"><path d="M 173.367188 60.101562 L 122.730469 45.199219 L 160.5 8.90625 Z M 173.367188 60.101562 " clip-rule="nonzero"/></clipPath><clipPath id="4f5726eb18"><path d="M 166 2 L 218 2 L 218 55 L 166 55 Z M 166 2 " clip-rule="nonzero"/></clipPath><clipPath id="7b443cdfc8"><path d="M 235.949219 35.871094 L 198.09375 72.246094 L 166.394531 39.257812 L 204.253906 2.882812 Z M 235.949219 35.871094 " clip-rule="nonzero"/></clipPath><clipPath id="5f10c6e72d"><path d="M 235.949219 35.875 L 198.179688 72.164062 L 166.425781 39.113281 L 204.195312 2.824219 Z M 235.949219 35.875 " clip-rule="nonzero"/></clipPath><clipPath id="9fbc8e830d"><path d="M 217.0625 54.019531 L 166.425781 39.113281 L 204.195312 2.824219 Z M 217.0625 54.019531 " clip-rule="nonzero"/></clipPath><clipPath id="67e979b9dc"><path d="M 147 43 L 199 43 L 199 95 L 147 95 Z M 147 43 " clip-rule="nonzero"/></clipPath><clipPath id="17f030d1df"><path d="M 216.996094 76.632812 L 179.140625 113.007812 L 147.441406 80.019531 L 185.300781 43.644531 Z M 216.996094 76.632812 " clip-rule="nonzero"/></clipPath><clipPath id="a5a76640f2"><path d="M 216.996094 76.632812 L 179.226562 112.925781 L 147.472656 79.875 L 185.242188 43.585938 Z M 216.996094 76.632812 " clip-rule="nonzero"/></clipPath><clipPath id="c9f2d31872"><path d="M 198.109375 94.78125 L 147.472656 79.875 L 185.242188 43.585938 Z M 198.109375 94.78125 " clip-rule="nonzero"/></clipPath><clipPath id="1167838bf1"><path d="M 107 95 L 158 95 L 158 147 L 107 147 Z M 107 95 " clip-rule="nonzero"/></clipPath><clipPath id="04054dfee1"><path d="M 176.570312 128.84375 L 138.714844 165.21875 L 107.015625 132.230469 L 144.875 95.855469 Z M 176.570312 128.84375 " clip-rule="nonzero"/></clipPath><clipPath id="b111d3b26d"><path d="M 176.570312 128.84375 L 138.800781 165.136719 L 107.046875 132.085938 L 144.816406 95.796875 Z M 176.570312 128.84375 " clip-rule="nonzero"/></clipPath><clipPath id="be24c9bc5d"><path d="M 157.683594 146.992188 L 107.046875 132.085938 L 144.816406 95.796875 Z M 157.683594 146.992188 " clip-rule="nonzero"/></clipPath><clipPath id="dd4211180f"><path d="M 87 137 L 139 137 L 139 190 L 87 190 Z M 87 137 " clip-rule="nonzero"/></clipPath><clipPath id="57274d75ce"><path d="M 157.484375 170.878906 L 119.628906 207.253906 L 87.929688 174.265625 L 125.785156 137.890625 Z M 157.484375 170.878906 " clip-rule="nonzero"/></clipPath><clipPath id="b2c92a2257"><path d="M 157.484375 170.882812 L 119.710938 207.171875 L 87.957031 174.121094 L 125.730469 137.832031 Z M 157.484375 170.882812 " clip-rule="nonzero"/></clipPath><clipPath id="2ba2071863"><path d="M 138.597656 189.027344 L 87.957031 174.121094 L 125.730469 137.832031 Z M 138.597656 189.027344 " clip-rule="nonzero"/></clipPath><clipPath id="32343b2bce"><path d="M 29 153 L 81 153 L 81 205 L 29 205 Z M 29 153 " clip-rule="nonzero"/></clipPath><clipPath id="da8c963f6e"><path d="M 99.023438 186.175781 L 61.167969 222.550781 L 29.46875 189.558594 L 67.328125 153.183594 Z M 99.023438 186.175781 " clip-rule="nonzero"/></clipPath><clipPath id="f79740a6ed"><path d="M 99.023438 186.175781 L 61.253906 222.464844 L 29.5 189.417969 L 67.269531 153.125 Z M 99.023438 186.175781 " clip-rule="nonzero"/></clipPath><clipPath id="15351cfc1e"><path d="M 80.136719 204.320312 L 29.5 189.417969 L 67.269531 153.125 Z M 80.136719 204.320312 " clip-rule="nonzero"/></clipPath><clipPath id="0a0f2ddef4"><path d="M 8 193 L 60 193 L 60 245 L 8 245 Z M 8 193 " clip-rule="nonzero"/></clipPath><clipPath id="e59d5267da"><path d="M 77.914062 226.550781 L 40.054688 262.925781 L 8.359375 229.933594 L 46.214844 193.5625 Z M 77.914062 226.550781 " clip-rule="nonzero"/></clipPath><clipPath id="2aacd3aa20"><path d="M 77.910156 226.550781 L 40.140625 262.84375 L 8.386719 229.792969 L 46.15625 193.503906 Z M 77.910156 226.550781 " clip-rule="nonzero"/></clipPath><clipPath id="01fa70fd64"><path d="M 59.027344 244.699219 L 8.386719 229.792969 L 46.15625 193.503906 Z M 59.027344 244.699219 " clip-rule="nonzero"/></clipPath><clipPath id="5791691fc2"><path d="M 68 177 L 120 177 L 120 229 L 68 229 Z M 68 177 " clip-rule="nonzero"/></clipPath><clipPath id="17126e7a2c"><path d="M 138.125 210.203125 L 100.269531 246.574219 L 68.570312 213.585938 L 106.429688 177.210938 Z M 138.125 210.203125 " clip-rule="nonzero"/></clipPath><clipPath id="0d374c9329"><path d="M 138.125 210.203125 L 100.355469 246.492188 L 68.601562 213.445312 L 106.371094 177.152344 Z M 138.125 210.203125 " clip-rule="nonzero"/></clipPath><clipPath id="292517678f"><path d="M 119.238281 228.347656 L 68.601562 213.445312 L 106.371094 177.152344 Z M 119.238281 228.347656 " clip-rule="nonzero"/></clipPath><clipPath id="26fbbb3044"><path d="M 48 218 L 100 218 L 100 270 L 48 270 Z M 48 218 " clip-rule="nonzero"/></clipPath><clipPath id="232435596e"><path d="M 118.140625 251.488281 L 80.28125 287.859375 L 48.585938 254.871094 L 86.441406 218.496094 Z M 118.140625 251.488281 " clip-rule="nonzero"/></clipPath><clipPath id="849b271bcc"><path d="M 118.140625 251.488281 L 80.367188 287.777344 L 48.613281 254.730469 L 86.382812 218.4375 Z M 118.140625 251.488281 " clip-rule="nonzero"/></clipPath><clipPath id="ecfc5e8978"><path d="M 99.253906 269.632812 L 48.613281 254.730469 L 86.382812 218.4375 Z M 99.253906 269.632812 " clip-rule="nonzero"/></clipPath><clipPath id="bcc2467c41"><path d="M 33 257 L 85 257 L 85 309 L 33 309 Z M 33 257 " clip-rule="nonzero"/></clipPath><clipPath id="f5c229f250"><path d="M 103.355469 290.808594 L 65.496094 327.183594 L 33.800781 294.191406 L 71.65625 257.820312 Z M 103.355469 290.808594 " clip-rule="nonzero"/></clipPath><clipPath id="d9cb110785"><path d="M 103.355469 290.808594 L 65.582031 327.101562 L 33.828125 294.050781 L 71.597656 257.761719 Z M 103.355469 290.808594 " clip-rule="nonzero"/></clipPath><clipPath id="2eb52883f7"><path d="M 84.46875 308.957031 L 33.828125 294.050781 L 71.597656 257.761719 Z M 84.46875 308.957031 " clip-rule="nonzero"/></clipPath><clipPath id="81b9cfc724"><path d="M 270 297 L 319 297 L 319 351 L 270 351 Z M 270 297 " clip-rule="nonzero"/></clipPath><clipPath id="e77767bb90"><path d="M 249.019531 313.640625 L 291.089844 282.238281 L 318.457031 318.898438 L 276.382812 350.304688 Z M 249.019531 313.640625 " clip-rule="nonzero"/></clipPath><clipPath id="34b8dc2862"><path d="M 249.019531 313.640625 L 290.996094 282.308594 L 318.410156 319.035156 L 276.433594 350.367188 Z M 249.019531 313.640625 " clip-rule="nonzero"/></clipPath><clipPath id="b454659ed3"><path d="M 270.007812 297.972656 L 318.410156 319.035156 L 276.433594 350.367188 Z M 270.007812 297.972656 " clip-rule="nonzero"/></clipPath><clipPath id="d1e93cd884"><path d="M 291 259 L 341 259 L 341 312 L 291 312 Z M 291 259 " clip-rule="nonzero"/></clipPath><clipPath id="c099491faa"><path d="M 270.699219 275.269531 L 312.773438 243.867188 L 340.136719 280.53125 L 298.066406 311.933594 Z M 270.699219 275.269531 " clip-rule="nonzero"/></clipPath><clipPath id="836dfc1fcf"><path d="M 270.703125 275.269531 L 312.675781 243.9375 L 340.09375 280.667969 L 298.117188 311.996094 Z M 270.703125 275.269531 " clip-rule="nonzero"/></clipPath><clipPath id="69ee19b8a9"><path d="M 291.6875 259.601562 L 340.09375 280.667969 L 298.117188 311.996094 Z M 291.6875 259.601562 " clip-rule="nonzero"/></clipPath><clipPath id="8ef1bba530"><path d="M 247 260 L 297 260 L 297 313 L 247 313 Z M 247 260 " clip-rule="nonzero"/></clipPath><clipPath id="ec26dbae0a"><path d="M 226.753906 275.914062 L 268.828125 244.507812 L 296.195312 281.171875 L 254.121094 312.574219 Z M 226.753906 275.914062 " clip-rule="nonzero"/></clipPath><clipPath id="4fc1c84d04"><path d="M 226.757812 275.910156 L 268.730469 244.578125 L 296.148438 281.308594 L 254.171875 312.640625 Z M 226.757812 275.910156 " clip-rule="nonzero"/></clipPath><clipPath id="3c3b3d560e"><path d="M 247.746094 260.246094 L 296.148438 281.308594 L 254.171875 312.640625 Z M 247.746094 260.246094 " clip-rule="nonzero"/></clipPath><clipPath id="ce0e7ffca5"><path d="M 227 315 L 276 315 L 276 369 L 227 369 Z M 227 315 " clip-rule="nonzero"/></clipPath><clipPath id="e36e4fd142"><path d="M 206.054688 331.464844 L 248.125 300.0625 L 275.492188 336.726562 L 233.417969 368.128906 Z M 206.054688 331.464844 " clip-rule="nonzero"/></clipPath><clipPath id="bf7373fb7b"><path d="M 206.054688 331.464844 L 248.03125 300.132812 L 275.445312 336.863281 L 233.46875 368.195312 Z M 206.054688 331.464844 " clip-rule="nonzero"/></clipPath><clipPath id="973e980f48"><path d="M 227.042969 315.800781 L 275.445312 336.863281 L 233.46875 368.195312 Z M 227.042969 315.800781 " clip-rule="nonzero"/></clipPath><clipPath id="f60c1a23fe"><path d="M 206 278 L 255 278 L 255 331 L 206 331 Z M 206 278 " clip-rule="nonzero"/></clipPath><clipPath id="bd480caa2e"><path d="M 185.105469 293.902344 L 227.175781 262.5 L 254.542969 299.160156 L 212.46875 330.566406 Z M 185.105469 293.902344 " clip-rule="nonzero"/></clipPath><clipPath id="6bc280b3f2"><path d="M 185.105469 293.902344 L 227.082031 262.570312 L 254.496094 299.296875 L 212.519531 330.628906 Z M 185.105469 293.902344 " clip-rule="nonzero"/></clipPath><clipPath id="5d83d0b25c"><path d="M 206.09375 278.234375 L 254.496094 299.296875 L 212.519531 330.628906 Z M 206.09375 278.234375 " clip-rule="nonzero"/></clipPath><clipPath id="72061bd584"><path d="M 314 222 L 363 222 L 363 275 L 314 275 Z M 314 222 " clip-rule="nonzero"/></clipPath><clipPath id="d31042fec4"><path d="M 293.511719 237.925781 L 335.585938 206.523438 L 362.949219 243.1875 L 320.878906 274.589844 Z M 293.511719 237.925781 " clip-rule="nonzero"/></clipPath><clipPath id="a31f362f24"><path d="M 293.515625 237.925781 L 335.488281 206.59375 L 362.90625 243.324219 L 320.929688 274.65625 Z M 293.515625 237.925781 " clip-rule="nonzero"/></clipPath><clipPath id="c67caebd7d"><path d="M 314.503906 222.261719 L 362.90625 243.324219 L 320.929688 274.65625 Z M 314.503906 222.261719 " clip-rule="nonzero"/></clipPath><clipPath id="953a7bd392"><path d="M 268 221 L 317 221 L 317 275 L 268 275 Z M 268 221 " clip-rule="nonzero"/></clipPath><clipPath id="1974c7c168"><path d="M 247.339844 237.40625 L 289.414062 206 L 316.777344 242.664062 L 274.707031 274.066406 Z M 247.339844 237.40625 " clip-rule="nonzero"/></clipPath><clipPath id="bf624b5c75"><path d="M 247.339844 237.402344 L 289.316406 206.074219 L 316.730469 242.800781 L 274.757812 274.132812 Z M 247.339844 237.402344 " clip-rule="nonzero"/></clipPath><clipPath id="eceb03956f"><path d="M 268.328125 221.738281 L 316.730469 242.800781 L 274.757812 274.132812 Z M 268.328125 221.738281 " clip-rule="nonzero"/></clipPath><clipPath id="46d11ac967"><path d="M 181 315 L 231 315 L 231 369 L 181 369 Z M 181 315 " clip-rule="nonzero"/></clipPath><clipPath id="18ecba5a21"><path d="M 160.90625 331.457031 L 202.976562 300.054688 L 230.34375 336.714844 L 188.273438 368.117188 Z M 160.90625 331.457031 " clip-rule="nonzero"/></clipPath><clipPath id="8d34901bf4"><path d="M 160.90625 331.457031 L 202.882812 300.125 L 230.296875 336.851562 L 188.320312 368.183594 Z M 160.90625 331.457031 " clip-rule="nonzero"/></clipPath><clipPath id="7ec4d5473a"><path d="M 181.894531 315.789062 L 230.296875 336.851562 L 188.320312 368.183594 Z M 181.894531 315.789062 " clip-rule="nonzero"/></clipPath><clipPath id="99406ad81d"><path d="M 137 316 L 187 316 L 187 369 L 137 369 Z M 137 316 " clip-rule="nonzero"/></clipPath><clipPath id="7e8fadcd75"><path d="M 116.792969 332.078125 L 158.867188 300.675781 L 186.230469 337.335938 L 144.160156 368.742188 Z M 116.792969 332.078125 " clip-rule="nonzero"/></clipPath><clipPath id="337622d1da"><path d="M 116.796875 332.078125 L 158.769531 300.746094 L 186.1875 337.472656 L 144.210938 368.804688 Z M 116.796875 332.078125 " clip-rule="nonzero"/></clipPath><clipPath id="d43a727813"><path d="M 137.785156 316.410156 L 186.1875 337.472656 L 144.210938 368.804688 Z M 137.785156 316.410156 " clip-rule="nonzero"/></clipPath><clipPath id="fb02392d47"><path d="M 161 278 L 211 278 L 211 331 L 161 331 Z M 161 278 " clip-rule="nonzero"/></clipPath><clipPath id="ac5e1e1410"><path d="M 140.652344 293.980469 L 182.722656 262.574219 L 210.089844 299.238281 L 168.019531 330.640625 Z M 140.652344 293.980469 " clip-rule="nonzero"/></clipPath><clipPath id="c716fe36f7"><path d="M 140.652344 293.976562 L 182.628906 262.648438 L 210.042969 299.375 L 168.066406 330.707031 Z M 140.652344 293.976562 " clip-rule="nonzero"/></clipPath><clipPath id="0fcbf20472"><path d="M 161.640625 278.3125 L 210.042969 299.375 L 168.066406 330.707031 Z M 161.640625 278.3125 " clip-rule="nonzero"/></clipPath><clipPath id="0a956fe373"><path d="M 208 231 L 257 231 L 257 284 L 208 284 Z M 208 231 " clip-rule="nonzero"/></clipPath><clipPath id="dd1ec33e30"><path d="M 187.234375 247.179688 L 229.304688 215.777344 L 256.671875 252.4375 L 214.601562 283.84375 Z M 187.234375 247.179688 " clip-rule="nonzero"/></clipPath><clipPath id="103bdc487f"><path d="M 187.234375 247.179688 L 229.210938 215.847656 L 256.625 252.574219 L 214.652344 283.90625 Z M 187.234375 247.179688 " clip-rule="nonzero"/></clipPath><clipPath id="86f6d26379"><path d="M 208.222656 231.511719 L 256.625 252.574219 L 214.652344 283.90625 Z M 208.222656 231.511719 " clip-rule="nonzero"/></clipPath><clipPath id="2aa6ce81bf"><path d="M 232 192 L 281 192 L 281 245 L 232 245 Z M 232 192 " clip-rule="nonzero"/></clipPath><clipPath id="3efd4506df"><path d="M 211.382812 207.832031 L 253.457031 176.429688 L 280.820312 213.09375 L 238.75 244.496094 Z M 211.382812 207.832031 " clip-rule="nonzero"/></clipPath><clipPath id="05d3380e10"><path d="M 211.382812 207.832031 L 253.359375 176.5 L 280.773438 213.230469 L 238.800781 244.558594 Z M 211.382812 207.832031 " clip-rule="nonzero"/></clipPath><clipPath id="4f89dce23c"><path d="M 232.371094 192.167969 L 280.773438 213.230469 L 238.800781 244.558594 Z M 232.371094 192.167969 " clip-rule="nonzero"/></clipPath><clipPath id="e39605b903"><path d="M 292 184 L 341 184 L 341 237 L 292 237 Z M 292 184 " clip-rule="nonzero"/></clipPath><clipPath id="c2dae3c46c"><path d="M 271.289062 199.898438 L 313.359375 168.496094 L 340.726562 205.160156 L 298.652344 236.5625 Z M 271.289062 199.898438 " clip-rule="nonzero"/></clipPath><clipPath id="d78b71ab38"><path d="M 271.289062 199.898438 L 313.265625 168.566406 L 340.679688 205.296875 L 298.703125 236.625 Z M 271.289062 199.898438 " clip-rule="nonzero"/></clipPath><clipPath id="0c92ef242f"><path d="M 292.277344 184.230469 L 340.679688 205.296875 L 298.703125 236.625 Z M 292.277344 184.230469 " clip-rule="nonzero"/></clipPath><clipPath id="2e5e08aa16"><path d="M 323 147 L 373 147 L 373 201 L 323 201 Z M 323 147 " clip-rule="nonzero"/></clipPath><clipPath id="a1a37e2f31"><path d="M 302.796875 163.613281 L 344.871094 132.207031 L 372.238281 168.871094 L 330.164062 200.273438 Z M 302.796875 163.613281 " clip-rule="nonzero"/></clipPath><clipPath id="e9fcb839b0"><path d="M 302.800781 163.609375 L 344.777344 132.28125 L 372.191406 169.007812 L 330.214844 200.339844 Z M 302.800781 163.609375 " clip-rule="nonzero"/></clipPath><clipPath id="44c4a88028"><path d="M 323.789062 147.945312 L 372.191406 169.007812 L 330.214844 200.339844 Z M 323.789062 147.945312 " clip-rule="nonzero"/></clipPath><clipPath id="fe3f1794bb"><path d="M 256 155 L 305 155 L 305 208 L 256 208 Z M 256 155 " clip-rule="nonzero"/></clipPath><clipPath id="4db7359ac0"><path d="M 235.464844 171.210938 L 277.535156 139.808594 L 304.902344 176.472656 L 262.828125 207.875 Z M 235.464844 171.210938 " clip-rule="nonzero"/></clipPath><clipPath id="662eae8de4"><path d="M 235.464844 171.210938 L 277.441406 139.878906 L 304.855469 176.609375 L 262.878906 207.941406 Z M 235.464844 171.210938 " clip-rule="nonzero"/></clipPath><clipPath id="36370b4937"><path d="M 256.453125 155.546875 L 304.855469 176.609375 L 262.878906 207.941406 Z M 256.453125 155.546875 " clip-rule="nonzero"/></clipPath><clipPath id="cce8333278"><path d="M 286 119 L 336 119 L 336 172 L 286 172 Z M 286 119 " clip-rule="nonzero"/></clipPath><clipPath id="2ecbc03be6"><path d="M 265.761719 135.125 L 307.832031 103.722656 L 335.199219 140.386719 L 293.128906 171.789062 Z M 265.761719 135.125 " clip-rule="nonzero"/></clipPath><clipPath id="6c56d11c13"><path d="M 265.761719 135.125 L 307.738281 103.792969 L 335.152344 140.523438 L 293.179688 171.851562 Z M 265.761719 135.125 " clip-rule="nonzero"/></clipPath><clipPath id="55ab168ff2"><path d="M 286.75 119.457031 L 335.152344 140.523438 L 293.179688 171.851562 Z M 286.75 119.457031 " clip-rule="nonzero"/></clipPath><clipPath id="cc86b55847"><path d="M 304 79 L 354 79 L 354 133 L 304 133 Z M 304 79 " clip-rule="nonzero"/></clipPath><clipPath id="3912f369d3"><path d="M 283.964844 95.636719 L 326.039062 64.230469 L 353.402344 100.894531 L 311.332031 132.296875 Z M 283.964844 95.636719 " clip-rule="nonzero"/></clipPath><clipPath id="5a1e25e40f"><path d="M 283.964844 95.632812 L 325.941406 64.304688 L 353.355469 101.03125 L 311.382812 132.363281 Z M 283.964844 95.632812 " clip-rule="nonzero"/></clipPath><clipPath id="41c03083cb"><path d="M 304.953125 79.96875 L 353.355469 101.03125 L 311.382812 132.363281 Z M 304.953125 79.96875 " clip-rule="nonzero"/></clipPath><clipPath id="b935d2b514"><path d="M 85 297 L 134 297 L 134 351 L 85 351 Z M 85 297 " clip-rule="nonzero"/></clipPath><clipPath id="65bfe50e55"><path d="M 64.402344 313.640625 L 106.472656 282.238281 L 133.839844 318.898438 L 91.769531 350.304688 Z M 64.402344 313.640625 " clip-rule="nonzero"/></clipPath><clipPath id="9f9bbe07b3"><path d="M 64.402344 313.640625 L 106.378906 282.308594 L 133.792969 319.035156 L 91.816406 350.367188 Z M 64.402344 313.640625 " clip-rule="nonzero"/></clipPath><clipPath id="b816b2aa05"><path d="M 85.390625 297.972656 L 133.792969 319.035156 L 91.816406 350.367188 Z M 85.390625 297.972656 " clip-rule="nonzero"/></clipPath><clipPath id="6236da7b0e"><path d="M 98 252 L 147 252 L 147 305 L 98 305 Z M 98 252 " clip-rule="nonzero"/></clipPath><clipPath id="b93a21d60f"><path d="M 77.246094 267.976562 L 119.320312 236.574219 L 146.6875 273.234375 L 104.613281 304.640625 Z M 77.246094 267.976562 " clip-rule="nonzero"/></clipPath><clipPath id="6c5ff87a1c"><path d="M 77.25 267.976562 L 119.226562 236.644531 L 146.640625 273.371094 L 104.664062 304.703125 Z M 77.25 267.976562 " clip-rule="nonzero"/></clipPath><clipPath id="bd23020701"><path d="M 98.238281 252.308594 L 146.640625 273.371094 L 104.664062 304.703125 Z M 98.238281 252.308594 " clip-rule="nonzero"/></clipPath><clipPath id="52b12c3fb8"><path d="M 143 234 L 193 234 L 193 287 L 143 287 Z M 143 234 " clip-rule="nonzero"/></clipPath><clipPath id="c24c393016"><path d="M 122.671875 249.769531 L 164.746094 218.367188 L 192.109375 255.03125 L 150.039062 286.433594 Z M 122.671875 249.769531 " clip-rule="nonzero"/></clipPath><clipPath id="bd0a8cffcd"><path d="M 122.671875 249.769531 L 164.648438 218.4375 L 192.0625 255.167969 L 150.089844 286.5 Z M 122.671875 249.769531 " clip-rule="nonzero"/></clipPath><clipPath id="bda38bacaf"><path d="M 143.660156 234.105469 L 192.0625 255.167969 L 150.089844 286.5 Z M 143.660156 234.105469 " clip-rule="nonzero"/></clipPath><clipPath id="88d3055445"><path d="M 116 197 L 165 197 L 165 251 L 116 251 Z M 116 197 " clip-rule="nonzero"/></clipPath><clipPath id="def78929ce"><path d="M 95.050781 213.632812 L 137.121094 182.226562 L 164.488281 218.890625 L 122.414062 250.292969 Z M 95.050781 213.632812 " clip-rule="nonzero"/></clipPath><clipPath id="ebb001de7f"><path d="M 95.050781 213.632812 L 137.027344 182.300781 L 164.441406 219.027344 L 122.464844 250.359375 Z M 95.050781 213.632812 " clip-rule="nonzero"/></clipPath><clipPath id="1ec82f0160"><path d="M 116.039062 197.964844 L 164.441406 219.027344 L 122.464844 250.359375 Z M 116.039062 197.964844 " clip-rule="nonzero"/></clipPath><clipPath id="50adb5231d"><path d="M 137 157 L 187 157 L 187 210 L 137 210 Z M 137 157 " clip-rule="nonzero"/></clipPath><clipPath id="52636fbf28"><path d="M 116.792969 172.871094 L 158.867188 141.46875 L 186.230469 178.128906 L 144.160156 209.535156 Z M 116.792969 172.871094 " clip-rule="nonzero"/></clipPath><clipPath id="3bb155501f"><path d="M 116.796875 172.871094 L 158.769531 141.539062 L 186.1875 178.265625 L 144.210938 209.597656 Z M 116.796875 172.871094 " clip-rule="nonzero"/></clipPath><clipPath id="72b21dfe9b"><path d="M 137.785156 157.203125 L 186.1875 178.265625 L 144.210938 209.597656 Z M 137.785156 157.203125 " clip-rule="nonzero"/></clipPath><clipPath id="d0e2f995a1"><path d="M 168 192 L 217 192 L 217 245 L 168 245 Z M 168 192 " clip-rule="nonzero"/></clipPath><clipPath id="1738c034ae"><path d="M 147.46875 207.835938 L 189.542969 176.433594 L 216.90625 213.09375 L 174.835938 244.5 Z M 147.46875 207.835938 " clip-rule="nonzero"/></clipPath><clipPath id="bba3e2cf1e"><path d="M 147.472656 207.835938 L 189.445312 176.503906 L 216.859375 213.230469 L 174.886719 244.5625 Z M 147.472656 207.835938 " clip-rule="nonzero"/></clipPath><clipPath id="16c5b5dc51"><path d="M 168.457031 192.167969 L 216.859375 213.230469 L 174.886719 244.5625 Z M 168.457031 192.167969 " clip-rule="nonzero"/></clipPath><clipPath id="816ce1c90b"><path d="M 202 157 L 251 157 L 251 210 L 202 210 Z M 202 157 " clip-rule="nonzero"/></clipPath><clipPath id="e731788efe"><path d="M 181.085938 172.871094 L 223.160156 141.46875 L 250.523438 178.128906 L 208.453125 209.535156 Z M 181.085938 172.871094 " clip-rule="nonzero"/></clipPath><clipPath id="60b1a13264"><path d="M 181.089844 172.871094 L 223.0625 141.539062 L 250.480469 178.265625 L 208.503906 209.597656 Z M 181.089844 172.871094 " clip-rule="nonzero"/></clipPath><clipPath id="9fd283e921"><path d="M 202.074219 157.203125 L 250.480469 178.265625 L 208.503906 209.597656 Z M 202.074219 157.203125 " clip-rule="nonzero"/></clipPath><clipPath id="a03abfe493"><path d="M 227 116 L 276 116 L 276 169 L 227 169 Z M 227 116 " clip-rule="nonzero"/></clipPath><clipPath id="365800470a"><path d="M 206.054688 131.820312 L 248.125 100.417969 L 275.492188 137.082031 L 233.417969 168.484375 Z M 206.054688 131.820312 " clip-rule="nonzero"/></clipPath><clipPath id="eee417a9bb"><path d="M 206.054688 131.820312 L 248.03125 100.488281 L 275.445312 137.21875 L 233.46875 168.550781 Z M 206.054688 131.820312 " clip-rule="nonzero"/></clipPath><clipPath id="f6f9087b4e"><path d="M 227.042969 116.15625 L 275.445312 137.21875 L 233.46875 168.550781 Z M 227.042969 116.15625 " clip-rule="nonzero"/></clipPath><clipPath id="8ce7aa7503"><path d="M 150 118 L 201 118 L 201 170 L 150 170 Z M 150 118 " clip-rule="nonzero"/></clipPath><clipPath id="217cf10353"><path d="M 219.792969 151.574219 L 181.9375 187.949219 L 150.238281 154.960938 L 188.09375 118.585938 Z M 219.792969 151.574219 " clip-rule="nonzero"/></clipPath><clipPath id="9af27631fa"><path d="M 219.792969 151.574219 L 182.019531 187.867188 L 150.265625 154.816406 L 188.039062 118.527344 Z M 219.792969 151.574219 " clip-rule="nonzero"/></clipPath><clipPath id="8472bccd5d"><path d="M 200.90625 169.722656 L 150.265625 154.816406 L 188.039062 118.527344 Z M 200.90625 169.722656 " clip-rule="nonzero"/></clipPath><clipPath id="fb96667146"><path d="M 194 37 L 245 37 L 245 89 L 194 89 Z M 194 37 " clip-rule="nonzero"/></clipPath><clipPath id="281798e20e"><path d="M 263.773438 70.550781 L 225.914062 106.925781 L 194.21875 73.933594 L 232.074219 37.5625 Z M 263.773438 70.550781 " clip-rule="nonzero"/></clipPath><clipPath id="b9f065f16d"><path d="M 263.769531 70.550781 L 226 106.84375 L 194.246094 73.792969 L 232.015625 37.503906 Z M 263.769531 70.550781 " clip-rule="nonzero"/></clipPath><clipPath id="aad9bdd6ca"><path d="M 244.886719 88.699219 L 194.246094 73.792969 L 232.015625 37.503906 Z M 244.886719 88.699219 " clip-rule="nonzero"/></clipPath><clipPath id="c84f1428be"><path d="M 176 78 L 228 78 L 228 130 L 176 130 Z M 176 78 " clip-rule="nonzero"/></clipPath><clipPath id="109c19ef05"><path d="M 246.070312 111.3125 L 208.214844 147.6875 L 176.515625 114.695312 L 214.375 78.320312 Z M 246.070312 111.3125 " clip-rule="nonzero"/></clipPath><clipPath id="9a816f86a1"><path d="M 246.070312 111.3125 L 208.300781 147.605469 L 176.546875 114.554688 L 214.316406 78.265625 Z M 246.070312 111.3125 " clip-rule="nonzero"/></clipPath><clipPath id="0c8d7f2a85"><path d="M 227.1875 129.457031 L 176.546875 114.554688 L 214.316406 78.265625 Z M 227.1875 129.457031 " clip-rule="nonzero"/></clipPath><clipPath id="d3390a86f9"><path d="M 240 68 L 292 68 L 292 120 L 240 120 Z M 240 68 " clip-rule="nonzero"/></clipPath><clipPath id="7e47e430a7"><path d="M 297.757812 79.683594 L 284.863281 130.574219 L 240.515625 119.335938 L 253.410156 68.445312 Z M 297.757812 79.683594 " clip-rule="nonzero"/></clipPath><clipPath id="b62b5fb607"><path d="M 297.757812 79.683594 L 284.894531 130.457031 L 240.464844 119.203125 L 253.328125 68.425781 Z M 297.757812 79.683594 " clip-rule="nonzero"/></clipPath><clipPath id="cabb04c160"><path d="M 291.324219 105.070312 L 240.464844 119.203125 L 253.328125 68.425781 Z M 291.324219 105.070312 " clip-rule="nonzero"/></clipPath><clipPath id="e57e6fa942"><path d="M 236 22 L 288 22 L 288 75 L 236 75 Z M 236 22 " clip-rule="nonzero"/></clipPath><clipPath id="ea93eab079"><path d="M 306.042969 55.929688 L 268.1875 92.304688 L 236.488281 59.316406 L 274.347656 22.941406 Z M 306.042969 55.929688 " clip-rule="nonzero"/></clipPath><clipPath id="e19c779481"><path d="M 306.042969 55.929688 L 268.273438 92.222656 L 236.519531 59.171875 L 274.289062 22.882812 Z M 306.042969 55.929688 " clip-rule="nonzero"/></clipPath><clipPath id="ac10c9fe6b"><path d="M 287.15625 74.078125 L 236.519531 59.171875 L 274.289062 22.882812 Z M 287.15625 74.078125 " clip-rule="nonzero"/></clipPath></defs><g clip-path="url(#a048594446)"><g clip-path="url(#752ff63102)"><path fill="#20e468" d="M 0 0.605469 L 374.394531 0.605469 L 374.394531 375 L 0 375 Z M 0 0.605469 " fill-opacity="1" fill-rule="nonzero"/></g></g><g clip-path="url(#ff06cf9d67)"><g clip-path="url(#c92d34c138)"><g clip-path="url(#7981934f5e)"><g clip-path="url(#cfe8020b36)"><path stroke-linecap="butt" transform="matrix(-0.540817, 0.519632, -0.519632, -0.540817, 107.028453, 70.551917)" fill="none" stroke-linejoin="miter" d="M 34.920282 -0.00297628 L 69.838561 61.109978 L 0.00149339 61.109045 Z M 34.920282 -0.00297628 " stroke="#000000" stroke-width="10" stroke-opacity="1" stroke-miterlimit="4"/></g></g></g></g><g clip-path="url(#0b8359aacc)"><g clip-path="url(#316da0a2c1)"><g clip-path="url(#c0bb787196)"><g clip-path="url(#0d4205288f)"><path stroke-linecap="butt" transform="matrix(-0.540817, 0.519632, -0.519632, -0.540817, 90.267399, 111.312979)" fill="none" stroke-linejoin="miter" d="M 34.917919 0.000762071 L 69.839807 61.109961 L 0.00273901 61.109028 Z M 34.917919 0.000762071 " stroke="#000000" stroke-width="10" stroke-opacity="1" stroke-miterlimit="4"/></g></g></g></g><g clip-path="url(#509b720efe)"><g clip-path="url(#6db3528567)"><g clip-path="url(#44dbf3fae6)"><g clip-path="url(#9fefee3c03)"><path stroke-linecap="butt" transform="matrix(-0.540817, 0.519632, -0.519632, -0.540817, 133.793945, 105.230501)" fill="none" stroke-linejoin="miter" d="M 34.917565 -0.000404466 L 69.839452 61.108794 L -0.0012239 61.111617 Z M 34.917565 -0.000404466 " stroke="#000000" stroke-width="10" stroke-opacity="1" stroke-miterlimit="4"/></g></g></g></g><g clip-path="url(#2afc32b98b)"><g clip-path="url(#28b28f67f0)"><g clip-path="url(#e8d1b88938)"><g clip-path="url(#27d3ee3fc5)"><path stroke-linecap="butt" transform="matrix(-0.540817, 0.519632, -0.519632, -0.540817, 147.453232, 47.540248)" fill="none" stroke-linejoin="miter" d="M 34.923028 -0.000245708 L 69.837551 61.1091 L 0.000483665 61.108167 Z M 34.923028 -0.000245708 " stroke="#000000" stroke-width="10" stroke-opacity="1" stroke-miterlimit="4"/></g></g></g></g><g clip-path="url(#92ce44f1a0)"><g clip-path="url(#900c97e9c9)"><g clip-path="url(#d44573c7f4)"><g clip-path="url(#5917520de2)"><path stroke-linecap="butt" transform="matrix(-0.540817, 0.519632, -0.519632, -0.540817, 172.89572, 82.218818)" fill="none" stroke-linejoin="miter" d="M 34.917736 -0.000174775 L 69.839623 61.109024 L -0.00105309 61.111847 Z M 34.917736 -0.000174775 " stroke="#000000" stroke-width="10" stroke-opacity="1" stroke-miterlimit="4"/></g></g></g></g><g clip-path="url(#ebf569d055)"><g clip-path="url(#ce4c23e67a)"><g clip-path="url(#fe8f45e79a)"><g clip-path="url(#f3b96294cd)"><path stroke-linecap="butt" transform="matrix(-0.540817, 0.519632, -0.519632, -0.540817, 72.257388, 151.19476)" fill="none" stroke-linejoin="miter" d="M 34.920513 0.00134773 L 69.838645 61.106938 L -0.00203135 61.109761 Z M 34.920513 0.00134773 " stroke="#000000" stroke-width="10" stroke-opacity="1" stroke-miterlimit="4"/></g></g></g></g><g clip-path="url(#18bcd2c1b3)"><g clip-path="url(#bc5a9463d2)"><g clip-path="url(#dbdedf4912)"><g clip-path="url(#3f2ea2fd02)"><path stroke-linecap="butt" transform="matrix(-0.540817, 0.519632, -0.519632, -0.540817, 118.139082, 145.991563)" fill="none" stroke-linejoin="miter" d="M 34.919505 0.000245542 L 69.841392 61.109444 L 0.000716249 61.112267 Z M 34.919505 0.000245542 " stroke="#000000" stroke-width="10" stroke-opacity="1" stroke-miterlimit="4"/></g></g></g></g><g clip-path="url(#582941c71a)"><g clip-path="url(#999c968878)"><g clip-path="url(#4097c5852d)"><g clip-path="url(#2b547a50ee)"><path stroke-linecap="butt" transform="matrix(-0.540817, 0.519632, -0.519632, -0.540817, 192.254128, 41.955825)" fill="none" stroke-linejoin="miter" d="M 34.921739 0.00131608 L 69.83987 61.106906 L -0.000805764 61.109729 Z M 34.921739 0.00131608 " stroke="#000000" stroke-width="10" stroke-opacity="1" stroke-miterlimit="4"/></g></g></g></g><g clip-path="url(#4f5726eb18)"><g clip-path="url(#7b443cdfc8)"><g clip-path="url(#5f10c6e72d)"><g clip-path="url(#9fbc8e830d)"><path stroke-linecap="butt" transform="matrix(-0.540817, 0.519632, -0.519632, -0.540817, 235.948818, 35.873344)" fill="none" stroke-linejoin="miter" d="M 34.921556 0.000307962 L 69.836079 61.109654 L -0.000988305 61.108721 Z M 34.921556 0.000307962 " stroke="#000000" stroke-width="10" stroke-opacity="1" stroke-miterlimit="4"/></g></g></g></g><g clip-path="url(#67e979b9dc)"><g clip-path="url(#17f030d1df)"><g clip-path="url(#a5a76640f2)"><g clip-path="url(#c9f2d31872)"><path stroke-linecap="butt" transform="matrix(-0.540817, 0.519632, -0.519632, -0.540817, 216.995381, 76.634402)" fill="none" stroke-linejoin="miter" d="M 34.921866 -0.000615181 L 69.836389 61.108731 L -0.000678516 61.107798 Z M 34.921866 -0.000615181 " stroke="#000000" stroke-width="10" stroke-opacity="1" stroke-miterlimit="4"/></g></g></g></g><g clip-path="url(#1167838bf1)"><g clip-path="url(#04054dfee1)"><g clip-path="url(#b111d3b26d)"><g clip-path="url(#be24c9bc5d)"><path stroke-linecap="butt" transform="matrix(-0.540817, 0.519632, -0.519632, -0.540817, 176.570619, 128.84554)" fill="none" stroke-linejoin="miter" d="M 34.922661 0.000518425 L 69.837184 61.109864 L 0.000116665 61.108931 Z M 34.922661 0.000518425 " stroke="#000000" stroke-width="10" stroke-opacity="1" stroke-miterlimit="4"/></g></g></g></g><g clip-path="url(#dd4211180f)"><g clip-path="url(#57274d75ce)"><g clip-path="url(#b2c92a2257)"><g clip-path="url(#2ba2071863)"><path stroke-linecap="butt" transform="matrix(-0.540817, 0.519632, -0.519632, -0.540817, 157.48306, 170.880942)" fill="none" stroke-linejoin="miter" d="M 34.920875 -0.000742952 L 69.839154 61.112212 L -0.00166914 61.10767 Z M 34.920875 -0.000742952 " stroke="#000000" stroke-width="10" stroke-opacity="1" stroke-miterlimit="4"/></g></g></g></g><g clip-path="url(#32343b2bce)"><g clip-path="url(#da8c963f6e)"><g clip-path="url(#f79740a6ed)"><g clip-path="url(#15351cfc1e)"><path stroke-linecap="butt" transform="matrix(-0.540817, 0.519632, -0.519632, -0.540817, 99.022872, 186.175754)" fill="none" stroke-linejoin="miter" d="M 34.919893 0.00172279 L 69.838025 61.107313 L -0.00265125 61.110136 Z M 34.919893 0.00172279 " stroke="#000000" stroke-width="10" stroke-opacity="1" stroke-miterlimit="4"/></g></g></g></g><g clip-path="url(#0a0f2ddef4)"><g clip-path="url(#e59d5267da)"><g clip-path="url(#2aacd3aa20)"><g clip-path="url(#01fa70fd64)"><path stroke-linecap="butt" transform="matrix(-0.540817, 0.519632, -0.519632, -0.540817, 77.911091, 226.551914)" fill="none" stroke-linejoin="miter" d="M 34.920117 -0.00314049 L 69.838396 61.109814 L 0.00132835 61.108881 Z M 34.920117 -0.00314049 " stroke="#000000" stroke-width="10" stroke-opacity="1" stroke-miterlimit="4"/></g></g></g></g><g clip-path="url(#5791691fc2)"><g clip-path="url(#17126e7a2c)"><g clip-path="url(#0d374c9329)"><g clip-path="url(#292517678f)"><path stroke-linecap="butt" transform="matrix(-0.540817, 0.519632, -0.519632, -0.540817, 138.124639, 210.202721)" fill="none" stroke-linejoin="miter" d="M 34.920438 0.00154972 L 69.838569 61.10714 L -0.00210677 61.109962 Z M 34.920438 0.00154972 " stroke="#000000" stroke-width="10" stroke-opacity="1" stroke-miterlimit="4"/></g></g></g></g><g clip-path="url(#26fbbb3044)"><g clip-path="url(#232435596e)"><g clip-path="url(#849b271bcc)"><g clip-path="url(#ecfc5e8978)"><path stroke-linecap="butt" transform="matrix(-0.540817, 0.519632, -0.519632, -0.540817, 118.139082, 251.488109)" fill="none" stroke-linejoin="miter" d="M 34.919088 0.000680236 L 69.840975 61.109879 L 0.000298583 61.112702 Z M 34.919088 0.000680236 " stroke="#000000" stroke-width="10" stroke-opacity="1" stroke-miterlimit="4"/></g></g></g></g><g clip-path="url(#bcc2467c41)"><g clip-path="url(#f5c229f250)"><g clip-path="url(#d9cb110785)"><g clip-path="url(#2eb52883f7)"><path stroke-linecap="butt" transform="matrix(-0.540817, 0.519632, -0.519632, -0.540817, 103.353564, 290.809875)" fill="none" stroke-linejoin="miter" d="M 34.921006 -0.00201292 L 69.839285 61.110942 L 0.00221692 61.110008 Z M 34.921006 -0.00201292 " stroke="#000000" stroke-width="10" stroke-opacity="1" stroke-miterlimit="4"/></g></g></g></g><g clip-path="url(#81b9cfc724)"><g clip-path="url(#e77767bb90)"><g clip-path="url(#34b8dc2862)"><g clip-path="url(#b454659ed3)"><path stroke-linecap="butt" transform="matrix(0.601033, -0.44862, 0.44862, 0.601033, 249.019207, 313.639023)" fill="none" stroke-linejoin="miter" d="M 34.921033 -0.000166432 L 69.84074 61.108285 L -0.0000738731 61.108383 Z M 34.921033 -0.000166432 " stroke="#000000" stroke-width="10" stroke-opacity="1" stroke-miterlimit="4"/></g></g></g></g><g clip-path="url(#d1e93cd884)"><g clip-path="url(#c099491faa)"><g clip-path="url(#836dfc1fcf)"><g clip-path="url(#69ee19b8a9)"><path stroke-linecap="butt" transform="matrix(0.601033, -0.44862, 0.44862, 0.601033, 270.701471, 275.268762)" fill="none" stroke-linejoin="miter" d="M 34.918945 -0.0031101 L 69.83971 61.11263 L 0.00201141 61.108555 Z M 34.918945 -0.0031101 " stroke="#000000" stroke-width="10" stroke-opacity="1" stroke-miterlimit="4"/></g></g></g></g><g clip-path="url(#8ef1bba530)"><g clip-path="url(#ec26dbae0a)"><g clip-path="url(#4fc1c84d04)"><g clip-path="url(#3c3b3d560e)"><path stroke-linecap="butt" transform="matrix(0.601033, -0.44862, 0.44862, 0.601033, 226.756703, 275.911359)" fill="none" stroke-linejoin="miter" d="M 34.920994 0.00163682 L 69.840701 61.110088 L -0.00011312 61.110186 Z M 34.920994 0.00163682 " stroke="#000000" stroke-width="10" stroke-opacity="1" stroke-miterlimit="4"/></g></g></g></g><g clip-path="url(#ce0e7ffca5)"><g clip-path="url(#e36e4fd142)"><g clip-path="url(#bf7373fb7b)"><g clip-path="url(#973e980f48)"><path stroke-linecap="butt" transform="matrix(0.601033, -0.44862, 0.44862, 0.601033, 206.054727, 331.464677)" fill="none" stroke-linejoin="miter" d="M 34.918674 0.00218486 L 69.83838 61.110636 L -0.00243349 61.110734 Z M 34.918674 0.00218486 " stroke="#000000" stroke-width="10" stroke-opacity="1" stroke-miterlimit="4"/></g></g></g></g><g clip-path="url(#f60c1a23fe)"><g clip-path="url(#bd480caa2e)"><g clip-path="url(#6bc280b3f2)"><g clip-path="url(#5d83d0b25c)"><path stroke-linecap="butt" transform="matrix(0.601033, -0.44862, 0.44862, 0.601033, 185.105047, 293.900957)" fill="none" stroke-linejoin="miter" d="M 34.921309 -0.000317433 L 69.841016 61.108134 L 0.000202061 61.108232 Z M 34.921309 -0.000317433 " stroke="#000000" stroke-width="10" stroke-opacity="1" stroke-miterlimit="4"/></g></g></g></g><g clip-path="url(#72061bd584)"><g clip-path="url(#d31042fec4)"><g clip-path="url(#a31f362f24)"><g clip-path="url(#c67caebd7d)"><path stroke-linecap="butt" transform="matrix(0.601033, -0.44862, 0.44862, 0.601033, 293.514127, 237.925751)" fill="none" stroke-linejoin="miter" d="M 34.920426 0.00326519 L 69.840132 61.111717 L -0.000681534 61.111815 Z M 34.920426 0.00326519 " stroke="#000000" stroke-width="10" stroke-opacity="1" stroke-miterlimit="4"/></g></g></g></g><g clip-path="url(#953a7bd392)"><g clip-path="url(#1974c7c168)"><g clip-path="url(#bf624b5c75)"><g clip-path="url(#eceb03956f)"><path stroke-linecap="butt" transform="matrix(0.601033, -0.44862, 0.44862, 0.601033, 247.341317, 237.404046)" fill="none" stroke-linejoin="miter" d="M 34.918633 -0.000956131 L 69.838339 61.107495 L 0.0016992 61.110709 Z M 34.918633 -0.000956131 " stroke="#000000" stroke-width="10" stroke-opacity="1" stroke-miterlimit="4"/></g></g></g></g><g clip-path="url(#46d11ac967)"><g clip-path="url(#18ecba5a21)"><g clip-path="url(#8d34901bf4)"><g clip-path="url(#7ec4d5473a)"><path stroke-linecap="butt" transform="matrix(0.601033, -0.44862, 0.44862, 0.601033, 160.907161, 331.455153)" fill="none" stroke-linejoin="miter" d="M 34.919493 -0.000856289 L 69.8392 61.107595 L -0.00161381 61.107693 Z M 34.919493 -0.000856289 " stroke="#000000" stroke-width="10" stroke-opacity="1" stroke-miterlimit="4"/></g></g></g></g><g clip-path="url(#99406ad81d)"><g clip-path="url(#7e8fadcd75)"><g clip-path="url(#337622d1da)"><g clip-path="url(#d43a727813)"><path stroke-linecap="butt" transform="matrix(0.601033, -0.44862, 0.44862, 0.601033, 116.795526, 332.076921)" fill="none" stroke-linejoin="miter" d="M 34.922446 0.000225535 L 69.842152 61.108677 L 0.0013384 61.108775 Z M 34.922446 0.000225535 " stroke="#000000" stroke-width="10" stroke-opacity="1" stroke-miterlimit="4"/></g></g></g></g><g clip-path="url(#fb02392d47)"><g clip-path="url(#ac5e1e1410)"><g clip-path="url(#c716fe36f7)"><g clip-path="url(#0fcbf20472)"><path stroke-linecap="butt" transform="matrix(0.601033, -0.44862, 0.44862, 0.601033, 140.653267, 293.97833)" fill="none" stroke-linejoin="miter" d="M 34.919272 -0.000587669 L 69.838979 61.107864 L -0.00183491 61.107962 Z M 34.919272 -0.000587669 " stroke="#000000" stroke-width="10" stroke-opacity="1" stroke-miterlimit="4"/></g></g></g></g><g clip-path="url(#0a956fe373)"><g clip-path="url(#dd1ec33e30)"><g clip-path="url(#103bdc487f)"><g clip-path="url(#86f6d26379)"><path stroke-linecap="butt" transform="matrix(0.601033, -0.44862, 0.44862, 0.601033, 187.235603, 247.178187)" fill="none" stroke-linejoin="miter" d="M 34.919455 -0.00151246 L 69.839162 61.106939 L 0.00252192 61.110153 Z M 34.919455 -0.00151246 " stroke="#000000" stroke-width="10" stroke-opacity="1" stroke-miterlimit="4"/></g></g></g></g><g clip-path="url(#2aa6ce81bf)"><g clip-path="url(#3efd4506df)"><g clip-path="url(#05d3380e10)"><g clip-path="url(#4f89dce23c)"><path stroke-linecap="butt" transform="matrix(0.601033, -0.44862, 0.44862, 0.601033, 211.384327, 207.831666)" fill="none" stroke-linejoin="miter" d="M 34.916939 0.0012203 L 69.836646 61.109672 L 0.00312087 61.108712 Z M 34.916939 0.0012203 " stroke="#000000" stroke-width="10" stroke-opacity="1" stroke-miterlimit="4"/></g></g></g></g><g clip-path="url(#e39605b903)"><g clip-path="url(#c2dae3c46c)"><g clip-path="url(#d78b71ab38)"><g clip-path="url(#0c92ef242f)"><path stroke-linecap="butt" transform="matrix(0.601033, -0.44862, 0.44862, 0.601033, 271.289079, 199.898029)" fill="none" stroke-linejoin="miter" d="M 34.921621 -0.00171342 L 69.838212 61.110912 L 0.000513655 61.106836 Z M 34.921621 -0.00171342 " stroke="#000000" stroke-width="10" stroke-opacity="1" stroke-miterlimit="4"/></g></g></g></g><g clip-path="url(#2e5e08aa16)"><g clip-path="url(#a1a37e2f31)"><g clip-path="url(#e9fcb839b0)"><g clip-path="url(#44c4a88028)"><path stroke-linecap="butt" transform="matrix(0.601033, -0.44862, 0.44862, 0.601033, 302.799769, 163.610747)" fill="none" stroke-linejoin="miter" d="M 34.921025 0.00137892 L 69.840731 61.10983 L -0.0000827662 61.109929 Z M 34.921025 0.00137892 " stroke="#000000" stroke-width="10" stroke-opacity="1" stroke-miterlimit="4"/></g></g></g></g><g clip-path="url(#fe3f1794bb)"><g clip-path="url(#4db7359ac0)"><g clip-path="url(#662eae8de4)"><g clip-path="url(#36370b4937)"><path stroke-linecap="butt" transform="matrix(0.601033, -0.44862, 0.44862, 0.601033, 235.465609, 171.211424)" fill="none" stroke-linejoin="miter" d="M 34.91842 0.000907637 L 69.838126 61.109359 L -0.00268777 61.109457 Z M 34.91842 0.000907637 " stroke="#000000" stroke-width="10" stroke-opacity="1" stroke-miterlimit="4"/></g></g></g></g><g clip-path="url(#cce8333278)"><g clip-path="url(#2ecbc03be6)"><g clip-path="url(#6c56d11c13)"><g clip-path="url(#55ab168ff2)"><path stroke-linecap="butt" transform="matrix(0.601033, -0.44862, 0.44862, 0.601033, 265.762897, 135.124532)" fill="none" stroke-linejoin="miter" d="M 34.920332 -0.002576 L 69.836923 61.110049 L 0.00339847 61.109089 Z M 34.920332 -0.002576 " stroke="#000000" stroke-width="10" stroke-opacity="1" stroke-miterlimit="4"/></g></g></g></g><g clip-path="url(#cc86b55847)"><g clip-path="url(#3912f369d3)"><g clip-path="url(#5a1e25e40f)"><g clip-path="url(#41c03083cb)"><path stroke-linecap="butt" transform="matrix(0.601033, -0.44862, 0.44862, 0.601033, 283.966303, 95.634258)" fill="none" stroke-linejoin="miter" d="M 34.918442 -0.000670632 L 69.838149 61.107781 L 0.00150874 61.110994 Z M 34.918442 -0.000670632 " stroke="#000000" stroke-width="10" stroke-opacity="1" stroke-miterlimit="4"/></g></g></g></g><g clip-path="url(#b935d2b514)"><g clip-path="url(#65bfe50e55)"><g clip-path="url(#9f9bbe07b3)"><g clip-path="url(#b816b2aa05)"><path stroke-linecap="butt" transform="matrix(0.601033, -0.44862, 0.44862, 0.601033, 64.4034, 313.639023)" fill="none" stroke-linejoin="miter" d="M 34.919558 -0.00126738 L 69.839265 61.107184 L -0.00154886 61.107282 Z M 34.919558 -0.00126738 " stroke="#000000" stroke-width="10" stroke-opacity="1" stroke-miterlimit="4"/></g></g></g></g><g clip-path="url(#6236da7b0e)"><g clip-path="url(#b93a21d60f)"><g clip-path="url(#6c5ff87a1c)"><g clip-path="url(#bd23020701)"><path stroke-linecap="butt" transform="matrix(0.601033, -0.44862, 0.44862, 0.601033, 77.249099, 267.975186)" fill="none" stroke-linejoin="miter" d="M 34.921829 0.0000525436 L 69.841536 61.108504 L 0.000722146 61.108602 Z M 34.921829 0.0000525436 " stroke="#000000" stroke-width="10" stroke-opacity="1" stroke-miterlimit="4"/></g></g></g></g><g clip-path="url(#52b12c3fb8)"><g clip-path="url(#c24c393016)"><g clip-path="url(#bd0a8cffcd)"><g clip-path="url(#bda38bacaf)"><path stroke-linecap="butt" transform="matrix(0.601033, -0.44862, 0.44862, 0.601033, 122.67368, 249.770285)" fill="none" stroke-linejoin="miter" d="M 34.917521 -0.000207752 L 69.837228 61.108244 L 0.000587993 61.111457 Z M 34.917521 -0.000207752 " stroke="#000000" stroke-width="10" stroke-opacity="1" stroke-miterlimit="4"/></g></g></g></g><g clip-path="url(#88d3055445)"><g clip-path="url(#def78929ce)"><g clip-path="url(#ebb001de7f)"><g clip-path="url(#1ec82f0160)"><path stroke-linecap="butt" transform="matrix(0.601033, -0.44862, 0.44862, 0.601033, 95.051211, 213.630893)" fill="none" stroke-linejoin="miter" d="M 34.919975 -0.000428053 L 69.839681 61.108023 L -0.00113262 61.108122 Z M 34.919975 -0.000428053 " stroke="#000000" stroke-width="10" stroke-opacity="1" stroke-miterlimit="4"/></g></g></g></g><g clip-path="url(#50adb5231d)"><g clip-path="url(#52636fbf28)"><g clip-path="url(#3bb155501f)"><g clip-path="url(#72b21dfe9b)"><path stroke-linecap="butt" transform="matrix(0.601033, -0.44862, 0.44862, 0.601033, 116.795526, 172.869833)" fill="none" stroke-linejoin="miter" d="M 34.9224 0.000286114 L 69.842107 61.108737 L 0.00129318 61.108836 Z M 34.9224 0.000286114 " stroke="#000000" stroke-width="10" stroke-opacity="1" stroke-miterlimit="4"/></g></g></g></g><g clip-path="url(#d0e2f995a1)"><g clip-path="url(#1738c034ae)"><g clip-path="url(#bba3e2cf1e)"><g clip-path="url(#16c5b5dc51)"><path stroke-linecap="butt" transform="matrix(0.601033, -0.44862, 0.44862, 0.601033, 147.470752, 207.834186)" fill="none" stroke-linejoin="miter" d="M 34.918428 -0.00186113 L 69.838135 61.10659 L 0.00149438 61.109804 Z M 34.918428 -0.00186113 " stroke="#000000" stroke-width="10" stroke-opacity="1" stroke-miterlimit="4"/></g></g></g></g><g clip-path="url(#816ce1c90b)"><g clip-path="url(#e731788efe)"><g clip-path="url(#60b1a13264)"><g clip-path="url(#9fd283e921)"><path stroke-linecap="butt" transform="matrix(0.601033, -0.44862, 0.44862, 0.601033, 181.088121, 172.869833)" fill="none" stroke-linejoin="miter" d="M 34.918626 -0.0025312 L 69.842507 61.109036 L 0.00169256 61.109134 Z M 34.918626 -0.0025312 " stroke="#000000" stroke-width="10" stroke-opacity="1" stroke-miterlimit="4"/></g></g></g></g><g clip-path="url(#a03abfe493)"><g clip-path="url(#365800470a)"><g clip-path="url(#eee417a9bb)"><g clip-path="url(#f6f9087b4e)"><path stroke-linecap="butt" transform="matrix(0.601033, -0.44862, 0.44862, 0.601033, 206.054727, 131.820855)" fill="none" stroke-linejoin="miter" d="M 34.91924 0.00142626 L 69.838947 61.109878 L -0.00186726 61.109976 Z M 34.91924 0.00142626 " stroke="#000000" stroke-width="10" stroke-opacity="1" stroke-miterlimit="4"/></g></g></g></g><g clip-path="url(#8ce7aa7503)"><g clip-path="url(#217cf10353)"><g clip-path="url(#9af27631fa)"><g clip-path="url(#8472bccd5d)"><path stroke-linecap="butt" transform="matrix(-0.540817, 0.519632, -0.519632, -0.540817, 219.791563, 151.575986)" fill="none" stroke-linejoin="miter" d="M 34.921036 -0.00108439 L 69.839315 61.11187 L -0.00150869 61.107328 Z M 34.921036 -0.00108439 " stroke="#000000" stroke-width="10" stroke-opacity="1" stroke-miterlimit="4"/></g></g></g></g><g clip-path="url(#fb96667146)"><g clip-path="url(#281798e20e)"><g clip-path="url(#b9f065f16d)"><g clip-path="url(#aad9bdd6ca)"><path stroke-linecap="butt" transform="matrix(-0.540817, 0.519632, -0.519632, -0.540817, 263.770828, 70.551917)" fill="none" stroke-linejoin="miter" d="M 34.920462 -0.00280353 L 69.838741 61.110151 L 0.00167319 61.109218 Z M 34.920462 -0.00280353 " stroke="#000000" stroke-width="10" stroke-opacity="1" stroke-miterlimit="4"/></g></g></g></g><g clip-path="url(#c84f1428be)"><g clip-path="url(#109c19ef05)"><g clip-path="url(#9a816f86a1)"><g clip-path="url(#0c8d7f2a85)"><path stroke-linecap="butt" transform="matrix(-0.540817, 0.519632, -0.519632, -0.540817, 246.070858, 111.312979)" fill="none" stroke-linejoin="miter" d="M 34.916738 -0.000373204 L 69.838625 61.108826 L 0.00155745 61.107892 Z M 34.916738 -0.000373204 " stroke="#000000" stroke-width="10" stroke-opacity="1" stroke-miterlimit="4"/></g></g></g></g><g clip-path="url(#d3390a86f9)"><g clip-path="url(#7e47e430a7)"><g clip-path="url(#b62b5fb607)"><g clip-path="url(#cabb04c160)"><path stroke-linecap="butt" transform="matrix(-0.184197, 0.727029, -0.727029, -0.184197, 297.75725, 79.683415)" fill="none" stroke-linejoin="miter" d="M 34.919045 0.00144197 L 69.840135 61.109055 L -0.00163027 61.110927 Z M 34.919045 0.00144197 " stroke="#000000" stroke-width="10" stroke-opacity="1" stroke-miterlimit="4"/></g></g></g></g><g clip-path="url(#e57e6fa942)"><g clip-path="url(#ea93eab079)"><g clip-path="url(#e19c779481)"><g clip-path="url(#ac10c9fe6b)"><path stroke-linecap="butt" transform="matrix(-0.540817, 0.519632, -0.519632, -0.540817, 306.042671, 55.931524)" fill="none" stroke-linejoin="miter" d="M 34.922038 0.00000519602 L 69.836561 61.109351 L -0.000506951 61.108418 Z M 34.922038 0.00000519602 " stroke="#000000" stroke-width="10" stroke-opacity="1" stroke-miterlimit="4"/></g></g></g></g></svg>