<svg xmlns="http://www.w3.org/2000/svg" xmlns:xlink="http://www.w3.org/1999/xlink" width="500" zoomAndPan="magnify" viewBox="0 0 375 374.999991" height="500" preserveAspectRatio="xMidYMid meet" version="1.0"><defs><clipPath id="7af72bb53c"><path d="M 0 0.605469 L 374.394531 0.605469 L 374.394531 375 L 0 375 Z M 0 0.605469 " clip-rule="nonzero"/></clipPath><clipPath id="cb341f2e17"><path d="M 187.199219 0.605469 C 83.8125 0.605469 0 84.417969 0 187.800781 C 0 291.1875 83.8125 375 187.199219 375 C 290.582031 375 374.394531 291.1875 374.394531 187.800781 C 374.394531 84.417969 290.582031 0.605469 187.199219 0.605469 Z M 187.199219 0.605469 " clip-rule="nonzero"/></clipPath><clipPath id="4b238ecdfa"><path d="M 27.351562 137.304688 L 108.808594 137.304688 L 108.808594 218.761719 L 27.351562 218.761719 Z M 27.351562 137.304688 " clip-rule="nonzero"/></clipPath><clipPath id="3ed185794a"><path d="M 68.078125 137.304688 C 45.585938 137.304688 27.351562 155.539062 27.351562 178.03125 C 27.351562 200.527344 45.585938 218.761719 68.078125 218.761719 C 90.574219 218.761719 108.808594 200.527344 108.808594 178.03125 C 108.808594 155.539062 90.574219 137.304688 68.078125 137.304688 Z M 68.078125 137.304688 " clip-rule="nonzero"/></clipPath><clipPath id="83f75e1196"><path d="M 283.480469 279.246094 L 314.875 279.246094 L 314.875 310.640625 L 283.480469 310.640625 Z M 283.480469 279.246094 " clip-rule="nonzero"/></clipPath><clipPath id="91644eb264"><path d="M 299.179688 279.246094 C 290.507812 279.246094 283.480469 286.273438 283.480469 294.941406 C 283.480469 303.613281 290.507812 310.640625 299.179688 310.640625 C 307.847656 310.640625 314.875 303.613281 314.875 294.941406 C 314.875 286.273438 307.847656 279.246094 299.179688 279.246094 Z M 299.179688 279.246094 " clip-rule="nonzero"/></clipPath><clipPath id="6865de2fe8"><path d="M 114.890625 37.5 L 161.390625 37.5 L 161.390625 84 L 114.890625 84 Z M 114.890625 37.5 " clip-rule="nonzero"/></clipPath><clipPath id="6dff10ee27"><path d="M 138.195312 37.5 C 125.324219 37.5 114.890625 47.933594 114.890625 60.800781 C 114.890625 73.671875 125.324219 84.105469 138.195312 84.105469 C 151.066406 84.105469 161.496094 73.671875 161.496094 60.800781 C 161.496094 47.933594 151.066406 37.5 138.195312 37.5 Z M 138.195312 37.5 " clip-rule="nonzero"/></clipPath><clipPath id="d868d22f04"><path d="M 230.445312 111.988281 L 289.695312 111.988281 L 289.695312 171.238281 L 230.445312 171.238281 Z M 230.445312 111.988281 " clip-rule="nonzero"/></clipPath><clipPath id="788ae3dc49"><path d="M 260.113281 111.988281 C 243.726562 111.988281 230.445312 125.269531 230.445312 141.65625 C 230.445312 158.039062 243.726562 171.320312 260.113281 171.320312 C 276.496094 171.320312 289.777344 158.039062 289.777344 141.65625 C 289.777344 125.269531 276.496094 111.988281 260.113281 111.988281 Z M 260.113281 111.988281 " clip-rule="nonzero"/></clipPath><clipPath id="3a882e7646"><path d="M 125 171.324219 L 162 171.324219 L 162 238 L 125 238 Z M 125 171.324219 " clip-rule="nonzero"/></clipPath><clipPath id="76a9fa3ed7"><path d="M 95.414062 245 L 153 245 L 153 317 L 95.414062 317 Z M 95.414062 245 " clip-rule="nonzero"/></clipPath></defs><g clip-path="url(#7af72bb53c)"><g clip-path="url(#cb341f2e17)"><path fill="#498296" d="M 0 0.605469 L 374.394531 0.605469 L 374.394531 375 L 0 375 Z M 0 0.605469 " fill-opacity="1" fill-rule="nonzero"/></g></g><g clip-path="url(#4b238ecdfa)"><g clip-path="url(#3ed185794a)"><path stroke-linecap="butt" transform="matrix(0.75, 0, 0, 0.75, 27.350836, 137.303722)" fill="none" stroke-linejoin="miter" d="M 54.303055 0.00128709 C 24.31347 0.00128709 0.000968155 24.313789 0.000968155 54.303374 C 0.000968155 84.298168 24.31347 108.610669 54.303055 108.610669 C 84.297849 108.610669 108.61035 84.298168 108.61035 54.303374 C 108.61035 24.313789 84.297849 0.00128709 54.303055 0.00128709 Z M 54.303055 0.00128709 " stroke="#e7e7e7" stroke-width="10" stroke-opacity="1" stroke-miterlimit="4"/></g></g><g clip-path="url(#83f75e1196)"><g clip-path="url(#91644eb264)"><path stroke-linecap="butt" transform="matrix(0.75, 0, 0, 0.75, 283.481559, 279.245226)" fill="none" stroke-linejoin="miter" d="M 20.93084 0.00115745 C 9.368339 0.00115745 -0.00145325 9.37095 -0.00145325 20.928242 C -0.00145325 32.490743 9.368339 41.860535 20.93084 41.860535 C 32.488132 41.860535 41.857925 32.490743 41.857925 20.928242 C 41.857925 9.37095 32.488132 0.00115745 20.93084 0.00115745 Z M 20.93084 0.00115745 " stroke="#e7e7e7" stroke-width="8" stroke-opacity="1" stroke-miterlimit="4"/></g></g><g clip-path="url(#6865de2fe8)"><g clip-path="url(#6dff10ee27)"><path stroke-linecap="butt" transform="matrix(0.75, 0, 0, 0.75, 114.892226, 37.499998)" fill="none" stroke-linejoin="miter" d="M 31.070786 0.00000328333 C 13.909326 0.00000328333 -0.00213434 13.911463 -0.00213434 31.067716 C -0.00213434 48.229176 13.909326 62.140636 31.070786 62.140636 C 48.232247 62.140636 62.138499 48.229176 62.138499 31.067716 C 62.138499 13.911463 48.232247 0.00000328333 31.070786 0.00000328333 Z M 31.070786 0.00000328333 " stroke="#e7e7e7" stroke-width="10" stroke-opacity="1" stroke-miterlimit="4"/></g></g><g clip-path="url(#d868d22f04)"><g clip-path="url(#788ae3dc49)"><path stroke-linecap="butt" transform="matrix(0.75, 0, 0, 0.75, 230.446485, 111.988922)" fill="none" stroke-linejoin="miter" d="M 39.555732 -0.000854661 C 17.706772 -0.000854661 -0.00156276 17.70748 -0.00156276 39.55644 C -0.00156276 61.400191 17.706772 79.108526 39.555732 79.108526 C 61.399483 79.108526 79.107817 61.400191 79.107817 39.55644 C 79.107817 17.70748 61.399483 -0.000854661 39.555732 -0.000854661 Z M 39.555732 -0.000854661 " stroke="#e7e7e7" stroke-width="10" stroke-opacity="1" stroke-miterlimit="4"/></g></g><g clip-path="url(#3a882e7646)"><path fill="#20e468" d="M 145.230469 237.015625 C 149.757812 229.085938 155.28125 221.925781 161.800781 215.535156 C 154.933594 209.949219 138.914062 194.386719 137.664062 171.382812 C 132.355469 175.53125 124.148438 185.050781 125.550781 203.601562 C 127.015625 222.703125 135.589844 230.210938 145.230469 237.015625 Z M 145.230469 237.015625 " fill-opacity="1" fill-rule="nonzero"/></g><path fill="#20e468" d="M 269.941406 205.160156 C 269.453125 229.601562 257.886719 238.90625 247.695312 242.324219 C 239.675781 245.195312 231.96875 248.730469 224.5625 252.9375 C 217.160156 257.144531 210.171875 261.957031 203.605469 267.375 C 201.96875 268.707031 200.496094 270.199219 199.1875 271.851562 C 197.878906 273.503906 196.765625 275.28125 195.847656 277.179688 C 194.933594 279.078125 194.230469 281.050781 193.75 283.105469 C 193.265625 285.15625 193.011719 287.238281 192.984375 289.34375 C 192.40625 311.742188 180.71875 321.71875 180.230469 322.148438 C 179.917969 322.394531 179.570312 322.574219 179.1875 322.6875 C 178.800781 322.800781 178.414062 322.835938 178.015625 322.792969 C 177.617188 322.753906 177.242188 322.640625 176.890625 322.453125 C 176.539062 322.265625 176.234375 322.019531 175.976562 321.710938 C 175.71875 321.40625 175.53125 321.0625 175.40625 320.683594 C 175.285156 320.304688 175.238281 319.914062 175.269531 319.515625 C 175.300781 319.117188 175.402344 318.738281 175.578125 318.382812 C 175.757812 318.023438 175.996094 317.714844 176.292969 317.449219 C 179.003906 314.785156 181.136719 311.722656 182.703125 308.261719 C 181.746094 307.078125 180.84375 305.855469 179.996094 304.589844 C 179.148438 303.328125 178.355469 302.027344 177.625 300.695312 C 176.890625 299.359375 176.21875 297.996094 175.605469 296.601562 C 174.996094 295.207031 174.445312 293.789062 173.957031 292.347656 C 173.472656 290.90625 173.050781 289.445312 172.695312 287.964844 C 172.335938 286.484375 172.046875 284.992188 171.820312 283.488281 C 171.59375 281.984375 171.4375 280.46875 171.347656 278.949219 C 171.253906 277.429688 171.230469 275.910156 171.273438 274.390625 C 171.320312 272.867188 171.429688 271.351562 171.609375 269.839844 C 171.785156 268.328125 172.03125 266.828125 172.339844 265.335938 C 172.652344 263.847656 173.027344 262.375 173.46875 260.917969 C 173.910156 259.460938 174.414062 258.027344 174.984375 256.613281 C 175.550781 255.203125 176.183594 253.816406 176.871094 252.460938 C 177.5625 251.105469 178.3125 249.78125 179.121094 248.492188 C 179.929688 247.203125 180.792969 245.949219 181.710938 244.738281 C 182.632812 243.523438 183.601562 242.355469 184.625 241.226562 L 204.609375 219.316406 C 205.8125 218.015625 206.933594 216.644531 207.976562 215.210938 C 209.015625 213.777344 209.972656 212.285156 210.839844 210.742188 C 211.707031 209.195312 212.484375 207.605469 213.167969 205.96875 C 213.851562 204.332031 214.4375 202.664062 214.925781 200.960938 C 215.414062 199.253906 215.800781 197.527344 216.085938 195.777344 C 216.375 194.03125 216.558594 192.269531 216.640625 190.5 C 216.722656 188.726562 216.703125 186.957031 216.578125 185.191406 C 216.457031 183.421875 216.230469 181.667969 215.902344 179.925781 C 205.542969 186.269531 162.066406 215.839844 149.136719 242.78125 C 147.871094 245.417969 146.789062 248.128906 145.890625 250.910156 C 144.992188 253.695312 144.285156 256.523438 143.769531 259.402344 C 143.253906 262.28125 142.933594 265.183594 142.8125 268.105469 C 142.6875 271.023438 142.761719 273.941406 143.035156 276.855469 C 143.304688 279.765625 143.769531 282.644531 144.433594 285.496094 C 145.09375 288.34375 145.945312 291.132812 146.984375 293.867188 C 148.023438 296.601562 149.242188 299.253906 150.636719 301.820312 C 152.035156 304.390625 153.601562 306.851562 155.332031 309.210938 C 158.734375 313.769531 162.386719 318.125 166.285156 322.269531 C 166.804688 322.789062 180.960938 337.25 160.761719 368.953125 C 159.566406 370.789062 158.761719 372.785156 158.351562 374.933594 L 217.882812 374.933594 C 221.757812 355.804688 215.167969 343.84375 211.445312 338.898438 C 207.011719 344.59375 201.695312 349.285156 195.488281 352.964844 C 195.140625 353.164062 194.765625 353.289062 194.371094 353.339844 C 193.972656 353.394531 193.582031 353.367188 193.195312 353.265625 C 192.808594 353.164062 192.453125 352.992188 192.136719 352.75 C 191.816406 352.507812 191.554688 352.214844 191.351562 351.871094 C 191.144531 351.527344 191.015625 351.15625 190.957031 350.761719 C 190.898438 350.367188 190.914062 349.972656 191.011719 349.585938 C 191.109375 349.195312 191.273438 348.839844 191.507812 348.515625 C 191.746094 348.195312 192.035156 347.925781 192.375 347.71875 C 207.675781 339.171875 216.605469 321.054688 218.859375 306.003906 C 219.234375 303.957031 219.714844 301.9375 220.304688 299.941406 C 220.890625 297.945312 221.578125 295.984375 222.371094 294.058594 C 223.160156 292.132812 224.050781 290.257812 225.039062 288.425781 C 226.023438 286.59375 227.105469 284.816406 228.277344 283.097656 C 229.449219 281.378906 230.707031 279.726562 232.054688 278.136719 C 233.398438 276.550781 234.824219 275.039062 236.328125 273.597656 C 237.832031 272.160156 239.40625 270.804688 241.050781 269.527344 C 242.695312 268.253906 244.402344 267.070312 246.167969 265.972656 L 260.632812 256.878906 C 261.707031 256.25 262.742188 255.566406 263.742188 254.824219 C 264.742188 254.082031 265.703125 253.289062 266.617188 252.445312 C 267.53125 251.601562 268.394531 250.710938 269.214844 249.773438 C 270.03125 248.835938 270.796875 247.855469 271.511719 246.835938 C 272.222656 245.8125 272.878906 244.757812 273.476562 243.667969 C 274.074219 242.574219 274.613281 241.453125 275.089844 240.304688 C 275.570312 239.15625 275.984375 237.984375 276.332031 236.789062 C 276.683594 235.597656 276.96875 234.386719 277.191406 233.160156 C 277.410156 231.9375 277.566406 230.703125 277.652344 229.460938 C 277.738281 228.21875 277.761719 226.976562 277.714844 225.734375 C 277.667969 224.488281 277.550781 223.253906 277.371094 222.019531 C 277.191406 220.789062 276.945312 219.570312 276.632812 218.367188 C 276.320312 217.160156 275.945312 215.976562 275.503906 214.8125 C 275.066406 213.648438 274.5625 212.511719 274 211.398438 C 273.4375 210.289062 272.816406 209.214844 272.140625 208.171875 C 271.460938 207.128906 270.726562 206.125 269.941406 205.160156 Z M 269.941406 205.160156 " fill-opacity="1" fill-rule="nonzero"/><g clip-path="url(#76a9fa3ed7)"><path fill="#20e468" d="M 138.855469 288.492188 C 126.535156 250.984375 103.007812 245.605469 95.402344 245.5 C 95.25 257.976562 98.148438 307.257812 152.921875 316.074219 C 149.585938 312.054688 146.730469 307.71875 144.355469 303.0625 C 141.984375 298.410156 140.148438 293.550781 138.855469 288.492188 Z M 138.855469 288.492188 " fill-opacity="1" fill-rule="nonzero"/></g></svg>